<svg xmlns="http://www.w3.org/2000/svg" viewBox="0 0 198 177.12"><defs><style>.cls-1{fill:#315da9;}.cls-2{fill:#ec656d;}</style></defs><g id="Calque_2" data-name="Calque 2"><g id="Calque_1-2" data-name="Calque 1"><path class="cls-1" d="M98,94.74a.4.4,0,0,1-.06-.36l19.1-6.78a34.61,34.61,0,0,0-4,6.08,14,14,0,0,0-1.68,9.57,6.69,6.69,0,0,0,2,3.71c1.78,2.05,3.68,4,5.59,6s4.05,2.53,6.55,1.53a15.35,15.35,0,0,0,5.81-3.27A76,76,0,0,0,145,96.51a54.66,54.66,0,0,0,3.78-6.65,22.34,22.34,0,0,0,1.85-7.08,7,7,0,0,0-1.69-5.43l-3.27-3.7a4.21,4.21,0,0,0-5.16-1.42,15.88,15.88,0,0,0-5.16,2.91,59,59,0,0,0-5.41,5.21,2.69,2.69,0,0,1-.57.61,4.69,4.69,0,0,0-1-1.09c-.67-.93-.78-1-1.79-.53a20.23,20.23,0,0,0-3.67,2.45l-.27.23a14,14,0,0,1-2.17.31,29.27,29.27,0,0,0-7.85,1.42l-16.15,5-1,.31L95,88.16A13.28,13.28,0,0,0,88.52,82a28.07,28.07,0,0,0-10.07-2.22,45.65,45.65,0,0,0-9,.42l-1.09.17-.19-.26a2.68,2.68,0,0,1,.76-.35l2.83-1.53a118.28,118.28,0,0,0,12.4-7.12A316.42,316.42,0,0,0,110.5,51.19a78.52,78.52,0,0,0,12-12.23A57.87,57.87,0,0,0,129.77,27a14.37,14.37,0,0,0,.7-10.08l-.31-1.69c-.48-2.07-.85-4.12-1.47-6.09a8.85,8.85,0,0,0-4.34-5.75,16.58,16.58,0,0,0-1.92-1.13A27.6,27.6,0,0,0,111.54.05,66.66,66.66,0,0,0,94.65,1.64,109.64,109.64,0,0,0,79.36,6.3C66.91,10.84,55,16.4,44.05,23.88A111,111,0,0,0,23.8,41.1a47.86,47.86,0,0,0-9.73,15.17,24.75,24.75,0,0,0-1.73,9.91,14.3,14.3,0,0,0,1.78,6.38c1.3,2.09,2.74,4.08,4.17,6.07a5.07,5.07,0,0,0,2.5,1.93,10.73,10.73,0,0,0,3.78.5,29.32,29.32,0,0,0,8.55-2.13A65.69,65.69,0,0,0,46.47,71l.82-.69a2.15,2.15,0,0,1,0,.82c-1.43,3-2.75,6.12-4.08,9.3-.8,2-1.61,4.07-2.28,6.07-.73,2.34-1.33,4.59-1.83,7s-1.13,4.74-1.63,7.12a6.75,6.75,0,0,0,0,3.4,1.22,1.22,0,0,0,.56.91l3.68,1.88.49-.85c.23.74.2,1.67,1.37,1.63.43-1.22,1.44-2.35,1.32-3.77a2.77,2.77,0,0,1,.22-1.37l3.64-10.89a1.48,1.48,0,0,1,1-.9l3.87-2.19a7.91,7.91,0,0,1,1.75-.65,56.93,56.93,0,0,1,16.17-2.18,35.75,35.75,0,0,1,11.56,1.65,21.61,21.61,0,0,1,6.1,2.86c.32.17.66.23.82.72l-1.12.41c-7.59,2.75-15.19,5.5-22.7,8.49-12.78,5.08-25.29,10.66-37.54,16.87a128.65,128.65,0,0,0-20.2,12.54,39.26,39.26,0,0,0-5.64,5.17,11.6,11.6,0,0,0-2.33,3.49,4.65,4.65,0,0,0,.5,4.89,54.22,54.22,0,0,1,3.61,5.15,7.46,7.46,0,0,0,3.86,3,29.61,29.61,0,0,0,3.12,1,33.48,33.48,0,0,0,9.62.62A85.44,85.44,0,0,0,42,148.21a96.52,96.52,0,0,0,15-6.58,207,207,0,0,0,19.14-11.77,79.27,79.27,0,0,0,14.55-12.4,33.89,33.89,0,0,0,7.55-13.31C99.15,100.9,99.42,97.78,98,94.74ZM133.19,107c0-.11,0-.11-.09-.13a.1.1,0,0,1,.13-.09,105,105,0,0,0,8.17-9.22l2.86-3.87C142.7,97.54,136,105.37,133.19,107Zm5-27.3L132.63,86C132.87,84.47,136.18,80.67,138.21,79.71Zm-10.33,16,2.19,2.35.82-.69a1.38,1.38,0,0,0,.6-1.54,13.7,13.7,0,0,1,0-2.22,12.15,12.15,0,0,1,1.94-5.43c1.17-1.45,2.26-3.15,3.46-4.71a14.84,14.84,0,0,1,5.87-4.43,4.27,4.27,0,0,0,1.1-.29l.46.07,0,2a18,18,0,0,1-2.09,6.34A51.79,51.79,0,0,1,131.36,101a18.33,18.33,0,0,1-7.76,4.48,5.08,5.08,0,0,1-2.73.26,11.74,11.74,0,0,1,.09-4.91,15.74,15.74,0,0,1,1.33-3.88c.93-2.08,2.21-4.21,3.25-6.27a3.45,3.45,0,0,0,.6-.84l.25.62,0,1.75A5.15,5.15,0,0,0,127.88,95.72Zm-1.41-10.07c.11,0,.23,0,.21.16a1.15,1.15,0,0,1-.36.76c-1,1.24-2.14,2.34-3.28,3.57A14.84,14.84,0,0,1,126.47,85.65Zm-22.73,5,15-4.93-.35.39c-4.79,1.65-9.67,3.27-14.54,4.79-.26.19-.61.14-.85.21C103.23,90.9,103.38,90.69,103.74,90.63Zm-.89.44-1.14.52a11.83,11.83,0,0,1-2.56.64A24.18,24.18,0,0,1,102.85,91.07ZM43,102.44H42.9c.05-.35,0-.71,0-.93l1.69-6.06.71-2.23a1,1,0,0,1,1.06-.76Zm35.4-31.15-.39.29,0-.12.39-.29ZM31.89,42.53A109.86,109.86,0,0,1,48.5,28.94a134.22,134.22,0,0,1,31-15.47A82.21,82.21,0,0,1,91.83,9.61l1.08-.17.74-.23a.33.33,0,0,0,.08.24c-.34,0-.59,0-.82,0a4.2,4.2,0,0,1-1,.42,152.19,152.19,0,0,0-15.78,5.52,166.31,166.31,0,0,0-31.36,17A141.83,141.83,0,0,0,31.94,42.89a5.6,5.6,0,0,1-.92.67Zm-1,1.12c-.17.33-.2.55-.34.65L30.35,44C30.6,44,30.64,43.73,30.88,43.65ZM39.2,73.94a68,68,0,0,0,9.86-7.3C48.17,68.49,41.65,73.29,39.2,73.94Zm12,6.87c-.34.65-.36.77-1.36,1.19,1.53-5.14,16.86-36,18.89-37.71,0,.23,0,.48,0,.71-.34.65-.58,1.43-1,2.17-2.76,5.41-5.61,10.69-8.23,16C56.64,69,53.92,74.93,51.21,80.81Zm3.72-2-.38.17a.44.44,0,0,0-.21-.15,2.25,2.25,0,0,0,.38-.87C59.44,67.62,64.52,57.32,70,47.31l1.54-3c.57-1.31.19-1.84-1.15-2.29a.83.83,0,0,1-.63-.46c-.13-.61-.85-.49-1.24-1l-.24.08c-.5-1.25-1.76-1.46-2.66-2.42a11.09,11.09,0,0,0-1.17,1.45,63.14,63.14,0,0,0-6.1,9.43c-1.3,2.25-2.51,4.63-3.72,7a4.47,4.47,0,0,1-.89,1.15,69.32,69.32,0,0,1-12.9,10.91,35.36,35.36,0,0,1-13,5.15,21.57,21.57,0,0,1-6.22,0c-1.48-.24-1.57-.37-1.79-1.93a22.59,22.59,0,0,1,2.4-11.21,44.48,44.48,0,0,1,8.72-12.52A106.54,106.54,0,0,1,50.09,31.42,139.73,139.73,0,0,1,88.54,13.3a66.83,66.83,0,0,1,18.88-3A30.56,30.56,0,0,1,119,12a17.27,17.27,0,0,1,4.69,2.87,1.33,1.33,0,0,1,.44,1.6,25.11,25.11,0,0,1-2.65,6.24A64.71,64.71,0,0,1,109,38.65,147.54,147.54,0,0,1,95.17,50.34c-6.86,5.45-14,10.61-21.36,15.4-2.88,1.87-5.56,3.9-8.46,5.89Zm6,2.85L77.14,71.9l.12,0c-5.29,3.71-10.7,6.7-16.27,10C60.89,81.8,60.89,81.8,60.91,81.69ZM32.06,120.82c6.83-3.81,13.94-7.23,21-10.41,5.94-2.67,11.88-5.34,18-7.62l1-.31a2.87,2.87,0,0,1-.66.48,386.84,386.84,0,0,0-39.15,18.12l-1.1.29A2.34,2.34,0,0,1,32.06,120.82ZM28.3,123A6.62,6.62,0,0,1,31,121.47,6.62,6.62,0,0,1,28.3,123a3.77,3.77,0,0,1-1.91,1A3.11,3.11,0,0,1,28.3,123Zm-3.07,1.61,1-.54a1.31,1.31,0,0,1-1,.54,2,2,0,0,1-1.31.84ZM7.81,138.09a.11.11,0,0,0-.09-.14,1.27,1.27,0,0,1,.34-.64,16.87,16.87,0,0,1,2.42-2.66,85.42,85.42,0,0,1,13-9l.38-.18c-.25.08-.29.31-.44.52A93,93,0,0,0,8.23,137.69Zm52.93-1.25-.1-.13c-.11,0,0-.12,0-.12,6.66-4.19,13.22-8.51,19.49-13.23l.34,0C74.64,129.14,67.8,133.07,60.74,136.84Zm30.58-39A31.5,31.5,0,0,1,84.94,109a85.64,85.64,0,0,1-13.11,12.17A113.11,113.11,0,0,1,25,141.93a41.9,41.9,0,0,1-13.8.57c-.92-.15-1.7-.39-2.5-.52a.91.91,0,0,1-.43-.19,3.87,3.87,0,0,1,.41-1.1,17.24,17.24,0,0,1,3.24-4.05,50.13,50.13,0,0,1,8.31-6.49,281.62,281.62,0,0,1,32.86-17.63c8.86-4.07,18-7.74,27.14-11.29,3.49-1.31,6.91-2.87,10.29-4.19a4.37,4.37,0,0,1,1.12-.41C91.55,97.21,91.38,97.53,91.32,97.87Zm.22-2.77L76.9,100.8a.85.85,0,0,1-.61.14A26.19,26.19,0,0,1,73.66,102a4,4,0,0,1-1.11.29l2.4-1a13.38,13.38,0,0,0,1.34-.36l.54-.38L91,95l1-.19C91.8,94.9,91.65,95.11,91.54,95.1Z"/><path class="cls-1" d="M147,117.11l1.67-1.6c.15-.21.53-.39.7-.71a66.9,66.9,0,0,1,6.82-8.85c0-.11.27-.19.53-.38a4.58,4.58,0,0,0-.2,1.25c-.09,1.28-.31,2.65-.29,3.94a4.32,4.32,0,0,0,1.86,3.7c1.16.77,2.31,1.66,3.45,2.55a4.2,4.2,0,0,0,4.72.53,10.86,10.86,0,0,0,3.62-2.81l3.67-4.56a46.22,46.22,0,0,0,8-15.92,13,13,0,0,0,.65-4.7A3.78,3.78,0,0,0,181,86.78l-2.9-3c-1-1-1.45-1.17-2.74-.45a12.77,12.77,0,0,0-2.6,1.57,70.93,70.93,0,0,0-10.49,9.08l-.84.8-.19-.27.64-1.06c5.29-8.75,10.79-17.35,16.51-25.91,4.8-7.19,9.62-14.49,15-21.36.48-.74,1.06-1.46,1.55-2.32a.67.67,0,0,0-.06-1.07l-1.07-.64a.75.75,0,0,0-.13-.61c-.59-.68-1.3-1.38-1.87-2.17-.29-.4-.65-.34-1-.17l-1.22,1a70.29,70.29,0,0,0-8.74,9.13,357.48,357.48,0,0,0-23.36,33.46,216.28,216.28,0,0,0-13.26,24.68,16.12,16.12,0,0,0-1.32,4.47,1.73,1.73,0,0,0,.45,1.6l2.4,2.5.74-.24C146.08,116.37,146.49,116.79,147,117.11Zm22.36-4.92c1.7-2.54,3.49-4.94,5.21-7.59C174.39,106.56,171.06,111.17,169.38,112.19Zm-7.71-11.68a1.82,1.82,0,0,1,.5-1A55.5,55.5,0,0,1,173.92,90l1.14-.52.23,0-.54,1.91a79.72,79.72,0,0,1-8.66,16.51,12.44,12.44,0,0,1-3.34,3.21L161,112c0-.47-.23-.74-.19-1a12.82,12.82,0,0,1-.31-4.62C160.81,104.35,161.24,102.43,161.67,100.51Zm-2.43-8.13c5-8.56,10.34-16.83,15.88-24.95,4.14-6,8.39-12,12.63-17.87,1.21-1.68,2.51-3.22,3.84-4.88.26-.19.34-.65.89-.44a1.07,1.07,0,0,0-.21.55l-.87,1c-6.39,7.63-12,16-17.52,24.22-5,7.51-9.94,15-14.6,22.82l-.42.4Zm-.57,1.32c0,.22-.07.45-.21.55a.38.38,0,0,1-.21-.15C158.27,94,158.54,93.79,158.67,93.7Zm-.94,1.48a.11.11,0,0,1,.13-.09.11.11,0,0,0,.1.13.81.81,0,0,0-.31.42l-.11,0C157.56,95.51,157.71,95.3,157.73,95.18Z"/><path class="cls-1" d="M197.46,113.12c-.72-.59-1.31-1.27-2-2-.52-.44-.86-1.2-1.81-1.12-.12,0-.31-.28-.4-.41-.94-.74-1.51-.83-2.44-.16a14.59,14.59,0,0,0-4.2,4.23,2.94,2.94,0,0,0,.45,3.71l2.83,2.8a1.6,1.6,0,0,0,1.56.49,5.26,5.26,0,0,0,3.28-1.46,30,30,0,0,0,2.46-2.88,5.8,5.8,0,0,0,.78-1.16A2.44,2.44,0,0,0,197.46,113.12Zm-6.87,1.93a.12.12,0,0,0-.1-.14,2.76,2.76,0,0,1,1.33-1.66.11.11,0,0,1,.09.14Zm4.3,2.34c0-.59.36-.77.53-1.09a.45.45,0,0,1,.33.17Z"/><path class="cls-2" d="M119.57,155.21v-26a1.55,1.55,0,0,0-.52-1.2,1.87,1.87,0,0,0-1.2-.52,1.71,1.71,0,0,0-1.42.79L105.93,144,95.58,128.32a1.59,1.59,0,0,0-.69-.58,1.88,1.88,0,0,0-.81-.21,1.65,1.65,0,0,0-1.26.52,1.68,1.68,0,0,0-.51,1.2v26a1.72,1.72,0,0,0,.47,1.21,1.62,1.62,0,0,0,2.34,0,1.71,1.71,0,0,0,.46-1.21V134l8.9,13.66a1.59,1.59,0,0,0,.58.54,1.25,1.25,0,0,0,.76.17,1.21,1.21,0,0,0,.77-.17,2.1,2.1,0,0,0,.61-.54l8.85-13.46v21a1.78,1.78,0,0,0,3,1.21A1.62,1.62,0,0,0,119.57,155.21Z"/><path class="cls-2" d="M144,135a1.6,1.6,0,0,0-1.22.49,1.69,1.69,0,0,0-.46,1.19v1.68a8,8,0,0,0-1.36-1.51,8.77,8.77,0,0,0-2.71-1.59,9.62,9.62,0,0,0-8.38.85,10.28,10.28,0,0,0-3.59,4,13.58,13.58,0,0,0,0,11.68,10.61,10.61,0,0,0,3.59,4.05,9.2,9.2,0,0,0,5.16,1.48,8.38,8.38,0,0,0,3.16-.6,9.44,9.44,0,0,0,2.58-1.56,8.09,8.09,0,0,0,1.55-1.75v1.78a1.75,1.75,0,0,0,.46,1.21,1.57,1.57,0,0,0,1.22.5,1.6,1.6,0,0,0,1.2-.5,1.68,1.68,0,0,0,.48-1.21v-18.5a1.69,1.69,0,0,0-.46-1.19A1.6,1.6,0,0,0,144,135Zm-4.93,18.12a6.79,6.79,0,0,1-7.38,0,7.5,7.5,0,0,1-2.54-3,9.43,9.43,0,0,1-.92-4.21,9.29,9.29,0,0,1,.92-4.19,7.38,7.38,0,0,1,2.54-2.92,6.84,6.84,0,0,1,7.38,0,7.37,7.37,0,0,1,2.52,2.94,9.33,9.33,0,0,1,.9,4.15,9.56,9.56,0,0,1-.9,4.21A7.3,7.3,0,0,1,139.05,153.15Z"/><path class="cls-2" d="M155.07,156.42a1.68,1.68,0,0,0,.48-1.21v-5.66l2.8-2.44,8.65,9.23a1.66,1.66,0,0,0,1.26.54,1.81,1.81,0,0,0,1.09-.44,1.41,1.41,0,0,0,.59-1.19,1.81,1.81,0,0,0-.5-1.26l-8.52-9.12,7.84-6.86a1.68,1.68,0,0,0,.68-1.26,1.64,1.64,0,0,0-.49-1.11,1.5,1.5,0,0,0-1.15-.52,1.79,1.79,0,0,0-1.22.5l-11,9.87V127.61a1.72,1.72,0,0,0-.48-1.22,1.6,1.6,0,0,0-1.19-.5,1.65,1.65,0,0,0-1.24.5,1.72,1.72,0,0,0-.48,1.22v27.6a1.68,1.68,0,0,0,.48,1.21,1.61,1.61,0,0,0,1.24.5A1.56,1.56,0,0,0,155.07,156.42Z"/><path class="cls-2" d="M189.59,137.51a9.72,9.72,0,0,0-3.19-2.1,10.12,10.12,0,0,0-3.75-.71,9.57,9.57,0,0,0-4.93,1.36,10.32,10.32,0,0,0-3.78,3.94,12.61,12.61,0,0,0-1.44,6.23,11.55,11.55,0,0,0,1.4,5.77,10.25,10.25,0,0,0,3.92,3.92,11.73,11.73,0,0,0,5.87,1.42,9.82,9.82,0,0,0,4.28-1,10,10,0,0,0,3.19-2.27,1.68,1.68,0,0,0,.71-1.3,1.36,1.36,0,0,0-.42-1,1.42,1.42,0,0,0-1-.42,1.78,1.78,0,0,0-1,.38,9.41,9.41,0,0,1-1.35,1.15,7.37,7.37,0,0,1-1.86.94,7.84,7.84,0,0,1-2.58.38,7.7,7.7,0,0,1-4.07-1.07,7.48,7.48,0,0,1-2.75-2.91,8.76,8.76,0,0,1-.95-3.65H191a1.72,1.72,0,0,0,1.17-.44,1.57,1.57,0,0,0,.55-1.11,10.92,10.92,0,0,0-.88-4.28A10.62,10.62,0,0,0,189.59,137.51Zm-11.66,2.22a6.36,6.36,0,0,1,2.22-1.43,7.27,7.27,0,0,1,2.5-.46,6.8,6.8,0,0,1,5.34,2.58,5.55,5.55,0,0,1,1.16,3v.33H176a8.63,8.63,0,0,1,.4-1.46A6.73,6.73,0,0,1,177.93,139.73Z"/><path class="cls-2" d="M100.86,167.94a.65.65,0,0,0-.5.2.68.68,0,0,0-.2.49v.71a3.3,3.3,0,0,0-.56-.64,3.57,3.57,0,0,0-1.11-.65,3.64,3.64,0,0,0-1.38-.25,3.74,3.74,0,0,0-2.07.6A4.28,4.28,0,0,0,93.56,170a5.6,5.6,0,0,0,0,4.8A4.37,4.37,0,0,0,95,176.51a3.76,3.76,0,0,0,2.12.61,3.39,3.39,0,0,0,1.31-.25,3.75,3.75,0,0,0,1.06-.64,3.27,3.27,0,0,0,.63-.73v.74a.7.7,0,0,0,.2.5.63.63,0,0,0,.5.21.67.67,0,0,0,.49-.21.7.7,0,0,0,.2-.5v-7.61a.71.71,0,0,0-.19-.49A.69.69,0,0,0,100.86,167.94Zm-2,7.46a2.67,2.67,0,0,1-1.53.45,2.63,2.63,0,0,1-1.51-.45,3.1,3.1,0,0,1-1-1.22,4.13,4.13,0,0,1,0-3.46,3,3,0,0,1,1-1.2,2.7,2.7,0,0,1,1.51-.44,2.67,2.67,0,0,1,1.53.45,3,3,0,0,1,1,1.21,3.77,3.77,0,0,1,.37,1.71,3.89,3.89,0,0,1-.37,1.73A3,3,0,0,1,98.83,175.4Z"/><path class="cls-2" d="M115.13,168.29a3.08,3.08,0,0,0-1.85-.49,3.44,3.44,0,0,0-1.19.22,3.91,3.91,0,0,0-1,.58,3.32,3.32,0,0,0-.77.82.41.41,0,0,0,0,.09v-.77a.73.73,0,0,0-.19-.51.65.65,0,0,0-.5-.2.66.66,0,0,0-.5.2.69.69,0,0,0-.2.51v7.5a.7.7,0,0,0,.2.5.69.69,0,0,0,1,0,.7.7,0,0,0,.2-.5v-4.8a2.11,2.11,0,0,1,.36-1.19,2.64,2.64,0,0,1,1-.85,2.87,2.87,0,0,1,1.33-.32,2.23,2.23,0,0,1,1.25.32,1.74,1.74,0,0,1,.66.85,3.5,3.5,0,0,1,.2,1.19v4.8a.69.69,0,0,0,.19.5.63.63,0,0,0,.5.21.65.65,0,0,0,.49-.21.7.7,0,0,0,.2-.5v-4.83a5.49,5.49,0,0,0-.29-1.83A2.58,2.58,0,0,0,115.13,168.29Z"/><path class="cls-2" d="M125.38,169a3.78,3.78,0,0,0-1.31-.86,4,4,0,0,0-3.57.26A4.28,4.28,0,0,0,119,170a5.1,5.1,0,0,0-.6,2.56,4.78,4.78,0,0,0,.58,2.37,4.25,4.25,0,0,0,1.61,1.62,4.87,4.87,0,0,0,2.42.58,4.08,4.08,0,0,0,1.76-.39,4.2,4.2,0,0,0,1.31-.94.69.69,0,0,0,.3-.53.58.58,0,0,0-.18-.42.6.6,0,0,0-.43-.17.72.72,0,0,0-.43.16,3.29,3.29,0,0,1-.55.47,2.93,2.93,0,0,1-.77.39,3.28,3.28,0,0,1-1.06.16,3.18,3.18,0,0,1-1.67-.44,3.13,3.13,0,0,1-1.14-1.2,3.65,3.65,0,0,1-.37-1.51H126a.72.72,0,0,0,.49-.18.65.65,0,0,0,.22-.45,4.42,4.42,0,0,0-.36-1.76A4.28,4.28,0,0,0,125.38,169Zm-4.79.91a2.52,2.52,0,0,1,.91-.58,2.84,2.84,0,0,1,1-.19,2.75,2.75,0,0,1,2.2,1.06,2.2,2.2,0,0,1,.47,1.22v.13h-5.42a3.51,3.51,0,0,1,.16-.6A2.84,2.84,0,0,1,120.59,169.87Z"/><path class="cls-2" d="M139.18,167.87a.61.61,0,0,0-.65.45l-2.13,6.21-1.88-4.62a.68.68,0,0,0-1.26,0l-1.81,4.69-2.16-6.28a.51.51,0,0,0-.24-.34.7.7,0,0,0-.38-.11.67.67,0,0,0-.52.21.73.73,0,0,0-.13.78l2.69,7.64a.73.73,0,0,0,.29.36.74.74,0,0,0,1-.36l1.81-5,2,5a.69.69,0,0,0,.61.45.62.62,0,0,0,.42-.09.79.79,0,0,0,.29-.36l2.65-7.64a.29.29,0,0,0,0-.13v-.15a.69.69,0,0,0-.19-.52A.71.71,0,0,0,139.18,167.87Z"/><path class="cls-2" d="M150.8,164.29a2.62,2.62,0,0,0-.61-.08,2.74,2.74,0,0,0-2,.69,2.41,2.41,0,0,0-.71,1.82v1.45h-1.16a.63.63,0,0,0-.46.17.58.58,0,0,0-.19.46.59.59,0,0,0,.19.46.63.63,0,0,0,.46.18h1.16v6.8a.69.69,0,0,0,.19.5.64.64,0,0,0,.5.21.65.65,0,0,0,.49-.21.7.7,0,0,0,.2-.5v-6.8h1.79a.66.66,0,0,0,.47-.18.59.59,0,0,0,.19-.46.58.58,0,0,0-.19-.45.66.66,0,0,0-.47-.18h-1.79v-1.45a1.81,1.81,0,0,1,.11-.63,1,1,0,0,1,.36-.46,1.11,1.11,0,0,1,.65-.17,2.12,2.12,0,0,1,.57.08,1.49,1.49,0,0,0,.43.09.58.58,0,0,0,.42-.18.65.65,0,0,0,.17-.46.55.55,0,0,0-.23-.46A1.58,1.58,0,0,0,150.8,164.29Z"/><path class="cls-2" d="M158,168a1.38,1.38,0,0,0-.7-.18,2.85,2.85,0,0,0-1.17.24,3.06,3.06,0,0,0-1,.64,3.55,3.55,0,0,0-.68.91,3,3,0,0,0-.16.37v-1.22a.73.73,0,0,0-.19-.51.72.72,0,0,0-1,0,.69.69,0,0,0-.2.51v7.5a.7.7,0,0,0,.2.5.69.69,0,0,0,1,0,.7.7,0,0,0,.2-.5v-4.19a3.24,3.24,0,0,1,.21-1.17,3.3,3.3,0,0,1,.57-1,2.87,2.87,0,0,1,.78-.67,1.69,1.69,0,0,1,.85-.24,1.14,1.14,0,0,1,.52.11,1.08,1.08,0,0,0,.43.1.6.6,0,0,0,.43-.18.71.71,0,0,0,.19-.55A.57.57,0,0,0,158,168Z"/><path class="cls-2" d="M160.49,167.89a.68.68,0,0,0-.7.71v7.64a.68.68,0,0,0,.7.71.64.64,0,0,0,.49-.21.66.66,0,0,0,.2-.5V168.6a.66.66,0,0,0-.2-.5A.64.64,0,0,0,160.49,167.89Z"/><path class="cls-2" d="M160.49,165.08a1.08,1.08,0,0,0-.64.17.63.63,0,0,0-.22.53V166a.64.64,0,0,0,.21.53,1,1,0,0,0,.64.17,1,1,0,0,0,.63-.17.64.64,0,0,0,.21-.53v-.25a.65.65,0,0,0-.21-.53A1,1,0,0,0,160.49,165.08Z"/><path class="cls-2" d="M170.13,169a3.87,3.87,0,0,0-1.31-.86,4,4,0,0,0-1.55-.3,4,4,0,0,0-2,.56,4.3,4.3,0,0,0-1.56,1.63,5.21,5.21,0,0,0-.59,2.56,4.68,4.68,0,0,0,.58,2.37,4.18,4.18,0,0,0,1.61,1.62,4.84,4.84,0,0,0,2.42.58,4.11,4.11,0,0,0,1.76-.39,4.33,4.33,0,0,0,1.31-.94.7.7,0,0,0,.29-.53.61.61,0,0,0-.17-.42.61.61,0,0,0-.43-.17.7.7,0,0,0-.43.16,3.39,3.39,0,0,1-.56.47,2.86,2.86,0,0,1-.76.39,3.35,3.35,0,0,1-1.07.16,3.07,3.07,0,0,1-2.8-1.64,3.66,3.66,0,0,1-.38-1.51h6.24a.72.72,0,0,0,.48-.18.66.66,0,0,0,.23-.45,4.6,4.6,0,0,0-.37-1.76A4.25,4.25,0,0,0,170.13,169Zm-4.8.91a2.56,2.56,0,0,1,.92-.58,2.86,2.86,0,0,1,2.24.08,2.79,2.79,0,0,1,1,.79,2.28,2.28,0,0,1,.48,1.22v.13h-5.42a3.51,3.51,0,0,1,.16-.6A2.83,2.83,0,0,1,165.33,169.87Z"/><path class="cls-2" d="M179.68,168.29a3.06,3.06,0,0,0-1.85-.49,3.44,3.44,0,0,0-1.19.22,3.86,3.86,0,0,0-1,.58,3.56,3.56,0,0,0-.78.82l-.05.09v-.77a.69.69,0,0,0-.19-.51.63.63,0,0,0-.5-.2.63.63,0,0,0-.49.2.69.69,0,0,0-.2.51v7.5a.7.7,0,0,0,.2.5.68.68,0,0,0,1,0,.7.7,0,0,0,.2-.5v-4.8a2.11,2.11,0,0,1,.36-1.19,2.67,2.67,0,0,1,1-.85,2.81,2.81,0,0,1,1.33-.32,2.17,2.17,0,0,1,1.24.32,1.74,1.74,0,0,1,.66.85,3.27,3.27,0,0,1,.2,1.19v4.8a.74.74,0,0,0,.19.5.66.66,0,0,0,.5.21.67.67,0,0,0,.5-.21.69.69,0,0,0,.19-.5v-4.83a5.5,5.5,0,0,0-.28-1.83A2.6,2.6,0,0,0,179.68,168.29Z"/><path class="cls-2" d="M190.74,164.18a.66.66,0,0,0-.5.21.72.72,0,0,0-.19.5v4.47a3.23,3.23,0,0,0-.58-.66,3.57,3.57,0,0,0-1.11-.65,3.61,3.61,0,0,0-1.36-.25,3.74,3.74,0,0,0-2.07.6,4.23,4.23,0,0,0-1.48,1.65,5.63,5.63,0,0,0,0,4.81,4.21,4.21,0,0,0,1.49,1.66,3.82,3.82,0,0,0,2.11.6,3.58,3.58,0,0,0,2.36-.9,3.24,3.24,0,0,0,.64-.77v.79a.74.74,0,0,0,.19.5.66.66,0,0,0,.5.21.64.64,0,0,0,.49-.21.66.66,0,0,0,.2-.5V164.89a.69.69,0,0,0-.19-.51A.65.65,0,0,0,190.74,164.18Zm-2,11.23a2.7,2.7,0,0,1-1.53.44,2.61,2.61,0,0,1-1.51-.45,3.21,3.21,0,0,1-1.05-1.22,3.85,3.85,0,0,1-.38-1.72,3.89,3.89,0,0,1,.38-1.73,3.1,3.1,0,0,1,1.05-1.21,2.68,2.68,0,0,1,1.51-.44,2.71,2.71,0,0,1,1.52.44,2.93,2.93,0,0,1,1,1.21,4.25,4.25,0,0,1,0,3.47A3,3,0,0,1,188.72,175.41Z"/></g></g></svg>