<svg xmlns="http://www.w3.org/2000/svg" width="440" height="125" viewBox="0 0 440 125">
  <g id="EYES" transform="translate(0 -125)">
    <rect id="Rectangle_18" data-name="Rectangle 18" width="440" height="125" transform="translate(0 125)" fill="#14c9d0" opacity="0"/>
    <g id="Groupe_132" data-name="Groupe 132" transform="translate(1010.311 -1547.496)">
      <path id="Tracé_1578" data-name="Tracé 1578" d="M-569.527,1775.273q-1.554.354-3.108.707c-.324-.335-.646-.671-.958-1,10-9.012,17.631-19.4,19.452-33.219,2.594-19.7-3.767-36.415-19.432-48.018-16.466-12.2-35.134-13.945-53.894-4.456-4.877,2.467-9.089,6.25-13.607,9.428q-.527-.523-1.049-1.052c13.832-18.829,44.265-23.1,66.79-9.379C-544.363,1707.149-541.372,1751.957-569.527,1775.273Z" transform="translate(-101.751)" fill="#8ca540"/>
      <path id="Tracé_1579" data-name="Tracé 1579" d="M-859.012,1796.473c-14.9,3.211-29.251,1.848-42.911-5.191-21.7-15.974-31.336-37.984-24.793-59.869,2.263-7.57,7.669-14.2,11.639-21.262l1.335,1.28c-3.517,9.157-8.5,18.047-10.267,27.536-6,32.3,26.022,62.482,57.9,54.806,8.586-2.067,16.612-6.461,24.9-9.786l.676.7Z" transform="translate(0 -10.622)" fill="#8ca540"/>
      <path id="Tracé_1580" data-name="Tracé 1580" d="M-894.569,1691.959c8.333-10.7,33.169-15.49,52.669-7.722,29.086,11.585,42.032,48.865,26.265,75.9a25.6,25.6,0,0,1-3.432,3.858q-.582-.53-1.168-1.053c2.359-6.563,5.445-12.968,6.937-19.724,4.643-21.011-6.1-42.438-24.488-52.732-19.444-10.883-37.613-7.7-55.7,2.766Q-894.024,1692.6-894.569,1691.959Z" transform="translate(-12.13 -0.063)" fill="#8ca540"/>
      <path id="Tracé_1581" data-name="Tracé 1581" d="M-648.764,1781.942c-16.378-11.244-22.842-42.278-12.331-61.1,2.753-4.93,6.91-9.076,10.422-13.583.346.352.7.7,1.043,1.046-6.091,9.912-12.2,19.5-13.262,31.866-1.4,16.34,6.94,28.428,14.888,40.987Q-648.387,1781.545-648.764,1781.942Z" transform="translate(-93.2 -9.594)" fill="#8ca540"/>
      <path id="Tracé_1582" data-name="Tracé 1582" d="M-575.918,1834.031c-14.848,5.407-29.864,6.582-45.121,1.8q-1.014-.645-2.023-1.291l-1.788-.59-9.5-7.865q.4-.505.812-1c20.628,13.384,41.515,14.38,62.7,1.314q.479.508.965,1.01a8.651,8.651,0,0,0-.3,1.44l-1.826,1.772.041-.039-1.85,1.782.065-.06Z" transform="translate(-104.511 -51.423)" fill="#8ca540"/>
      <path id="Tracé_1583" data-name="Tracé 1583" d="M-784.685,1812.277l-7.678,8.254-.666-.693q3.567-4.356,7.117-8.731Q-785.309,1811.7-784.685,1812.277Z" transform="translate(-48.178 -46.463)" fill="#8ca540"/>
      <path id="Tracé_1584" data-name="Tracé 1584" d="M-900.235,1701.9q1.831-1.786,3.659-3.574c.359.426.719.857,1.075,1.289q-1.761,1.721-3.518,3.447Q-899.611,1702.461-900.235,1701.9Z" transform="translate(-10.118 -6.423)" fill="#8ca540"/>
      <path id="Tracé_1585" data-name="Tracé 1585" d="M-907.558,1708.906l3.044-2.261,1.052,1.1-2.753,2.445Z" transform="translate(-7.518 -9.378)" fill="#8ca540"/>
      <path id="Tracé_1586" data-name="Tracé 1586" d="M-636.058,1824.933l-3.1-2.313c.251-.263.5-.526.753-.78q1.575,1.052,3.162,2.089Q-635.655,1824.428-636.058,1824.933Z" transform="translate(-102.803 -50.273)" fill="#8ca540"/>
      <path id="Tracé_1587" data-name="Tracé 1587" d="M-779.1,1809.425q-.838.938-1.671,1.877c-.411-.379-.82-.769-1.22-1.165q.862-.883,1.72-1.768Q-779.683,1808.894-779.1,1809.425Z" transform="translate(-52.096 -45.491)" fill="#8ca540"/>
      <path id="Tracé_1588" data-name="Tracé 1588" d="M-902.839,1705.66q.846-.894,1.685-1.791c.411.373.817.76,1.209,1.157q-.923.867-1.842,1.737Z" transform="translate(-9.194 -8.392)" fill="#8ca540"/>
      <path id="Tracé_1589" data-name="Tracé 1589" d="M-537.682,1832.687l1.826-1.772Z" transform="translate(-138.829 -53.495)" fill="#fdba82"/>
      <path id="Tracé_1590" data-name="Tracé 1590" d="M-540.487,1835.384l1.851-1.783Z" transform="translate(-137.833 -54.448)" fill="#fdba82"/>
      <path id="Tracé_1591" data-name="Tracé 1591" d="M-543.756,1838.006l2.174-1.734Z" transform="translate(-136.673 -55.397)" fill="#fdba82"/>
      <path id="Tracé_1592" data-name="Tracé 1592" d="M-616.848,1839.744q1.01.645,2.023,1.291Z" transform="translate(-110.724 -56.63)" fill="#fdba82"/>
      <path id="Tracé_1593" data-name="Tracé 1593" d="M-643.108,1775.3q-1.584-1.041-3.162-2.088c-7.941-12.566-16.282-24.654-14.881-40.994,1.06-12.365,7.17-21.954,13.262-31.866,4.523-3.173,8.735-6.956,13.612-9.423,18.761-9.49,37.429-7.741,53.894,4.456,15.665,11.6,22.026,28.322,19.432,48.018-1.821,13.821-9.451,24.207-19.452,33.219C-601.593,1789.677-622.48,1788.68-643.108,1775.3Zm30.756,2.028c24.531-.5,42.906-16.4,42.9-42.072-.01-22.725-15.591-41.409-40.623-40.816-29.011.688-40.412,17.443-42.728,40.428C-654.935,1755.99-631.939,1776.583-612.352,1777.325Z" transform="translate(-94.941 -1.642)" fill="#c5fc8d"/>
      <path id="Tracé_1594" data-name="Tracé 1594" d="M-908.781,1700.253q.92-.87,1.842-1.737,1.761-1.722,3.52-3.445c18.091-10.462,36.259-13.646,55.7-2.763,18.391,10.293,29.13,31.72,24.488,52.732-1.493,6.756-4.578,13.16-6.937,19.724-.575.588-1.147,1.177-1.722,1.765q-3.557,4.367-7.119,8.729c-8.292,3.316-16.318,7.71-24.9,9.777-31.876,7.676-63.9-22.5-57.9-54.807,1.763-9.489,6.75-18.379,10.267-27.536C-910.616,1701.883-909.7,1701.068-908.781,1700.253Zm77.388,35.843c-1.252-22.39-14.507-40.714-39.929-41.647-24.056-.882-42.171,21.7-43.02,39.355-1.2,24.955,20.939,43.573,42.986,43.831C-852.951,1777.85-830.551,1759.988-831.393,1736.1Z" transform="translate(-2.2 -1.882)" fill="#c5fc8d"/>
      <path id="Tracé_1595" data-name="Tracé 1595" d="M-607.75,1782.592c-19.587-.742-42.583-21.334-40.455-42.46,2.315-22.985,13.717-39.74,42.728-40.428,25.032-.593,40.613,18.091,40.623,40.816C-564.844,1766.2-583.219,1782.091-607.75,1782.592Zm19.182-58.578c-4.124.91-8.85.7-11.27,2.964-1.416,1.323.7,6.618,1.516,10.057a10.018,10.018,0,0,0,2.3,4.614c1.439,1.452,4.238,3.66,5.081,3.173,1.929-1.114,4.178-3.64,4.227-5.643C-586.6,1734.633-587.734,1730.059-588.568,1724.014ZM-603.6,1762.28l10.656-14.393-25.789-2.695C-619.537,1758.08-605.768,1752.877-603.6,1762.28Zm-1.954-36.432c-3.42-1.149-6.564-3.18-7.637-2.392a53.791,53.791,0,0,0-10.495,10.355c-.812,1.047.411,4.285,1.524,5.975.637.967,3.823,1.649,4.339,1.079C-613.957,1736.6-610.473,1731.993-605.554,1725.848Z" transform="translate(-99.543 -6.909)" fill="#e8fec1"/>
      <path id="Tracé_1596" data-name="Tracé 1596" d="M-826.906,1740.991c.842,23.892-21.558,41.754-39.963,41.539-22.048-.258-44.186-18.876-42.986-43.832.849-17.658,18.964-40.237,43.02-39.354C-841.414,1700.277-828.158,1718.6-826.906,1740.991Zm-40.47-15.046-.882-2.664c-2.931.241-6.674-.565-8.62.945-3.869,3-7.005,7.1-9.792,11.2-.492.722,1.89,3.962,3.537,5.323.726.6,3.495-.09,4.373-1.063C-874.778,1735.272-871.139,1730.552-867.377,1725.945Zm-13.246,18.5c2.47,10.666,9.264,11.754,15.19,12.225,2.82.225,5.948-3.428,8.936-5.324l-.846-3.417Zm27.356-18.516-10.506.581c1.466,3.527,2.535,6.138,3.635,8.735,1.171,2.765,2.372,5.517,3.7,8.61C-845.227,1738.48-855.381,1732.434-853.267,1725.928Z" transform="translate(-6.686 -6.777)" fill="#e8fec1"/>
      <path id="Tracé_1597" data-name="Tracé 1597" d="M-562.132,1737.4c.833,6.045,1.97,10.62,1.858,15.165-.049,2-2.3,4.529-4.227,5.643-.843.487-3.642-1.721-5.081-3.173a10.02,10.02,0,0,1-2.3-4.614c-.818-3.438-2.933-8.733-1.516-10.057C-570.982,1738.1-566.256,1738.312-562.132,1737.4Z" transform="translate(-125.979 -20.297)" fill="#c5fc8d"/>
      <path id="Tracé_1598" data-name="Tracé 1598" d="M-587.321,1787.326c-2.168-9.4-15.937-4.2-15.133-17.088l25.789,2.695Z" transform="translate(-115.822 -31.954)" fill="#c5fc8d"/>
      <path id="Tracé_1599" data-name="Tracé 1599" d="M-592.127,1738.832c-4.919,6.145-8.4,10.753-12.268,15.017-.516.569-3.7-.112-4.339-1.079-1.113-1.69-2.336-4.928-1.524-5.975a53.788,53.788,0,0,1,10.495-10.355C-598.691,1735.652-595.547,1737.683-592.127,1738.832Z" transform="translate(-112.97 -19.892)" fill="#c5fc8d"/>
      <path id="Tracé_1600" data-name="Tracé 1600" d="M-854.625,1739.132c-3.762,4.607-7.4,9.326-11.383,13.735-.879.973-3.647,1.662-4.373,1.063-1.647-1.36-4.029-4.6-3.537-5.322,2.787-4.091,5.924-8.193,9.792-11.2,1.945-1.51,5.689-.7,8.62-.945Z" transform="translate(-19.437 -19.963)" fill="#c5fc8d"/>
      <path id="Tracé_1601" data-name="Tracé 1601" d="M-864.507,1769.281l23.28,3.484.846,3.417c-2.988,1.9-6.116,5.549-8.936,5.324C-855.243,1781.035-862.037,1779.947-864.507,1769.281Z" transform="translate(-22.802 -31.614)" fill="#c5fc8d"/>
      <path id="Tracé_1602" data-name="Tracé 1602" d="M-827.876,1740.574c-2.114,6.506,8.04,12.552-3.166,17.926-1.333-3.093-2.534-5.845-3.7-8.61-1.1-2.6-2.168-5.208-3.635-8.735Z" transform="translate(-32.077 -21.423)" fill="#c5fc8d"/>
    </g>
  </g>
</svg>
