<svg xmlns="http://www.w3.org/2000/svg" width="440" height="130.216" viewBox="0 0 440 130.216">
  <g id="EYES" transform="translate(0 -125)">
    <rect id="Rectangle_18" data-name="Rectangle 18" width="440" height="125" transform="translate(0 125)" fill="#14c9d0" opacity="0"/>
    <path id="Tracé_1577" data-name="Tracé 1577" d="M-739.563,579.79c-19.72-20.158-51.039-25.132-75.826-11.73a67.118,67.118,0,0,0-34.1,47.324,31.423,31.423,0,0,0-29.826-.293,65.865,65.865,0,0,0-17.465-35.3c-19.719-20.158-51.039-25.132-75.826-11.73a67.528,67.528,0,0,0-32.028,79.691,5.7,5.7,0,0,0,.19.606,5.757,5.757,0,0,0,.222.573c10.2,26.41,30.953,41.624,59.657,41.85,25.938.2,50.937-12.423,61.091-37.126a70.117,70.117,0,0,0,5.152-26.861c.031-.041.063-.08.094-.122,5.275-7.2,19.967-6.641,26.05-1.066a5.241,5.241,0,0,0,1.623,1.026,67.682,67.682,0,0,0,3.14,21.12,5.7,5.7,0,0,0,.19.606,5.787,5.787,0,0,0,.222.573c10.2,26.41,30.953,41.624,59.657,41.85,25.938.2,50.937-12.423,61.091-37.126C-716.225,629.249-720.927,598.84-739.563,579.79Zm-184.909,98.225a67.7,67.7,0,0,1-39.728-.252c-15.62-5.055-24.979-17.1-30.636-32.055-9.705-29.793,5.737-62.943,36.134-72.871,29.676-9.693,61.377,9.633,68.636,39.369C-883.288,639.972-896.149,669.53-924.472,678.015Zm157.219,0a67.7,67.7,0,0,1-39.728-.252c-15.62-5.055-24.979-17.1-30.636-32.055-9.705-29.793,5.737-62.943,36.134-72.871,29.676-9.693,61.377,9.633,68.636,39.369C-726.07,639.972-738.931,669.53-767.254,678.015Z" transform="translate(1084.44 -435.566)" fill="#1a1a1a"/>
  </g>
</svg>
