<svg xmlns="http://www.w3.org/2000/svg" width="440" height="125" viewBox="0 0 440 125">
  <g id="EYES" transform="translate(0 -125)">
    <rect id="Rectangle_18" data-name="Rectangle 18" width="440" height="125" transform="translate(0 125)" fill="#14c9d0" opacity="0"/>
    <g id="Groupe_117" data-name="Groupe 117" transform="translate(-445.092 -325.253)">
      <g id="Groupe_115" data-name="Groupe 115" transform="translate(724.426 503.103)">
        <path id="Tracé_1518" data-name="Tracé 1518" d="M662.791,517.358c1.717-1.464,3.7-5.062,3.475-5.851s-9.37-3.955-9.37-3.955Z" transform="translate(-620.324 -499.17)" fill="#f45540"/>
        <path id="Tracé_1519" data-name="Tracé 1519" d="M636.853,532.641c-2.281.5-6.414-.105-6.875-.776s1.925-9.49,1.925-9.49Z" transform="translate(-628.839 -494.492)" fill="#f45540"/>
        <path id="Tracé_1520" data-name="Tracé 1520" d="M631.778,527.915c-.795-12.488,8.371-24.172,19.463-25.074s20.732,8.49,21.529,20.979-7.554,23.344-18.65,24.248S632.571,540.4,631.778,527.915Z" transform="translate(-628.267 -500.676)" fill="#f45540"/>
        <path id="Tracé_1521" data-name="Tracé 1521" d="M633.7,526.758c-.768-12.056,6.839-22.5,16.989-23.323s19,8.279,19.765,20.336-6.971,20.416-17.121,21.239S634.465,538.815,633.7,526.758Z" transform="translate(-627.662 -500.486)" fill="#fffeee"/>
        <path id="Tracé_1522" data-name="Tracé 1522" d="M651.913,539.529c10.15-.825,17.849-9.772,17.083-21.829a25.665,25.665,0,0,0-.975-5.565,25.057,25.057,0,0,1,2.21,8.873c.766,12.056-6.935,21-17.085,21.826-8.621.7-16.237-4.69-18.8-13.722A17.6,17.6,0,0,0,651.913,539.529Z" transform="translate(-627.441 -497.724)" fill="#f7e7d0"/>
        <path id="Tracé_1523" data-name="Tracé 1523" d="M638.655,523.837c-.638-7.108,4.144-13.425,10.682-14.107s12.349,4.527,12.987,11.637-4.15,13.427-10.684,14.107S639.289,530.949,638.655,523.837Z" transform="translate(-626.099 -498.502)" fill="#3f322d"/>
        <path id="Tracé_1524" data-name="Tracé 1524" d="M629.943,537.593c-.368-12.567,1.86-26,12.513-31.22,9.584-4.694,25.63-2.5,31.842,6.339-11.3,1.224-28.219,17-38.261,25.809C633.54,538.813,630.981,538.641,629.943,537.593Z" transform="translate(-628.843 -500.303)" fill="#e05555" opacity="0.5" style="mix-blend-mode: multiply;isolation: isolate"/>
        <path id="Tracé_1525" data-name="Tracé 1525" d="M652.082,522.869c0-2.484,1.524-4.519,3.4-4.551s3.41,1.962,3.41,4.446-1.522,4.518-3.4,4.548S652.085,525.351,652.082,522.869Z" transform="translate(-621.843 -495.772)" fill="#fffeee"/>
        <path id="Tracé_1526" data-name="Tracé 1526" d="M651.253,528.035a2.6,2.6,0,0,1-1.752-2.476,1.422,1.422,0,0,1,1.844-1.476,2.6,2.6,0,0,1,1.752,2.477A1.424,1.424,0,0,1,651.253,528.035Z" transform="translate(-622.658 -493.973)" fill="#fffeee"/>
        <path id="Tracé_1527" data-name="Tracé 1527" d="M673.094,511.907c-4.34-4.1-33.3-4.219-42.933,24.021,0,0-6.269-22.81,11.635-31.58C662.652,494.13,673.094,511.907,673.094,511.907Z" transform="translate(-629.098 -501.181)" fill="#fb8"/>
        <path id="Tracé_1528" data-name="Tracé 1528" d="M672.337,507.755a39.5,39.5,0,0,1,2.608,3.859c-4.523-4.271-27.849,10.918-44.761,25.043,0,0-.476-1.435-1.039-3.775C639.04,507.831,663.562,505.075,672.337,507.755Z" transform="translate(-629.083 -499.366)" fill="#ff9769"/>
        <path id="Tracé_1530" data-name="Tracé 1530" d="M629.965,529.458l46.214-.935s-12.4,15.822-27.868,12.506S629.965,529.458,629.965,529.458Z" transform="translate(-628.824 -492.551)" fill="#ff9769"/>
      </g>
      <g id="Groupe_116" data-name="Groupe 116" transform="translate(558.402 504.139)">
        <path id="Tracé_1531" data-name="Tracé 1531" d="M561.123,521.7c-1.891-1.2-4.355-4.476-4.25-5.289s8.579-5.252,8.579-5.252Z" transform="translate(-556.871 -500.99)" fill="#f45540"/>
        <path id="Tracé_1532" data-name="Tracé 1532" d="M587.914,533.039c2.3.166,6.255-1.018,6.608-1.751s-3.265-9.108-3.265-9.108Z" transform="translate(-547.072 -497.512)" fill="#f45540"/>
        <path id="Tracé_1533" data-name="Tracé 1533" d="M599.829,527.033c-1.049-12.47-11.713-22.713-22.687-22.021s-19.025,11.363-17.979,23.83,10.795,22.017,21.768,21.322S600.875,539.5,599.829,527.033Z" transform="translate(-556.176 -502.941)" fill="#f45540"/>
        <path id="Tracé_1534" data-name="Tracé 1534" d="M596.812,526.251c-1.012-12.035-9.972-21.279-20.012-20.643s-17.36,10.905-16.349,22.94,9.8,19.2,19.837,18.565S597.822,538.285,596.812,526.251Z" transform="translate(-555.77 -502.752)" fill="#fffeee"/>
        <path id="Tracé_1535" data-name="Tracé 1535" d="M581.06,540.924c-10.039.632-18.874-7.116-19.884-19.151a25.864,25.864,0,0,1,.139-5.645,25.314,25.314,0,0,0-.866,9.091c1.012,12.035,9.846,19.783,19.886,19.152,8.53-.539,15.186-6.961,16.375-16.264C594.5,535.517,588.491,540.453,581.06,540.924Z" transform="translate(-555.77 -499.422)" fill="#f7e7d0"/>
        <path id="Tracé_1536" data-name="Tracé 1536" d="M588.763,524.279c-.418-7.125-6.015-12.689-12.5-12.429s-11.409,6.244-10.989,13.367,6.012,12.69,12.5,12.429S589.179,531.4,588.763,524.279Z" transform="translate(-554.227 -500.775)" fill="#3f322d"/>
        <path id="Tracé_1537" data-name="Tracé 1537" d="M604.229,536.275c-1.475-12.485-5.618-25.456-16.793-29.1-10.051-3.276-25.413,1.192-30.195,10.825,11.221-.405,30.065,12.781,41.167,20.058C600.894,537.994,603.366,537.46,604.229,536.275Z" transform="translate(-556.753 -502.582)" fill="#e05555" opacity="0.5" style="mix-blend-mode: multiply;isolation: isolate"/>
        <path id="Tracé_1538" data-name="Tracé 1538" d="M580.57,529.808c1.754-1.756,2.123-4.267.828-5.6s-3.764-.989-5.519.771-2.125,4.265-.83,5.6S578.818,531.567,580.57,529.808Z" transform="translate(-551.377 -497.127)" fill="#fffeee"/>
        <path id="Tracé_1539" data-name="Tracé 1539" d="M572.664,530.568a2.593,2.593,0,0,0,1.354-2.7A1.414,1.414,0,0,0,572,526.673a2.589,2.589,0,0,0-1.351,2.7A1.411,1.411,0,0,0,572.664,530.568Z" transform="translate(-552.533 -496.138)" fill="#fffeee"/>
        <path id="Tracé_1540" data-name="Tracé 1540" d="M558.141,516.977c3.64-4.674,31.929-8.937,45.471,17.624,0,0,2.793-23.463-15.987-29.578C565.749,497.9,558.141,516.977,558.141,516.977Z" transform="translate(-556.469 -503.43)" fill="#fb8"/>
        <path id="Tracé_1541" data-name="Tracé 1541" d="M558.909,512.394a39.576,39.576,0,0,0-1.987,4.19c3.8-4.872,28.871,7.439,47.409,18.373,0,0,.254-1.488.463-3.885C591.465,507.709,567.094,508.488,558.909,512.394Z" transform="translate(-556.854 -501.265)" fill="#ff9769"/>
        <path id="Tracé_1543" data-name="Tracé 1543" d="M603.752,528.754l-45.3,5.683s14.434,13.879,29.062,8.39S603.752,528.754,603.752,528.754Z" transform="translate(-556.373 -495.437)" fill="#ff9769"/>
      </g>
    </g>
    <g id="Groupe_129" data-name="Groupe 129" transform="translate(-433.092 -342.754)">
      <path id="Tracé_1563" data-name="Tracé 1563" d="M568.113,481.779c2.069-1.945,4.557-1.986,6.049-.051,6.113,7.937,19.482,18.487,33.71,19.74,2.422.21,3.981,2.493,3.619,5.347-.487,3.871-1.5,8.644-3.581,9.911-5.455,3.328-41.418-1.256-47.592-19.773C558.867,491.619,564.138,485.516,568.113,481.779Z" transform="translate(0 1.85)" fill="#ad563b"/>
      <path id="Tracé_1564" data-name="Tracé 1564" d="M660.217,476.946c-2.521-1.407-5.038-.858-6.1,1.383-4.372,9.175-15.459,22.617-29.505,27.2-2.39.782-3.446,3.375-2.441,6.071,1.36,3.652,3.455,8.066,5.836,8.81,6.239,1.954,41.421-11.012,43.469-30.519C671.737,484.35,665.058,479.65,660.217,476.946Z" transform="translate(71.685 2.472)" fill="#ad563b"/>
    </g>
  </g>
</svg>
