<svg xmlns="http://www.w3.org/2000/svg" width="440" height="125" viewBox="0 0 440 125">
  <g id="EYES" transform="translate(0 -125)">
    <rect id="Rectangle_18" data-name="Rectangle 18" width="440" height="125" transform="translate(0 125)" fill="#14c9d0" opacity="0"/>
    <g id="Groupe_103" data-name="Groupe 103" transform="translate(-455.193 -12.581)">
      <g id="Groupe_101" data-name="Groupe 101" transform="translate(723.877 184.249)">
        <path id="Tracé_1424" data-name="Tracé 1424" d="M649.593,204.532c-2.6-1.282-6.185-5.105-6.136-6.142s10.652-7.672,10.652-7.672Z" transform="translate(-643.457 -176.123)" fill="#f45540"/>
        <path id="Tracé_1425" data-name="Tracé 1425" d="M678.191,213.493c3.033-.075,8.071-2.056,8.456-3.02s-5.262-11.075-5.262-11.075Z" transform="translate(-622.603 -170.911)" fill="#f45540"/>
        <path id="Tracé_1426" data-name="Tracé 1426" d="M700.926,219.482c3.479-16.262-6.6-33.237-21.365-36.394s-29.546,7.463-33.026,23.726,5.667,32.006,20.426,35.164A28.871,28.871,0,0,0,700.926,219.482Z" transform="translate(-642.052 -181.037)" fill="#f45540"/>
        <path id="Tracé_1427" data-name="Tracé 1427" d="M697.111,215.086c3.092-14.437-5.352-28.484-18.854-31.372s-26.954,6.47-30.042,20.909,5.886,25.99,19.39,28.879S694.023,229.526,697.111,215.086Z" transform="translate(-640.966 -180.642)" fill="#fffeee"/>
        <path id="Tracé_1428" data-name="Tracé 1428" d="M669.679,226.268c-13.5-2.89-22.327-15.144-19.235-29.582a28.359,28.359,0,0,1,2.26-6.55,28.19,28.19,0,0,0-4.486,10.316c-3.087,14.439,5.736,26.693,19.24,29.582,11.472,2.457,22.626-2.645,27.62-13.09C689.427,224.808,679.676,228.406,669.679,226.268Z" transform="translate(-640.969 -176.472)" fill="#f7e7d0"/>
        <path id="Tracé_1429" data-name="Tracé 1429" d="M677.467,208.359c1.344-6.28-2.36-12.4-8.271-13.663s-11.8,2.8-13.138,9.081,2.357,12.395,8.271,13.661S676.123,214.637,677.467,208.359Z" transform="translate(-636.057 -173.872)" fill="#3f322d"/>
        <path id="Tracé_1430" data-name="Tracé 1430" d="M669.161,212.2c2.154-.933,3.316-3.046,2.591-4.713s-3.054-2.273-5.211-1.338-3.316,3.041-2.591,4.713S667.007,213.127,669.161,212.2Z" transform="translate(-631.282 -167.125)" fill="#fffeee"/>
        <path id="Tracé_1431" data-name="Tracé 1431" d="M669.622,204.759a1.452,1.452,0,1,0-2,1.119A1.651,1.651,0,0,0,669.622,204.759Z" transform="translate(-629.411 -169.078)" fill="#fffeee"/>
        <path id="Tracé_1432" data-name="Tracé 1432" d="M707.5,218c-3.286-15.551-11.337-27.295-26.347-30.508-12.931-2.767-31.88,1.384-37.646,13.187.731,2.6,3.241,3.947,3.87,4.737,9.89,1.051,45.739,9.521,53.547,15.319C703.046,220.642,707.147,219.009,707.5,218Z" transform="translate(-643.428 -178.551)" fill="#e05555" opacity="0.5" style="mix-blend-mode: multiply;isolation: isolate"/>
        <path id="Tracé_1433" data-name="Tracé 1433" d="M644.693,201.3c4.255-6.336,40.789-15.186,61.378,16.614,0,0,1.109-29.9-24.113-35.3C652.573,176.326,644.693,201.3,644.693,201.3Z" transform="translate(-642.714 -181.598)" fill="#fb8"/>
        <path id="Tracé_1434" data-name="Tracé 1434" d="M645.648,193.58A49.062,49.062,0,0,0,643.5,199.1c14.256-.893,49.777,7.242,63.993,17.321,0,0,.17-1.906.181-4.952C687.715,183.674,655.929,187.651,645.648,193.58Z" transform="translate(-643.428 -176.973)" fill="#ff9769"/>
      </g>
      <g id="Groupe_102" data-name="Groupe 102" transform="translate(562.809 181.599)">
        <path id="Tracé_1435" data-name="Tracé 1435" d="M600.754,205.381c2.663-1.149,6.437-4.787,6.437-5.824s-10.247-8.2-10.247-8.2Z" transform="translate(-542.315 -175.741)" fill="#f45540"/>
        <path id="Tracé_1436" data-name="Tracé 1436" d="M571.129,212.737c-3.026-.229-7.955-2.463-8.29-3.446s5.814-10.795,5.814-10.795Z" transform="translate(-562.798 -171.453)" fill="#f45540"/>
        <path id="Tracé_1437" data-name="Tracé 1437" d="M566.243,218.058c-2.652-16.417,8.282-32.858,23.186-35.263s29.129,8.954,31.779,25.371-7.282,31.678-22.186,34.082A28.869,28.869,0,0,1,566.243,218.058Z" transform="translate(-560.985 -181.073)" fill="#f45540"/>
        <path id="Tracé_1438" data-name="Tracé 1438" d="M568.081,213.985c-2.369-14.672,6.762-28.352,20.4-30.553s26.6,7.912,28.97,22.585-7.17,25.819-20.8,28.021S570.451,228.659,568.081,213.985Z" transform="translate(-559.867 -180.678)" fill="#fffeee"/>
        <path id="Tracé_1439" data-name="Tracé 1439" d="M593.931,226.238c13.63-2.2,23.055-14.056,20.687-28.73a28.957,28.957,0,0,0-1.928-6.7,28.574,28.574,0,0,1,3.966,10.6c2.37,14.674-7.054,26.533-20.687,28.733-11.584,1.869-22.478-3.841-26.941-14.6C574.279,223.744,583.84,227.87,593.931,226.238Z" transform="translate(-559.075 -176.071)" fill="#f7e7d0"/>
        <path id="Tracé_1440" data-name="Tracé 1440" d="M577.179,207.8c-1.023-6.339,2.985-12.261,8.956-13.224s11.633,3.394,12.659,9.735-2.985,12.259-8.956,13.226S578.2,214.143,577.179,207.8Z" transform="translate(-554.276 -173.885)" fill="#3f322d"/>
        <path id="Tracé_1441" data-name="Tracé 1441" d="M587.156,205.7c1.315-1.948,3.607-2.7,5.116-1.679s1.666,3.423.354,5.368-3.6,2.7-5.116,1.679S585.843,207.639,587.156,205.7Z" transform="translate(-548.725 -168.412)" fill="#fffeee"/>
        <path id="Tracé_1442" data-name="Tracé 1442" d="M588.154,202.762a1.453,1.453,0,1,1,1.944,1.221A1.654,1.654,0,0,1,588.154,202.762Z" transform="translate(-547.674 -170.245)" fill="#fffeee"/>
        <path id="Tracé_1443" data-name="Tracé 1443" d="M562.82,216.277c4.07-15.365,12.71-26.685,27.859-29.133,13.057-2.106,31.771,3,36.932,15.082-.863,2.562-3.439,3.779-4.1,4.534-9.93.549-46.165,7.189-54.256,12.581C567.135,219.135,563.121,217.3,562.82,216.277Z" transform="translate(-562.802 -178.547)" fill="#e05555" opacity="0.5" style="mix-blend-mode: multiply;isolation: isolate"/>
        <path id="Tracé_1444" data-name="Tracé 1444" d="M625.5,202.753c-3.929-6.542-39.965-17.236-62.14,13.477,0,0,.41-29.918,25.872-34.029C618.9,177.411,625.5,202.753,625.5,202.753Z" transform="translate(-562.474 -181.599)" fill="#fb8"/>
        <path id="Tracé_1445" data-name="Tracé 1445" d="M625.759,194.88a50,50,0,0,1,1.86,5.625c-13.5,3.46-50.081,4.705-64.792,14.051,0,0-.072-1.914.069-4.955C584.248,182.85,615.79,188.436,625.759,194.88Z" transform="translate(-562.808 -176.827)" fill="#ff9769"/>
      </g>
      <path id="Tracé_1446" data-name="Tracé 1446" d="M570.093,213.727c2.548,4.185,6.792,12.344,2.594,12.771C568.887,226.887,570.093,213.727,570.093,213.727Z" transform="translate(4.264 19.29)" fill="#9fe4ff"/>
    </g>
    <g id="Groupe_125" data-name="Groupe 125" transform="translate(-464.154 -20.991)">
      <path id="Tracé_1555" data-name="Tracé 1555" d="M605.073,157.21a3.733,3.733,0,0,0-5.766-.188c-7.624,7.238-22.764,16.741-36.626,17.576a5.307,5.307,0,0,0-4.66,4.892c-.408,3.608-.515,8.07,1.182,9.3,4.455,3.223,39.817-.208,49.885-17.288C611.681,166.572,608.025,160.776,605.073,157.21Z" transform="translate(0 0.136)" fill="#ad563b"/>
      <path id="Tracé_1556" data-name="Tracé 1556" d="M648.478,156.539a4.029,4.029,0,0,1,5.9-.441c7.927,6.54,23.588,14.9,37.8,15.051a5.065,5.065,0,0,1,4.855,4.445c.473,3.417.656,7.663-1.066,8.91-4.514,3.271-40.794,1.633-51.382-14.171C641.861,165.762,645.512,160.074,648.478,156.539Z" transform="translate(107.731 4.111)" fill="#ad563b"/>
    </g>
  </g>
</svg>
