<svg xmlns="http://www.w3.org/2000/svg" width="440" height="125" viewBox="0 0 440 125">
  <g id="EYES" transform="translate(0 -125)">
    <rect id="Rectangle_18" data-name="Rectangle 18" width="440" height="125" transform="translate(0 125)" fill="#14c9d0" opacity="0"/>
    <g id="Groupe_97" data-name="Groupe 97" transform="translate(55.666 -0.814)">
      <g id="Groupe_95" data-name="Groupe 95" transform="translate(80.082 177.993)">
        <path id="Tracé_1380" data-name="Tracé 1380" d="M86.638,201.664c-2.5-.556-6.381-3.09-6.553-3.987s7.538-8.821,7.538-8.821Z" transform="translate(-80.082 -171.192)" fill="#f45540"/>
        <path id="Tracé_1381" data-name="Tracé 1381" d="M112.14,202.765c2.587-.7,6.5-3.455,6.628-4.364s-6.839-8.412-6.839-8.412Z" transform="translate(-60.144 -170.482)" fill="#f45540"/>
        <path id="Tracé_1382" data-name="Tracé 1382" d="M132.27,205.552c-.418-14.695-12.633-27.159-25.97-26.78s-23.812,12.6-23.393,27.3,11.57,26.3,24.908,25.918A25.517,25.517,0,0,0,132.27,205.552Z" transform="translate(-78.321 -177.51)" fill="#f45540"/>
        <path id="Tracé_1383" data-name="Tracé 1383" d="M128.358,204.395c-.4-14.187-10.623-25.4-22.824-25.055s-21.765,12.127-21.362,26.313,10.553,22.95,22.755,22.6S128.761,218.58,128.358,204.395Z" transform="translate(-77.529 -177.154)" fill="#fffeee"/>
        <path id="Tracé_1384" data-name="Tracé 1384" d="M108.06,218.892c-12.2.35-22.37-9.109-22.773-23.3a29.711,29.711,0,0,1,.553-6.628,29.181,29.181,0,0,0-1.667,10.651c.4,14.186,10.573,23.643,22.775,23.294,10.368-.3,18.864-7.577,20.936-18.461A21.557,21.557,0,0,1,108.06,218.892Z" transform="translate(-77.529 -171.121)" fill="#f7e7d0"/>
        <path id="Tracé_1385" data-name="Tracé 1385" d="M110.977,199.25c-.161-5.675-4.623-10.153-9.965-10s-9.543,4.877-9.381,10.55,4.623,10.152,9.965,10S111.138,204.925,110.977,199.25Z" transform="translate(-72.854 -170.947)" fill="#3f322d"/>
        <path id="Tracé_1386" data-name="Tracé 1386" d="M138.5,204.517c-6.077-12.667-15.254-24.833-28.816-24.448-12.2.348-27.463,10.911-29.268,22.929C96.235,189.723,124.275,188.632,138.5,204.517Z" transform="translate(-79.875 -176.698)" fill="#e05555" opacity="0.5" style="mix-blend-mode: multiply;isolation: isolate"/>
        <path id="Tracé_1387" data-name="Tracé 1387" d="M80.8,201.861c3.454-10.857,33.349-27.274,56.189,1.4,0,0-5.312-25.91-28.105-25.261C82.335,178.761,80.8,201.861,80.8,201.861Z" transform="translate(-79.634 -177.993)" fill="#fb8"/>
        <path id="Tracé_1388" data-name="Tracé 1388" d="M80.787,196.553a43.3,43.3,0,0,0-.681,5.194c2.815-11.8,34.227-29.629,58.583,1.468,0,0-.252-1.673-.88-4.291C116.163,171.689,89.516,182.626,80.787,196.553Z" transform="translate(-80.067 -175.396)" fill="#ff9769"/>
        <path id="Tracé_1389" data-name="Tracé 1389" d="M106.771,197.394c-.059-2.072-1.411-3.717-3.02-3.67s-2.865,1.763-2.807,3.838,1.411,3.72,3.021,3.673S106.83,199.471,106.771,197.394Z" transform="translate(-67.022 -168.144)" fill="#fffeee"/>
        <path id="Tracé_1390" data-name="Tracé 1390" d="M101.936,192.5c-.478-1.1-1.376-1.771-2.007-1.5s-.753,1.385-.275,2.488,1.377,1.768,2.007,1.494S102.415,193.6,101.936,192.5Z" transform="translate(-68.011 -169.886)" fill="#fffeee"/>
      </g>
      <g id="Groupe_96" data-name="Groupe 96" transform="translate(192.668 182.19)">
        <path id="Tracé_1391" data-name="Tracé 1391" d="M155.623,203.34c-2.394-.5-6.124-2.862-6.3-3.717s7.072-8.509,7.072-8.509Z" transform="translate(-149.32 -173.975)" fill="#f45540"/>
        <path id="Tracé_1392" data-name="Tracé 1392" d="M180,204.017c2.46-.7,6.151-3.382,6.262-4.247s-6.631-7.929-6.631-7.929Z" transform="translate(-130.344 -173.519)" fill="#f45540"/>
        <path id="Tracé_1393" data-name="Tracé 1393" d="M199.1,206.534c-.592-14.007-12.4-25.731-25.115-25.194s-22.537,12.327-21.946,26.333,11.376,24.924,24.089,24.386A24.334,24.334,0,0,0,199.1,206.534Z" transform="translate(-147.636 -180.105)" fill="#f45540"/>
        <path id="Tracé_1394" data-name="Tracé 1394" d="M195.356,205.471c-.572-13.521-10.462-24.082-22.09-23.591s-20.594,11.851-20.024,25.37S163.6,229,175.235,228.5,195.926,218.992,195.356,205.471Z" transform="translate(-146.881 -179.766)" fill="#fffeee"/>
        <path id="Tracé_1395" data-name="Tracé 1395" d="M176.27,219.456c-11.63.493-21.448-8.392-22.02-21.911a28.352,28.352,0,0,1,.442-6.327,27.8,27.8,0,0,0-1.45,10.176c.572,13.519,10.391,22.4,22.02,21.911,9.882-.416,17.887-7.473,19.719-17.877A20.557,20.557,0,0,1,176.27,219.456Z" transform="translate(-146.881 -173.909)" fill="#f7e7d0"/>
        <path id="Tracé_1396" data-name="Tracé 1396" d="M178.792,200.73c-.229-5.408-4.543-9.618-9.633-9.4s-9.034,4.774-8.805,10.182,4.542,9.62,9.633,9.405S179.021,206.138,178.792,200.73Z" transform="translate(-142.418 -173.847)" fill="#3f322d"/>
        <path id="Tracé_1397" data-name="Tracé 1397" d="M205.034,205.495c-5.96-12-14.869-23.479-27.794-22.933-11.628.493-26.042,10.761-27.606,22.246C161.786,194.834,188.115,194.153,205.034,205.495Z" transform="translate(-149.123 -179.34)" fill="#e05555" opacity="0.5" style="mix-blend-mode: multiply;isolation: isolate"/>
        <path id="Tracé_1398" data-name="Tracé 1398" d="M149.981,203.713c3.151-10.4,31.442-26.443,53.6.6,0,0-5.405-24.637-27.128-23.72C151.145,181.669,149.981,203.713,149.981,203.713Z" transform="translate(-148.906 -180.574)" fill="#fb8"/>
        <path id="Tracé_1399" data-name="Tracé 1399" d="M149.924,198.648a41.1,41.1,0,0,0-.582,4.961c2.527-7.343,32.177-22.472,55.875.631,0,0-.262-1.592-.894-4.08C183.327,174.473,158.063,185.251,149.924,198.648Z" transform="translate(-149.306 -178.085)" fill="#ff9769"/>
        <path id="Tracé_1400" data-name="Tracé 1400" d="M174.789,198.984c-.083-1.976-1.394-3.527-2.927-3.462s-2.709,1.72-2.625,3.7,1.394,3.527,2.927,3.462S174.874,200.961,174.789,198.984Z" transform="translate(-136.853 -171.216)" fill="#fffeee"/>
        <path id="Tracé_1401" data-name="Tracé 1401" d="M170.127,194.367c-.468-1.042-1.335-1.67-1.932-1.4s-.7,1.333-.229,2.374,1.335,1.67,1.932,1.4S170.6,195.409,170.127,194.367Z" transform="translate(-137.832 -172.854)" fill="#fffeee"/>
      </g>
    </g>
  </g>
</svg>
