<svg xmlns="http://www.w3.org/2000/svg" width="440" height="125" viewBox="0 0 440 125">
  <g id="MOUTH" transform="translate(0 -375)">
    <path id="Tracé_1113" data-name="Tracé 1113" d="M0,0H440V125H0Z" transform="translate(0 375)" fill="#2ad014" opacity="0"/>
    <g id="Groupe_94" data-name="Groupe 94" transform="translate(-630.831 -163.622)">
      <path id="Tracé_1339" data-name="Tracé 1339" d="M817.9,592.58c-.4,3.076,9.672,24.192,11.438,25.309,1.1.7,9.564,7.847,21.371,7.869,10.318.019,16.85-3.943,24.189-9.539,1.916-1.461,8.321-19.637,9.166-24.272,1.61-8.816-4.75-21.8-11.236-30.638-1.781-1.838-23.135-11.817-44.824,2.664C828,563.973,818.666,586.691,817.9,592.58Z" fill="#ff7d50"/>
      <path id="Tracé_1340" data-name="Tracé 1340" d="M857.6,607.607c-16.707.3-31.35-7.609-38.629-19.379a30.608,30.608,0,0,0-1.073,4.352c-.4,3.076,9.672,24.192,11.438,25.309,1.1.7,9.564,7.847,21.371,7.869,10.318.019,16.85-3.943,24.189-9.539,1.219-.928,4.25-8.616,6.516-15.284A47.745,47.745,0,0,1,857.6,607.607Z" fill="#f45540"/>
      <path id="Tracé_1341" data-name="Tracé 1341" d="M819.016,592.022c-.225,3.322,8.521,23.2,10.289,24.406,1.1.75,9.574,8.254,21.38,8.316,7.168.039,15.7-4.082,24.178-10.053,2.028-1.427,7.43-19.367,8.268-24.347,1.6-9.473-4-26.5-10.506-36-1.785-1.979-22.994-13.256-44.662,2.277C827.963,556.617,820.215,574.377,819.016,592.022Z" fill="#ff9769"/>
      <path id="Tracé_1342" data-name="Tracé 1342" d="M819.961,592.371c-.215,3.064,9.055,19.465,10.726,20.576a38.872,38.872,0,0,0,20.178,5.776,40.148,40.148,0,0,0,22.967-7.352c1.922-1.318,7.244-17.523,8.041-22.119,1.516-8.744-4.164-23.445-10.316-32.217-1.69-1.826-21.922-11.738-42.45,2.608C829.107,559.643,821.1,576.086,819.961,592.371Z" fill="#f45540"/>
      <path id="Tracé_1343" data-name="Tracé 1343" d="M819.961,592.371c-.217,2.9,8.295,18.8,9.963,19.848a47.231,47.231,0,0,0,21.2,5.295c6.771.023,16.029-2.141,22.873-7.159,1.834-1.345,7.2-16.06,8-20.431,1.453-7.928-3.9-22.063-9.752-30.522a6.5,6.5,0,0,0-2.418-2.086c-5.178-2.623-20.8-7.492-37.277,1.526a10.91,10.91,0,0,0-4.8,5.127C825.385,569.373,820.812,581.051,819.961,592.371Z" fill="#493736"/>
      <path id="Tracé_1344" data-name="Tracé 1344" d="M823.426,593.111c-.2,2.616,7.439,16.938,8.935,17.883a42.183,42.183,0,0,0,19.01,4.774c6.072.021,14.373-1.928,20.51-6.45,1.644-1.211,6.453-14.47,7.172-18.406,1.3-7.144-3.5-19.881-8.744-27.5a5.905,5.905,0,0,0-2.172-1.881,37.1,37.1,0,0,0-33.424,1.373,9.783,9.783,0,0,0-4.3,4.622C828.287,572.389,824.187,582.91,823.426,593.111Z" fill="#3d2f2c"/>
      <path id="Tracé_1345" data-name="Tracé 1345" d="M827.184,596.287c-.168,2.236,6.4,14.5,7.683,15.307a36.418,36.418,0,0,0,16.35,4.084,31.473,31.473,0,0,0,17.642-5.522c1.414-1.037,5.553-12.386,6.17-15.758,1.121-6.113-3.008-17.013-7.519-23.539a5.028,5.028,0,0,0-1.867-1.609,32.042,32.042,0,0,0-28.749,1.176,8.407,8.407,0,0,0-3.7,3.955C831.367,578.549,827.84,587.555,827.184,596.287Z" fill="#332723"/>
      <path id="Tracé_1346" data-name="Tracé 1346" d="M836.041,595.52c-.106,1.42,4.059,9.193,4.873,9.707a23.065,23.065,0,0,0,10.371,2.589,19.939,19.939,0,0,0,11.188-3.5c.9-.658,3.523-7.857,3.916-9.994.709-3.879-1.909-10.793-4.772-14.929a3.178,3.178,0,0,0-1.182-1.024,20.334,20.334,0,0,0-18.234.748,5.33,5.33,0,0,0-2.348,2.508A46.126,46.126,0,0,0,836.041,595.52Z" fill="#231a18"/>
      <path id="Tracé_1347" data-name="Tracé 1347" d="M872.7,609.746c1.2-.783,3.721-7.012,5.727-12.365a16.167,16.167,0,0,0-10.742-5.818c-12.069-1.846-16.93,3.388-16.93,3.388s-4.5-4.369-13.014-3.3c-5.006.631-12.367,3.764-13.072,9.656,2.529,4.612,5.617,9.389,6.512,9.954a40.882,40.882,0,0,0,19.662,5.093A39.188,39.188,0,0,0,872.7,609.746Z" fill="#db3535"/>
      <path id="Tracé_1348" data-name="Tracé 1348" d="M827.494,597.793a2.308,2.308,0,0,0-.512,2.859c2.01,3.631,8.323,12.256,22.92,12.069,17.707-.225,23.491-5.34,26.53-14.852a2.116,2.116,0,0,0-.881-2.4c-4.545-3.114-16.877-5.246-24.817-.717C843.978,590.728,833.7,592.162,827.494,597.793Z" fill="#ff8980"/>
      <g id="Groupe_93" data-name="Groupe 93">
        <path id="Tracé_1349" data-name="Tracé 1349" d="M862.625,592.156a23.28,23.28,0,0,0-11.891,2.6c-4.584-2.73-10.793-2.945-16.248-1.043a27.824,27.824,0,0,1,3.549-.5c6.279-.482,10.3,1.541,11.8,3.656a12.279,12.279,0,0,1,.738,1.166C851.42,595.475,856.557,592.869,862.625,592.156Z" fill="#f66"/>
        <path id="Tracé_1350" data-name="Tracé 1350" d="M876.328,596.367c-.68,13.28-48.537,9.643-49.232,2.242a1.675,1.675,0,0,1,0-.361,2.276,2.276,0,0,0-.118,2.4c2.01,3.631,8.323,12.256,22.92,12.069,17.707-.225,23.491-5.34,26.53-14.852A2.034,2.034,0,0,0,876.328,596.367Z" fill="#f66"/>
      </g>
      <path id="Tracé_1351" data-name="Tracé 1351" d="M851.4,606.367a77.545,77.545,0,0,1-22.885-3.351c3,4.1,9.291,9.879,21.377,9.726,14.965-.191,21.528-3.838,25.014-10.7C869.478,604.59,860.492,606.207,851.4,606.367Z" fill="#ed4845"/>
      <path id="Tracé_1352" data-name="Tracé 1352" d="M831.24,567.344a1.979,1.979,0,0,1-1.836-.438,1.547,1.547,0,0,1-.429-1.672l.447-1.236a7.1,7.1,0,0,1,3.971-4.06c11.73-4.975,20.042-6.606,33.38-2.409a9.342,9.342,0,0,1,5.8,5.006l1.2,2.711a1.28,1.28,0,0,1-.287,1.444,1.634,1.634,0,0,1-1.562.394C856.412,562.955,845.6,563.56,831.24,567.344Z" fill="#fffeee"/>
      <path id="Tracé_1353" data-name="Tracé 1353" d="M873.781,565.246l-1.2-2.711a8.327,8.327,0,0,0-.668-1.219c.033.073.067.143.1.215l1.15,2.713a1.326,1.326,0,0,1-.273,1.444,1.511,1.511,0,0,1-1.491.392c-14.794-4.14-25.1-3.543-38.783.227a1.826,1.826,0,0,1-1.75-.44,1.6,1.6,0,0,1-.412-1.67l.426-1.238a6.725,6.725,0,0,1,1.6-2.561,6.955,6.955,0,0,0-3.055,3.6l-.447,1.236a1.544,1.544,0,0,0,.429,1.672,1.979,1.979,0,0,0,1.836.438c14.362-3.784,25.172-4.389,40.692-.26a1.634,1.634,0,0,0,1.562-.394A1.28,1.28,0,0,0,873.781,565.246Z" fill="#ffe9cf"/>
      <path id="Tracé_1354" data-name="Tracé 1354" d="M851.033,558.5c8.9-.158,16.789,1.443,21.537,4.012a9.357,9.357,0,0,0-5.8-4.987c-13.338-4.2-21.65-2.566-33.38,2.409a7.219,7.219,0,0,0-3.641,3.3C834.393,560.523,842.176,558.66,851.033,558.5Z" fill="#f2d5b1"/>
      <path id="Tracé_1355" data-name="Tracé 1355" d="M825.768,603.969c2.179,3.734,4.394,7.033,5.132,7.5a41.393,41.393,0,0,0,19.92,5.162,39.73,39.73,0,0,0,22.145-6.7c.789-.516,2.144-3.321,3.558-6.707C857.361,608.826,843.855,608.908,825.768,603.969Z" fill="#fffeee"/>
      <path id="Tracé_1356" data-name="Tracé 1356" d="M876.166,604.066c.119-.275.236-.558.357-.843-19.162,5.6-32.668,5.685-50.755.746.156.269.314.535.47.8C844,609.57,857.385,609.494,876.166,604.066Z" fill="#ffe9cf"/>
      <path id="Tracé_1357" data-name="Tracé 1357" d="M873.068,607.5a40.206,40.206,0,0,1-22.3,6.7,41.922,41.922,0,0,1-20.065-5.158,23.1,23.1,0,0,1-3.453-4.678q-.735-.19-1.478-.394c2.179,3.734,4.394,7.033,5.132,7.5a41.393,41.393,0,0,0,19.92,5.162,39.73,39.73,0,0,0,22.145-6.7c.789-.516,2.144-3.321,3.558-6.707-.359.1-.714.2-1.07.306C874.492,605.6,873.635,607.131,873.068,607.5Z" fill="#f2d5b1"/>
      <path id="Tracé_1360" data-name="Tracé 1360" d="M845.643,577.357c3.072-1.044,4.277,1.053,4.289,1.4s-2.579,3.717-.034,4.717,3.245-1.979,2.444-3.809,1.263-2.754,3-2.7c0,0-1.438-2.475-6.01-1.518S845.643,577.357,845.643,577.357Z" fill="#332723"/>
      <path id="Tracé_1361" data-name="Tracé 1361" d="M851.5,556.521l.65,4.141.574-4.518Z" fill="#f2d5b1"/>
      <path id="Tracé_1362" data-name="Tracé 1362" d="M841.244,557.84l.5,3.164.443-3.451Z" fill="#f2d5b1"/>
      <path id="Tracé_1363" data-name="Tracé 1363" d="M867.529,565.246l-.205-2.834-.732,3.2Z" fill="#ffe9cf"/>
      <path id="Tracé_1364" data-name="Tracé 1364" d="M852.865,564.914l-.459-1.92-.844,1.979Z" fill="#3d2f2c"/>
      <path id="Tracé_1365" data-name="Tracé 1365" d="M848.527,607.143a2.364,2.364,0,0,1,1.934,2.212s.158-1.82,1.308-2.173A3.756,3.756,0,0,0,848.527,607.143Z" fill="#ed4845"/>
      <path id="Tracé_1366" data-name="Tracé 1366" d="M831.344,605.086a3.329,3.329,0,0,1,1.679,1.742,1.482,1.482,0,0,1,1.475-1.183A4.918,4.918,0,0,0,831.344,605.086Z" fill="#ed4845"/>
      <path id="Tracé_1367" data-name="Tracé 1367" d="M869.078,611.227l-.42-3.106,1.4,2.607Z" fill="#f2d5b1"/>
      <path id="Tracé_1368" data-name="Tracé 1368" d="M850.478,615.262l.219-3.645.807,3.391Z" fill="#f2d5b1"/>
      <path id="Tracé_1369" data-name="Tracé 1369" d="M865.678,602.076c.377-1.066-11.264-1.666-11.686.5-.14.721,2.93,1.893,6.029,1.768C861.721,604.277,865.2,603.412,865.678,602.076Z" fill="#ffa897"/>
      <path id="Tracé_1370" data-name="Tracé 1370" d="M852.99,601.75c.153-.4-1.98-1.494-2.224-.66-.082.277.4.97.994,1.148A1.079,1.079,0,0,0,852.99,601.75Z" fill="#ffa897"/>
      <path id="Tracé_1371" data-name="Tracé 1371" d="M847.016,602.055c-2.137-.325-6.362,1.2-5.987,1.593.7.739,11.789,1.45,12.8.651C854.287,603.938,852.6,602.92,847.016,602.055Z" fill="#ffa897"/>
      <path id="Tracé_1372" data-name="Tracé 1372" d="M857.006,622.371a12.333,12.333,0,0,0-5.321-.641c-2.41.135-4.507.727-4.4,1.432.135.9,3.533,1.436,6.965,1.016C857.164,623.822,858.127,622.977,857.006,622.371Z" fill="#ffaa80"/>
      <path id="Tracé_1373" data-name="Tracé 1373" d="M861.65,620.732a2.9,2.9,0,0,0-1.953-.064c-.773.223-1.322.7-1.1,1.109.281.524,1.56.641,2.6.19C862.082,621.582,862.184,621.025,861.65,620.732Z" fill="#ffaa80"/>
      <path id="Tracé_1374" data-name="Tracé 1374" d="M863.609,593.424c-.006-.279-.748-.492-1.656-.477s-1.639.256-1.633.535.748.495,1.657.477S863.615,593.7,863.609,593.424Z" fill="#f66"/>
      <path id="Tracé_1375" data-name="Tracé 1375" d="M859.1,593.6c-.072-.241-.658-.307-1.312-.149s-1.125.475-1.057.715.657.3,1.311.148S859.172,593.834,859.1,593.6Z" fill="#f66"/>
      <path id="Tracé_1376" data-name="Tracé 1376" d="M847.81,596.152c.1-.211-.125-.5-.505-.65s-.772-.1-.871.111.125.5.5.653S847.709,596.365,847.81,596.152Z" fill="#f66"/>
      <path id="Tracé_1377" data-name="Tracé 1377" d="M842.84,594.1c.012-.22-.67-.429-1.526-.468s-1.556.107-1.568.328.668.43,1.523.469S842.826,594.322,842.84,594.1Z" fill="#f66"/>
      <path id="Tracé_1378" data-name="Tracé 1378" d="M835.977,594.27c.066.189-.372.48-.979.656s-1.152.162-1.221-.026.373-.478.981-.654S835.91,594.082,835.977,594.27Z" fill="#f66"/>
      <path id="Tracé_1379" data-name="Tracé 1379" d="M858.754,555.371l.686,1.387.578-1.809Z" fill="#493736"/>
    </g>
  </g>
</svg>
