<svg xmlns="http://www.w3.org/2000/svg" width="440" height="125" viewBox="0 0 440 125">
  <g id="MOUTH" transform="translate(0 -375)">
    <path id="Tracé_1113" data-name="Tracé 1113" d="M0,0H440V125H0Z" transform="translate(0 375)" fill="#2ad014" opacity="0"/>
    <g id="Groupe_90" data-name="Groupe 90" transform="translate(-151.985 -164.186)">
      <path id="Tracé_1257" data-name="Tracé 1257" d="M405.531,587.781c-5.631-26.369-25.467-40.716-37.641-39.527-18.339,1.789-31.941,36.523-29.3,42.9.83,2.006,14.26,11.752,23.309,12.569S397.863,606.322,405.531,587.781Z" fill="#ff7f57"/>
      <path id="Tracé_1258" data-name="Tracé 1258" d="M339.536,589.826c.79,1.918,14.164,10.864,22.762,11.649s35.069,2.935,42.346-14.8c-5.364-25.24-25.039-37.473-36.607-36.342C350.614,552.033,337.022,583.721,339.536,589.826Z" fill="#f45540"/>
      <path id="Tracé_1259" data-name="Tracé 1259" d="M373.9,596.8c-13.514.92-26.034-1.59-35.521-6.428a3.8,3.8,0,0,0,.216.777c.83,2.006,14.26,11.752,23.309,12.569s35.963,2.6,43.631-15.942c-.029-.131-.059-.259-.088-.392C397.022,592.5,386.057,595.975,373.9,596.8Z" fill="#f45540"/>
      <path id="Tracé_1260" data-name="Tracé 1260" d="M339.609,590.852c.788,1.9,14.158,10.777,22.755,11.552s35.067,2.9,42.352-14.719c-5.351-25.054-25.018-37.189-36.586-36.06C350.706,553.326,337.1,584.791,339.609,590.852Z" fill="#3f322d"/>
      <path id="Tracé_1261" data-name="Tracé 1261" d="M344.046,589.846c.69,1.793,12.264,10.193,19.679,10.969s30.241,2.912,36.424-13.583c-4.75-23.547-21.769-35.047-31.734-34.05C353.4,554.684,341.849,584.145,344.046,589.846Z" fill="#3a2d29"/>
      <path id="Tracé_1262" data-name="Tracé 1262" d="M348.376,591.654c.594,1.491,10.441,8.475,16.729,9.11s25.648,2.394,30.813-11.346c-4.132-19.6-18.61-29.158-27.052-28.316C356.15,562.367,346.489,586.908,348.376,591.654Z" fill="#332723"/>
      <path id="Tracé_1263" data-name="Tracé 1263" d="M355.725,592.365c.413,1.047,7.267,5.953,11.641,6.4s17.84,1.691,21.426-7.952c-2.883-13.759-12.957-20.474-18.829-19.888C361.119,571.81,354.41,589.033,355.725,592.365Z" fill="#231a18"/>
      <path id="Tracé_1264" data-name="Tracé 1264" d="M365.96,571.768c7.029-1.657.039,10.392,5.409,10.337,7.68-.076-3.5-12.554,5.973-10.384a10.575,10.575,0,0,0-7.631-2.955C364.827,568.834,365.96,571.768,365.96,571.768Z" fill="#332723"/>
      <path id="Tracé_1265" data-name="Tracé 1265" d="M348.5,597.381s1.657-9.129,13.987-11.043l-5.1,14.225A22.174,22.174,0,0,1,348.5,597.381Z" fill="#ed4845"/>
      <path id="Tracé_1266" data-name="Tracé 1266" d="M397.978,596.6a26.885,26.885,0,0,0-8.789-6.5l.85,10.877A20.551,20.551,0,0,0,397.978,596.6Z" fill="#ed4845"/>
      <path id="Tracé_1267" data-name="Tracé 1267" d="M401.333,593.2a5.884,5.884,0,0,0-.618-.109c-1.149-.139-5.8,6.65-27.407,7.377-13.123.443-28.031-6.207-28.318-5.379l-.055.08c4.162,3.557,11.505,6.35,16.825,7.135C372.337,603.863,390.956,606.223,401.333,593.2Z" fill="#ffefd9"/>
      <path id="Tracé_1268" data-name="Tracé 1268" d="M373.308,600.469c-8.183.277-17.058-2.205-22.651-3.912-.11.687-.2,1.383-.261,2.084A40.6,40.6,0,0,0,361.76,602.3c9.279,1.367,24.744,3.349,35.406-4.975q-.163-.963-.385-1.9C393.116,597.42,386.258,600.033,373.308,600.469Z" fill="#f2d5b1"/>
      <path id="Tracé_1269" data-name="Tracé 1269" d="M373.724,587.978c-7.538-5.2-20.7-1.214-20.055,11.194.4,7.826-1.215,36.9,6.474,41.127s30.951,11.6,37.331-9.586c1-3.3-2.876-14.428-2.843-20.438.013-2.459,1.477-15.97-1.936-18.5S380.877,582.541,373.724,587.978Z" fill="#ff7e78"/>
      <path id="Tracé_1270" data-name="Tracé 1270" d="M392.432,610c.475,6.924-1.619,16.1-5.692,19.17-4.647,3.5-12.369-2-7.436-4.459C385.688,621.523,391.96,603.117,392.432,610Z" fill="#ff8e85"/>
      <path id="Tracé_1271" data-name="Tracé 1271" d="M394.655,610.619c.013-2.457,1.477-15.971-1.935-18.5-.185-.137-.385-.287-.6-.443a40.415,40.415,0,0,1,1.407,7.472c1.636,17.112,1.682,37.272-16.941,37.594-10.363.18-19.915-13.935-21.551-31.047a47.805,47.805,0,0,1,.7-14.271,12.977,12.977,0,0,0-2.047,8.092c.4,7.826-1.215,36.9,6.474,41.129s30.952,11.6,37.331-9.586C398.494,627.752,394.623,616.629,394.655,610.619Z" fill="#f66"/>
      <path id="Tracé_1272" data-name="Tracé 1272" d="M350.085,567.81c-1.191.155,3.741-9.046,12.174-13.8s21.538-.033,29.13,10.291c1.534,2.084-9.188-2.582-22.732-1.5C355.457,563.844,352.029,567.557,350.085,567.81Z" fill="#fffeee"/>
      <path id="Tracé_1273" data-name="Tracé 1273" d="M390.925,563.682c-3.064-.354-11.977-2.785-22.563-1.948-11.385.907-15.762,3.633-18.072,4.674-.419.9-.5,1.442-.205,1.4,1.944-.253,5.372-3.966,18.572-5.017,13.544-1.078,24.266,3.588,22.732,1.5C391.237,564.09,391.081,563.885,390.925,563.682Z" fill="#ffefd9"/>
      <path id="Tracé_1274" data-name="Tracé 1274" d="M361.23,557.469c8.585-4.387,21.4-.985,29.973,7.361.359-.035.435-.2.186-.533-7.592-10.324-20.7-15.049-29.13-10.291a32.02,32.02,0,0,0-11.9,12.256A35.9,35.9,0,0,1,361.23,557.469Z" fill="#f2d5b1"/>
      <path id="Tracé_1275" data-name="Tracé 1275" d="M383.731,562.125c-.131,2.205-.9,2.779-.9,2.779l1.957-.89A3.868,3.868,0,0,1,383.731,562.125Z" fill="#3a2d29"/>
      <path id="Tracé_1276" data-name="Tracé 1276" d="M369.079,554.783l-.022.1.686,4.014.4-4.295Z" fill="#f2d5b1"/>
      <path id="Tracé_1277" data-name="Tracé 1277" d="M358.956,557.365l-.022.1.685,4.014.4-4.295Z" fill="#f2d5b1"/>
      <path id="Tracé_1278" data-name="Tracé 1278" d="M384.6,628.826c-.379-.386-1.22-.178-1.878.469s-.884,1.484-.5,1.869,1.22.178,1.878-.469S384.978,629.213,384.6,628.826Z" fill="#f66"/>
      <path id="Tracé_1279" data-name="Tracé 1279" d="M386.169,626.379a.924.924,0,1,0-.1,1.2A.856.856,0,0,0,386.169,626.379Z" fill="#f66"/>
      <path id="Tracé_1280" data-name="Tracé 1280" d="M379.94,632.1a.853.853,0,0,0-1.205-.045.8.8,0,1,0,1.205.045Z" fill="#f66"/>
      <path id="Tracé_1281" data-name="Tracé 1281" d="M382.81,625.727a.716.716,0,0,0-1.011-.03.728.728,0,0,0-.194,1,.717.717,0,0,0,1.012.031A.73.73,0,0,0,382.81,625.727Z" fill="#f66"/>
      <path id="Tracé_1282" data-name="Tracé 1282" d="M375.769,586.432c-3.709,3.037-1.181,14.177,3.748,20.181s14.249-3.9,12.261-14.72C391.349,589.557,379.651,583.254,375.769,586.432Z" fill="#ff8e85"/>
      <path id="Tracé_1283" data-name="Tracé 1283" d="M373.368,588.375c1.691,1.744,5.733,23.887.743,29.828s-21.323-15.869-18.749-26.564c.427-1.774,3.936-4.955,7.915-5.553C366.823,585.553,370.221,585.125,373.368,588.375Z" fill="#ff8e85"/>
      <path id="Tracé_1286" data-name="Tracé 1286" d="M373.724,587.978a12.271,12.271,0,0,0-2.956-1.486,9.042,9.042,0,0,1,3.683,6.272,13.862,13.862,0,0,1,.825-5.77A10.849,10.849,0,0,0,373.724,587.978Z" fill="#f66"/>
      <path id="Tracé_1287" data-name="Tracé 1287" d="M367.808,617.633a.717.717,0,0,0-1.011-.028.726.726,0,0,0-.194,1,.716.716,0,0,0,1.011.032A.731.731,0,0,0,367.808,617.633Z" fill="#f66"/>
      <path id="Tracé_1288" data-name="Tracé 1288" d="M383.032,617.818a.719.719,0,0,0-1.012-.027.728.728,0,0,0-.193,1,.718.718,0,0,0,1.011.029A.731.731,0,0,0,383.032,617.818Z" fill="#f66"/>
      <path id="Tracé_1289" data-name="Tracé 1289" d="M372.408,630.705a.719.719,0,0,0-1.012-.029.728.728,0,0,0-.192,1,.716.716,0,0,0,1.01.029A.728.728,0,0,0,372.408,630.705Z" fill="#f66"/>
      <path id="Tracé_1290" data-name="Tracé 1290" d="M385.123,603.463a.716.716,0,0,0-1.011-.031.729.729,0,0,0-.193,1,.717.717,0,0,0,1.011.031A.727.727,0,0,0,385.123,603.463Z" fill="#ff7e78"/>
      <path id="Tracé_1291" data-name="Tracé 1291" d="M389.218,602.594a.715.715,0,0,0-1.012-.029.666.666,0,1,0,1.012.029Z" fill="#ff7e78"/>
      <path id="Tracé_1292" data-name="Tracé 1292" d="M389.106,592.238c.134-.22-.042-.576-.395-.793s-.747-.213-.881.006.041.574.393.791S388.971,592.457,389.106,592.238Z" fill="#ffb3b3"/>
      <path id="Tracé_1293" data-name="Tracé 1293" d="M365.908,589.574c.133-.221-.043-.574-.4-.791s-.747-.215-.882,0,.042.576.394.793S365.772,589.795,365.908,589.574Z" fill="#ffb3b3"/>
      <path id="Tracé_1294" data-name="Tracé 1294" d="M387.225,589.6c.134-.219-.042-.575-.4-.791s-.748-.213-.883.006.042.574.4.79S387.09,589.818,387.225,589.6Z" fill="#ffb3b3"/>
      <path id="Tracé_1295" data-name="Tracé 1295" d="M391.4,593.035c.087-.142-.032-.375-.267-.517s-.495-.147-.583,0,.033.373.267.515S391.31,593.176,391.4,593.035Z" fill="#ffb3b3"/>
      <path id="Tracé_1296" data-name="Tracé 1296" d="M382.248,588.5c.087-.143-.032-.373-.267-.518s-.5-.146-.583,0,.032.373.267.517S382.16,588.639,382.248,588.5Z" fill="#ffb3b3"/>
      <path id="Tracé_1297" data-name="Tracé 1297" d="M369.419,588.035c.086-.14-.033-.373-.267-.517s-.5-.145-.583,0,.032.373.267.515S369.331,588.178,369.419,588.035Z" fill="#ffb3b3"/>
      <path id="Tracé_1298" data-name="Tracé 1298" d="M372.213,591.611c.088-.142-.032-.375-.267-.517s-.5-.145-.583,0,.033.373.267.517S372.126,591.754,372.213,591.611Z" fill="#ffb3b3"/>
      <path id="Tracé_1299" data-name="Tracé 1299" d="M384.522,606.965a.718.718,0,0,0-1.011-.03.729.729,0,0,0-.193,1,.716.716,0,0,0,1.011.032A.731.731,0,0,0,384.522,606.965Z" fill="#ff7e78"/>
      <path id="Tracé_1300" data-name="Tracé 1300" d="M374.374,615.2a.717.717,0,0,0-1.011-.027.726.726,0,0,0-.193,1,.717.717,0,0,0,1.012.031A.73.73,0,0,0,374.374,615.2Z" fill="#ff7e78"/>
      <path id="Tracé_1301" data-name="Tracé 1301" d="M364.5,611.752c-.226-.285-.774-.223-1.223.139s-.63.886-.4,1.172.773.222,1.223-.141S364.729,612.037,364.5,611.752Z" fill="#ff7e78"/>
      <path id="Tracé_1302" data-name="Tracé 1302" d="M390.345,610.727c-.159-.2-.521-.176-.81.056s-.394.582-.236.782.522.175.811-.055S390.5,610.928,390.345,610.727Z" fill="#f66"/>
      <path id="Tracé_1303" data-name="Tracé 1303" d="M389.679,619.949c-.159-.2-.522-.174-.811.057s-.394.582-.235.781.522.176.81-.057S389.838,620.148,389.679,619.949Z" fill="#f66"/>
      <path id="Tracé_1304" data-name="Tracé 1304" d="M360.851,639.715c-7.826-4.309-6.259-33.809-6.694-41.774a13.466,13.466,0,0,1,1.357-7c.022-.112.043-.223.066-.333a12.946,12.946,0,0,0-2.065,8.19c.435,7.967-1.131,37.473,6.7,41.777,6.811,3.748,25.492,9.869,34.213-2.849C385.475,649.3,367.5,643.375,360.851,639.715Z" fill="#ed4845"/>
      <path id="Tracé_1305" data-name="Tracé 1305" d="M396.506,629.012c.293,2.178-1.4,8.492-6.465,11.857-3.9,2.586-3.33-2.553-.748-3.7C393.023,635.523,396.342,627.789,396.506,629.012Z" fill="#ff8e85"/>
      <path id="Tracé_1306" data-name="Tracé 1306" d="M355.164,566.316c1.927-.484,2.752-1.062,2.584-2.611,0,0,.254,1.139,2.555,1.031C360.3,564.736,357.321,567.434,355.164,566.316Z" fill="#3a2d29"/>
      <path id="Tracé_1307" data-name="Tracé 1307" d="M378.479,558.525l.171-3.244,1.293,3.541Z" fill="#fffeee"/>
    </g>
  </g>
</svg>
