<svg xmlns="http://www.w3.org/2000/svg" width="440" height="125" viewBox="0 0 440 125">
  <g id="MOUTH" transform="translate(0 -375)">
    <path id="Tracé_1113" data-name="Tracé 1113" d="M0,0H440V125H0Z" transform="translate(0 375)" fill="#2ad014" opacity="0"/>
    <g id="Groupe_86" data-name="Groupe 86" transform="translate(-422.744 137.465)">
      <path id="Tracé_1181" data-name="Tracé 1181" d="M633.645,262.655c-13.886-.976-39.336,9.177-39.336,9.177,9.721-1.985,25.545-2.261,39.5-1.954,12.139.268,25.187,1.187,34.875,1.369Z" transform="translate(6.973 8.682)" fill="#ef5c54"/>
      <path id="Tracé_1182" data-name="Tracé 1182" d="M589.124,282.1c-3.38,1.9-.832,13.932-1.23,14.984-.5,1.321-5.9,6.355-5.9,6.355s-3.238-8.075-3.556-9.242c-.36-1.307,7.775-11.533,8.705-12.873.881-1.268,29.949-29.542,56.777-29.542,10.412,0,43.963,22.653,53.6,33.338,1.641,1.822,9.541,5.517,9.541,5.517l-2.15,9.928s-8.1-4.346-9.422-5.824c-.553-.625,1.117-8.331-4.032-13.388-2.064-2.023-32-8.263-49.846-9.068C610.858,270.9,589.124,282.1,589.124,282.1Z" transform="translate(0 3.936)" fill="#ff9769"/>
      <path id="Tracé_1183" data-name="Tracé 1183" d="M587.344,280.816c.165,3.517.07,10.844-.328,11.814-.5,1.22-4.877,3.71-4.877,3.71s-1.746-3.8-2.067-4.879c-.357-1.206,4.358-10.183,5.29-11.424.879-1.174,30.553-23.433,57.354-23.236,8.868.065,45.087,14.893,54.09,26.111,1.484,1.849,5.9,4.933,5.9,4.933l.082,6.544s-6.732-2.285-8.053-3.654c-.56-.574-.377-7.965-2.192-10.113s-31.5-21.786-49.338-22.748C614.2,256.312,587.344,280.816,587.344,280.816Z" transform="translate(0.713 6.14)" fill="#f45540"/>
      <path id="Tracé_1184" data-name="Tracé 1184" d="M636.058,266.742c-3.595-.368-18.048-4.912-14.895-6.906s16.519,1.177,17.452,2.262S638.494,266.991,636.058,266.742Z" transform="translate(18.568 7.19)" fill="#ffaf83"/>
      <path id="Tracé_1186" data-name="Tracé 1186" d="M621.438,259.865c-1.02,1.487-5.166,4.273-6.85,3.275s.118-3.385,1.579-3.86C617.484,258.851,622.365,258.52,621.438,259.865Z" transform="translate(15.579 7.064)" fill="#ffaf83"/>
    </g>
  </g>
</svg>
