<svg xmlns="http://www.w3.org/2000/svg" width="440" height="125" viewBox="0 0 440 125">
  <g id="MOUTH" transform="translate(0 -375)">
    <path id="Tracé_1113" data-name="Tracé 1113" d="M0,0H440V125H0Z" transform="translate(0 375)" fill="#2ad014" opacity="0"/>
    <g id="Groupe_92" data-name="Groupe 92" transform="translate(-408.541 -174.738)">
      <path id="Tracé_1308" data-name="Tracé 1308" d="M579.609,596.854c3.939.627,25.183-11.437,31.157-10.478,8.774,1.41,23.976,15.305,29.537,20.246,0,0-17.985-24.017-29.129-24.425S579.609,596.854,579.609,596.854Z" transform="translate(4.63 2.901)" fill="#f45540"/>
      <path id="Tracé_1309" data-name="Tracé 1309" d="M581.686,598.448c-1.672-.326-10.63-5.866-12.792-8.615,0,0,4.985-10.666,12.268-9.873,10.438,1.136,22.394,1.464,31,.321s51.487-5.329,60.712-3.929c0,0,12.144,18.206,7.223,29.378-1.644,3.729-6.316,13.648-7.647,16.393-1.932,3.977-15.6-1.065-21.237-5.824s-28.186-29.917-37.045-30.4C604.913,585.4,585.8,599.255,581.686,598.448Z" transform="translate(1.915 1.351)" fill="#ff9769"/>
      <path id="Tracé_1310" data-name="Tracé 1310" d="M580.317,596.288c-1.6-.318-7.893-4.729-10-7.189,0,0,3.66-8.657,10.622-7.826a161.841,161.841,0,0,0,31.227.568c8.191-.847,50.963-5.837,59.785-4.437,0,0,11.165,18.243,6.649,27.994-1.505,3.253-7.464,11.51-8.691,13.9-1.777,3.469-14.294-2.343-19.75-6.634s-22.209-28.893-37.3-28.328C599.688,584.828,584.26,597.071,580.317,596.288Z" transform="translate(2.275 1.626)" fill="#f45540"/>
      <path id="Tracé_1311" data-name="Tracé 1311" d="M580.4,595.212c-1.621-.336-6.642-4.466-8.75-7.141,0,0,2.707-6.654,9.8-5.883,10.159,1.107,22.245,1.685,30.617.575s49.729-4.888,58.706-3.525c0,0,10.738,15,5.946,25.875-1.6,3.629-6.722,8.637-8.017,11.308-1.88,3.872-11.725-.154-17.214-4.787s-26.618-26.717-35.225-27.459C601.373,582.894,581.938,595.526,580.4,595.212Z" transform="translate(2.614 2.08)" fill="#3f322d"/>
      <path id="Tracé_1312" data-name="Tracé 1312" d="M579.7,591.52c-.9.389-5.427-2.25-5.441-4.841-.008-1.064,1.8-2.1,3.285-2.949,0,0,8.866-.177,19.312.272C596.859,584,585.412,589.059,579.7,591.52Z" transform="translate(3.275 3.283)" fill="#f2d5b1"/>
      <path id="Tracé_1313" data-name="Tracé 1313" d="M610.264,583.108c10.991,3.145,36.333,29.029,40.33,30.94,1.787.855,4.985,1.451,5.56.712s9.156-10.431,9.724-14.394c.758-5.291-3.852-17.491-6.436-18.847C654.193,578.767,610.264,583.108,610.264,583.108Z" transform="translate(12.397 2.5)" fill="#fffeee"/>
      <path id="Tracé_1314" data-name="Tracé 1314" d="M657.628,604.462c-.524-.632-5.594-9.246-28.894-16.294,0,0,26.67,8.052,31.379,3.413C660.113,591.581,662.326,600.016,657.628,604.462Z" transform="translate(17.078 4.417)" fill="#f2d5b1"/>
      <path id="Tracé_1315" data-name="Tracé 1315" d="M665.878,599.92c.455-3.172-1.021-8.825-2.83-13.135,1.42,3.931,2.425,8.413,2.039,11.1-.568,3.966-8.586,14.182-9.161,14.923s-4.279.313-6.064-.538c-3.576-1.71-24.254-23.139-36.451-29.908-1.975.184-3.147.3-3.147.3,10.991,3.145,36.387,29.73,40.389,31.641,1.787.854,5.486,1.277,6.061.538S665.31,603.883,665.878,599.92Z" transform="translate(12.397 2.946)" fill="#f2d5b1"/>
      <path id="Tracé_1316" data-name="Tracé 1316" d="M619.174,585.908s41.075-2.675,44.978,4.322c-1.4-4.162-3.036-8.339-4.407-9.058-5.245-2.754-49.481,2.01-49.481,2.01,10.991,3.145,36.387,29.73,40.389,31.641.039.019.079.036.118.054C642.125,605.242,622.187,588.943,619.174,585.908Z" transform="translate(12.397 2.427)" fill="#f2d5b1"/>
      <path id="Tracé_1317" data-name="Tracé 1317" d="M657.242,603.951c.788-3.753-8.326-9.236-20.711-13.431,0,0,17.323,5.5,22.815,1.385A11.689,11.689,0,0,1,657.242,603.951Z" transform="translate(19.053 5.013)" fill="#3f322d"/>
      <path id="Tracé_1320" data-name="Tracé 1320" d="M605.868,582.319c-3.939.2-11.313,3.546-13.682,4.571l-.285.12s9.232-3.182,14.123-3.423,12.734,3.192,12.734,3.192A21,21,0,0,0,605.868,582.319Z" transform="translate(7.745 2.931)" fill="#ff9769"/>
      <path id="Tracé_1321" data-name="Tracé 1321" d="M641.973,598.575a23.887,23.887,0,0,1,4.112-5.55l-1.921.15S641.588,599.232,641.973,598.575Z" transform="translate(20.422 5.647)" fill="#3f322d"/>
      <path id="Tracé_1322" data-name="Tracé 1322" d="M646.2,594.071a7.133,7.133,0,0,0,2.062-4.477s.506,3.077.781,4.749Z" transform="translate(21.503 4.778)" fill="#3f322d"/>
      <path id="Tracé_1324" data-name="Tracé 1324" d="M612.162,581.815s12.025,5.133,20.185,7.716c0,0-17.411-5.319-20.612-5.678l-2.113-1.077Z" transform="translate(12.235 2.807)" fill="#3f322d"/>
      <path id="Tracé_1325" data-name="Tracé 1325" d="M581.747,590.771c-2.818-.291-5.289-2.756-2.315-3.884,0,0-4.1-.958-1.335-3.447,0,0-4.734.771-4.472,3.7C573.985,591.141,580.842,593.555,581.747,590.771Z" transform="translate(3.111 3.219)" fill="#3f322d"/>
      <path id="Tracé_1326" data-name="Tracé 1326" d="M595.26,583.434a102.985,102.985,0,0,1-11.739,2.438s10.119-1.068,10.661-.649Z" transform="translate(5.621 3.217)" fill="#3f322d"/>
      <path id="Tracé_1327" data-name="Tracé 1327" d="M624.611,586.91c3.608,1.1,4.747,3.266,4.762,4.534,0,0,.755-2.255,2.279-2.384Z" transform="translate(16.033 4.098)" fill="#3f322d"/>
      <path id="Tracé_1328" data-name="Tracé 1328" d="M636.422,582.744a11.791,11.791,0,0,1,.386,7.327s1.7-6.084,3.521-6.827Z" transform="translate(19.026 3.042)" fill="#f2d5b1"/>
      <path id="Tracé_1329" data-name="Tracé 1329" d="M584.151,585.781c-1.136,1.253-2.527,2.37-3.225,2.355s-2.217-1.356-1.708-1.755S584.151,585.781,584.151,585.781Z" transform="translate(4.505 3.812)" fill="#ffe9cf"/>
      <path id="Tracé_1331" data-name="Tracé 1331" d="M577.881,586.419a7.735,7.735,0,0,1,3.755-.729,12.237,12.237,0,0,0,3.632-.367,22.9,22.9,0,0,1-3.2.762C580.524,586.306,577.881,586.419,577.881,586.419Z" transform="translate(4.192 3.695)" fill="#3f322d"/>
      <g id="Groupe_91" data-name="Groupe 91" transform="translate(657.592 609.238)">
        <path id="Tracé_1332" data-name="Tracé 1332" d="M641.764,606.551a2.394,2.394,0,0,0,.389.331Z" transform="translate(-637.213 -600.164)" fill="#f2d5b1"/>
        <path id="Tracé_1333" data-name="Tracé 1333" d="M640.833,601.455l-2.7,2.5,4.551,3.883C641.426,606.512,640.394,602.941,640.833,601.455Z" transform="translate(-638.133 -601.455)" fill="#f2d5b1"/>
      </g>
      <path id="Tracé_1334" data-name="Tracé 1334" d="M626.891,593.895l1.173-1.914.6,3.493Z" transform="translate(16.61 5.383)" fill="#f2d5b1"/>
      <path id="Tracé_1335" data-name="Tracé 1335" d="M625.777,586.592a3.9,3.9,0,0,1-1.361.44l2.987.96A7,7,0,0,0,625.777,586.592Z" transform="translate(15.983 4.017)" fill="#3f322d"/>
      <path id="Tracé_1336" data-name="Tracé 1336" d="M585.38,585.168l-2.607.444a2.756,2.756,0,0,1,1.3,2.749c-.311,1.824.187.118.187.118l.691-.277S584.409,585.45,585.38,585.168Z" transform="translate(5.432 3.656)" fill="#3f322d"/>
      <path id="Tracé_1337" data-name="Tracé 1337" d="M579.881,586.728l1.652-.18a3.805,3.805,0,0,1-.514-3.009c.4-1.816-.093-.115-.093-.115l-.426.285S580.469,586.435,579.881,586.728Z" transform="translate(4.699 3.031)" fill="#3f322d"/>
    </g>
  </g>
</svg>
