<svg xmlns="http://www.w3.org/2000/svg" width="440" height="125" viewBox="0 0 440 125">
  <g id="MOUTH" transform="translate(0 -375)">
    <path id="Tracé_1113" data-name="Tracé 1113" d="M0,0H440V125H0Z" transform="translate(0 375)" fill="#2ad014" opacity="0"/>
    <g id="Groupe_89" data-name="Groupe 89" transform="translate(74.225 -170.063)">
      <path id="Tracé_1210" data-name="Tracé 1210" d="M99.133,629.246c-1.04,15.1,31.091,24.27,45.44,23.427,17.136-1.007,38.354-10.952,38.494-26.223.158-17.37-2.242-44.5-23.059-71.28-4.849-6.233-8.041-9.257-20.034-8.689-11.675.553-22.616,6.855-27.127,16.553C104.14,581.751,101.18,599.516,99.133,629.246Z" transform="translate(4.569 0.56)" fill="#ef5c54"/>
      <path id="Tracé_1214" data-name="Tracé 1214" d="M99.314,627.548c-.994,14.7,31.006,25.107,45.348,24.306,17.131-.951,38.47-12.036,38.563-26.9.108-16.909-4.119-41.823-20.682-72.583-3.672-6.823-13.533-7.71-25.522-7.177-11.671.521-19.713,8.479-24.2,17.915C104.176,581.318,101.272,598.606,99.314,627.548Z" transform="translate(4.645)" fill="#ff9769"/>
      <path id="Tracé_1215" data-name="Tracé 1215" d="M100.891,627.228c-.883,9.395,28.624,16.906,41.507,16.138,15.386-.919,37.673-7.9,37.3-18.661-.545-15.688-2.974-42.83-21.643-67.047-4.349-5.639-8.14-8.717-18.908-8.2-10.483.5-21.176,5.493-25.234,14.268C106.082,580.663,103.416,600.352,100.891,627.228Z" transform="translate(5.3 1.799)" fill="#f45540"/>
      <path id="Tracé_1216" data-name="Tracé 1216" d="M100.887,625.365a8.023,8.023,0,0,0,4.7,7.648c22.947,11.485,46.849,12.019,69-.969,6.456-3.786,4.92-8.887,5.059-12.058.536-12.486-.707-36.946-24.541-62.943-7.288-7.949-31.371-8.752-38.859,5.366C105.77,582.152,102.648,599.352,100.887,625.365Z" transform="translate(5.3 2.611)" fill="#493736"/>
      <path id="Tracé_1217" data-name="Tracé 1217" d="M105.733,622.044a7.317,7.317,0,0,0,3.837,6.971c17.861,9.825,37.628,11.671,57.587-1.205a11.877,11.877,0,0,0,5.486-8.737c1-10.379.283-34.133-21.041-59.859-6.007-7.247-26.092-7.871-32.469,5.091C110.209,582.439,107.444,598.207,105.733,622.044Z" transform="translate(7.308 3.742)" fill="#3d2f2c"/>
      <path id="Tracé_1218" data-name="Tracé 1218" d="M109.2,616.058a5.672,5.672,0,0,0,3.281,5.408c15.11,7.67,31.759,9.173,48.456-.71a8.958,8.958,0,0,0,4.549-6.736c.763-8.027-.028-26.406-18.173-46.391-5.113-5.63-22.02-6.192-27.287,3.814C112.661,585.437,110.456,597.624,109.2,616.058Z" transform="translate(8.75 7.69)" fill="#332723"/>
      <path id="Tracé_1219" data-name="Tracé 1219" d="M132.132,584.152c-2.514-2.988-6.182-2.985-8.011-.661-1.524,1.937-1.379,5.062.184,7.372,1.657,2.447,4.7,3.691,7.09,2.443C134.328,591.768,134.861,587.4,132.132,584.152Z" transform="translate(14.497 15.242)" fill="#443632"/>
      <path id="Tracé_1220" data-name="Tracé 1220" d="M141.235,576.617c-5.254-5.23-8.211.6-6.742,5.091,1.546,4.731.787,13.186-3.51,11.42s-.617-12.047-.553-12.995c.119-1.777-1.864-5.175-5.751-3.169a7.541,7.541,0,0,0-1.514,1.862c-4.791,8.421-6.169,15.769-6.875,26.887a3.47,3.47,0,0,0,2.211,3.278c10.072,4.677,21.125,5.642,32.128-.266a5.307,5.307,0,0,0,2.972-4.05C154.053,599.834,153.4,588.74,141.235,576.617Z" transform="translate(11.691 12.228)" fill="#231a18"/>
      <path id="Tracé_1221" data-name="Tracé 1221" d="M104.185,601.579a43.66,43.66,0,0,1,32.674-4.847s20.217-7.035,37.733,1.279a85,85,0,0,1-40.7,9.065C111.221,606.116,104.185,601.579,104.185,601.579Z" transform="translate(6.674 20.272)" fill="#ff7e78"/>
      <g id="Groupe_88" data-name="Groupe 88" transform="translate(109.049 616.471)">
        <path id="Tracé_1222" data-name="Tracé 1222" d="M172.238,595.957c1.784,4.032-20.418,7.543-34.5,8.167-11.536.515-30.447-2.224-28.29-5.763-2.229.985-7.052,2.249-6.5,5.612,0,0,8.693,1.959,31.358,2.917a129.3,129.3,0,0,0,41.858-5.489C178.379,597.5,173.206,596.322,172.238,595.957Z" transform="translate(-102.905 -595.369)" fill="#f66"/>
        <path id="Tracé_1223" data-name="Tracé 1223" d="M127.482,596.074c-.229-.058-.454-.1-.682-.157a5.226,5.226,0,0,1,.944,1.8c.477-.7,1.11-1.453,1.5-2.174C128.111,595.856,127.482,596.074,127.482,596.074Z" transform="translate(-92.997 -595.541)" fill="#f66"/>
      </g>
      <path id="Tracé_1224" data-name="Tracé 1224" d="M112.211,568.226a.916.916,0,0,1-.842-.139.641.641,0,0,1-.218-.716,23.031,23.031,0,0,1,8.042-10.877c6.287-4.687,24.209-6.1,31.309,2.1a78.537,78.537,0,0,1,6.488,8.54.688.688,0,0,1-.141.9.994.994,0,0,1-1.036.168C144.135,563.205,124.476,564.283,112.211,568.226Z" transform="translate(9.548 3.171)" fill="#fffeee"/>
      <path id="Tracé_1225" data-name="Tracé 1225" d="M156.99,563.858c-.211-.325-.45-.685-.709-1.067a1.013,1.013,0,0,1-.789.011c-5.994-2.566-13.729-2.273-21.851-2.072-7.7.194-15.782.177-21.752,2.1a1,1,0,0,1-.266.041c-.167.4-.327.809-.473,1.229a.641.641,0,0,0,.218.716.916.916,0,0,0,.842.139c6.086-1.956,14.1-2.756,21.947-2.91,7.969-.154,15.773.368,21.655,2.884a.994.994,0,0,0,1.036-.168A.688.688,0,0,0,156.99,563.858Z" transform="translate(9.548 6.444)" fill="#ffe9cf"/>
      <path id="Tracé_1226" data-name="Tracé 1226" d="M156.814,568.059c.011-.01.023-.016.034-.027a.688.688,0,0,0,.141-.9,78.537,78.537,0,0,0-6.488-8.54c-7.1-8.192-25.022-6.783-31.309-2.1a23.031,23.031,0,0,0-8.042,10.877.62.62,0,0,0,.033.473c3.4-7.515,12.092-11.587,21.37-11.941C140.937,555.588,149.726,558.072,156.814,568.059Z" transform="translate(9.549 3.171)" fill="#f2d5b1"/>
      <path id="Tracé_1227" data-name="Tracé 1227" d="M131.685,597.4c-1.538.723-3.556,3.392-1.388,3.363,3.143-.047,15.749-4.241,17.034-5.325S139.147,593.882,131.685,597.4Z" transform="translate(17.108 20.561)" fill="#ff8e85"/>
      <path id="Tracé_1228" data-name="Tracé 1228" d="M144.852,596.041c0-.177-.685-.287-1.521-.252s-1.511.208-1.508.382.686.29,1.521.25S144.856,596.215,144.852,596.041Z" transform="translate(22.281 21.031)" fill="#ffa897"/>
      <path id="Tracé_1229" data-name="Tracé 1229" d="M144.191,594.858c0-.13-.395-.221-.877-.2s-.87.144-.867.273.4.225.877.2S144.194,594.991,144.191,594.858Z" transform="translate(22.539 20.564)" fill="#ffa897"/>
      <path id="Tracé_1230" data-name="Tracé 1230" d="M129.873,597.161c.109-.481-1.519-1.041-3.746-1.371a24.354,24.354,0,0,0-7.083-.093c-2.252.478-2.187,2.174,2.265,2.691C125.275,598.836,129.727,597.8,129.873,597.161Z" transform="translate(12.23 20.905)" fill="#ff8e85"/>
      <path id="Tracé_1231" data-name="Tracé 1231" d="M125.812,598.191c0-.13-.439-.219-.969-.194s-.962.147-.959.279.437.219.969.2S125.814,598.324,125.812,598.191Z" transform="translate(14.842 21.947)" fill="#ffa897"/>
      <path id="Tracé_1232" data-name="Tracé 1232" d="M117.1,596.205c0-.153-.457-.255-1.014-.229s-1.007.168-1,.32.457.255,1.016.232S117.1,596.359,117.1,596.205Z" transform="translate(11.191 21.109)" fill="#ffa897"/>
      <path id="Tracé_1233" data-name="Tracé 1233" d="M112.408,597.7c0-.238-.624-.406-1.385-.374s-1.374.255-1.368.5.627.409,1.386.376S112.412,597.937,112.408,597.7Z" transform="translate(8.942 21.668)" fill="#f66"/>
      <path id="Tracé_1234" data-name="Tracé 1234" d="M115.763,598.648c0-.15-.591-.243-1.311-.212s-1.3.178-1.3.328.59.246,1.311.212S115.766,598.8,115.763,598.648Z" transform="translate(10.392 22.128)" fill="#f66"/>
      <path id="Tracé_1235" data-name="Tracé 1235" d="M115.352,597.658c0-.15-.59-.246-1.31-.214s-1.3.177-1.3.33.591.246,1.311.212S115.357,597.81,115.352,597.658Z" transform="translate(10.222 21.717)" fill="#f66"/>
      <path id="Tracé_1236" data-name="Tracé 1236" d="M142.424,597.541c0-.153-.59-.246-1.311-.214s-1.3.177-1.3.33.59.245,1.311.212S142.429,597.69,142.424,597.541Z" transform="translate(21.447 21.669)" fill="#f66"/>
      <path id="Tracé_1237" data-name="Tracé 1237" d="M150.056,596.084c0-.15-.59-.246-1.311-.214s-1.3.177-1.3.33.591.245,1.313.212S150.059,596.233,150.056,596.084Z" transform="translate(24.611 21.065)" fill="#f66"/>
      <path id="Tracé_1238" data-name="Tracé 1238" d="M106.478,601.936a3.668,3.668,0,0,0-2.736.484c-2.327,1.5-2.276,5.12,1.7,7.877,14.683,10.2,53.135,11.606,68.665-1.546,4.392-3.722,3.5-8.82,2.684-9.339a1.932,1.932,0,0,0-1.509-.218C147.681,606.282,130.3,607.191,106.478,601.936Z" transform="translate(5.844 22.418)" fill="#fffeee"/>
      <path id="Tracé_1239" data-name="Tracé 1239" d="M102.948,603.518a3.772,3.772,0,0,1,2.784-.481c23.871,5.195,38.913,5.531,66.227-1.227.447-.11,4.053-1.553,2.838,6.85,2.064-.832,2.142-8.4,2.542-8.218a2.56,2.56,0,0,0-.48-1.4,1.931,1.931,0,0,0-1.508-.224c-27.6,7.1-45.218,8.032-69.039,2.78a3.645,3.645,0,0,0-2.735.482,3.372,3.372,0,0,0-1.229,2.02A2.282,2.282,0,0,1,102.948,603.518Z" transform="translate(5.912 22.262)" fill="#ffe9cf"/>
      <path id="Tracé_1240" data-name="Tracé 1240" d="M177,599.038a1.852,1.852,0,0,0-1.019-.282c.331,3.276,1.187,6.6-1.825,9.2-14.975,12.938-54.433,11.645-68.541,1.647-2.648-1.873-2.78-4.134-2.214-7.259-2.02,2.038-2.1,6.444,1.681,9.071,14.683,10.193,53.839,11.638,69.369-1.517C178.838,606.177,177.813,599.557,177,599.038Z" transform="translate(5.776 22.264)" fill="#f2d5b1"/>
      <path id="Tracé_1241" data-name="Tracé 1241" d="M123.616,603.187c1.9-.028,3.15,1.287,3.136,3.561,0,0,.723-3.52,2.249-3.691A5.634,5.634,0,0,0,123.616,603.187Z" transform="translate(14.731 23.789)" fill="#f66"/>
      <path id="Tracé_1242" data-name="Tracé 1242" d="M141.834,601.422c.969-.116,1.76.74,2,2.323,0,0-.018-2.487.745-2.685A2.231,2.231,0,0,0,141.834,601.422Z" transform="translate(22.285 23.09)" fill="#f66"/>
      <path id="Tracé_1243" data-name="Tracé 1243" d="M115.108,564.423c.567-.16,1.634-1.1,1.531-3.269,0,0,.274,2.166,1.768,2.545l-1.525.866Z" transform="translate(11.203 6.672)" fill="#3d2f2c"/>
      <path id="Tracé_1244" data-name="Tracé 1244" d="M125.392,563.174c.921-.133,2.7-1.163,2.72-3.838,0,0,.257,2.685,2.616,3.313l-2.511.894Z" transform="translate(15.467 5.918)" fill="#3d2f2c"/>
      <path id="Tracé_1245" data-name="Tracé 1245" d="M135.7,563.237a2.781,2.781,0,0,0,2.691-2.292,2.659,2.659,0,0,0,1.436,2.681l-2.048.267Z" transform="translate(19.742 6.585)" fill="#3d2f2c"/>
      <path id="Tracé_1246" data-name="Tracé 1246" d="M109.217,601.558c2.3.454,2.73,3.288,2.486,9.085,0,0,.645-8.668,3.87-8.1A11.117,11.117,0,0,0,109.217,601.558Z" transform="translate(8.761 23.385)" fill="#f66"/>
      <path id="Tracé_1247" data-name="Tracé 1247" d="M143.986,617.368c-.045-2.166-5.711-2.328-10.367-.942-3.225.962-5.012,2.44-4.8,3.513.215,1.047,2.345,1.775,5.516,1.61C138.814,621.316,144.034,619.438,143.986,617.368Z" transform="translate(16.883 29.22)" fill="#ffaf83"/>
      <path id="Tracé_1248" data-name="Tracé 1248" d="M126.576,608.816s-.272,4.609-3.109,5.049l8.727.093S126.664,613.094,126.576,608.816Z" transform="translate(14.669 26.435)" fill="#f2d5b1"/>
      <path id="Tracé_1249" data-name="Tracé 1249" d="M135.986,612.814c1.9-1.275,1.9-1.514,1.951-3.337,0,0,1.338,2.558,2.811,2.729S135.986,612.814,135.986,612.814Z" transform="translate(19.86 26.709)" fill="#f2d5b1"/>
      <path id="Tracé_1250" data-name="Tracé 1250" d="M141.767,588.8c1.662-1,3.672-3.241,4.291-1.893S141.767,588.8,141.767,588.8Z" transform="translate(22.257 17.175)" fill="#a3d0d6"/>
      <path id="Tracé_1251" data-name="Tracé 1251" d="M153.839,594.537c1.972.188,5.158-.378,4.566,1.012S153.839,594.537,153.839,594.537Z" transform="translate(27.263 20.514)" fill="#b4ebef"/>
      <path id="Tracé_1252" data-name="Tracé 1252" d="M151.391,590.043c1.669-.577,4.146-2.246,4.006-.846S151.391,590.043,151.391,590.043Z" transform="translate(26.248 18.074)" fill="#a3d0d6"/>
      <path id="Tracé_1253" data-name="Tracé 1253" d="M109.441,590.542c-1.993.047-5.073.979-4.705-.464S109.441,590.542,109.441,590.542Z" transform="translate(6.89 18.442)" fill="#a3d0d6"/>
      <path id="Tracé_1254" data-name="Tracé 1254" d="M113.687,589.075c-1.167-.724-3.319-1.3-2.522-2.078S113.687,589.075,113.687,589.075Z" transform="translate(9.497 17.332)" fill="#a3d0d6"/>
      <path id="Tracé_1255" data-name="Tracé 1255" d="M126.194,553.547l1.674,5.316,1.258-5.684Z" transform="translate(15.8 3.366)" fill="#f2d5b1"/>
      <path id="Tracé_1256" data-name="Tracé 1256" d="M136.205,556.162l1.218,4.578.888-4.877Z" transform="translate(19.951 4.478)" fill="#f2d5b1"/>
    </g>
  </g>
</svg>
