<svg xmlns="http://www.w3.org/2000/svg" width="440" height="125" viewBox="0 0 440 125">
  <g id="MOUTH" transform="translate(0 -375)">
    <path id="Tracé_1113" data-name="Tracé 1113" d="M0,0H440V125H0Z" transform="translate(0 375)" fill="#2ad014" opacity="0"/>
    <g id="Groupe_87" data-name="Groupe 87" transform="translate(-657.956 145.127)">
      <path id="Tracé_1190" data-name="Tracé 1190" d="M835.121,293.895c-1.667.039-14.667-5.343-14.667-5.343s-4.248-8.422-.426-28.657c0,0,5-10.7,6.408-11.514s15.845-5.533,17.99-5.582,74.209,17.943,80.229,23.544c2.438,2.271,5.669,10.1,5.71,11.909s-2.15,10.121-2.15,10.121-6.355,7.267-13.789,5.373-31.067-9.579-37.737-9.425C866.917,284.548,839.173,293.8,835.121,293.895Z" transform="translate(1.19 0.032)" fill="#f45540"/>
      <path id="Tracé_1191" data-name="Tracé 1191" d="M871.812,262.252c23.343-.542,44.02,3.3,56.3,9.6a20.218,20.218,0,0,0-3.468-5.508c-6.02-5.6-78.084-23.595-80.229-23.543s-16.58,4.776-17.99,5.582-6.408,11.514-6.408,11.514a88.19,88.19,0,0,0-1.553,13.247C830.676,266.989,849.991,262.759,871.812,262.252Z" transform="translate(1.197 0.032)" fill="#ff7f57"/>
      <path id="Tracé_1192" data-name="Tracé 1192" d="M836.607,290.374c-1.584.036-13.916-4.659-13.916-4.659s-4.019-7.375-.359-25.116c0,0,4.764-9.393,6.106-10.1s15.052-4.878,17.089-4.927,71.97,16.16,77.676,21.06c2.313,1.982,3.814,8.288,3.851,9.869S925,285.376,925,285.376s-5.94,7.38-13,5.736-30.759-8.566-37.094-8.42C865.634,282.908,840.453,290.283,836.607,290.374Z" transform="translate(1.641 0.561)" fill="#3f322d"/>
      <path id="Tracé_1193" data-name="Tracé 1193" d="M830.571,285.691a13.625,13.625,0,0,0,7.218,1.081c9.171-1.786,34.781-9.571,41.119-8.141,5.845,1.32,33.2,10.1,35.886,8.678s11.209-9.874,4.091-19.727c-2.572-3.561-68.1-19.492-72.621-19.162s-14.366,1.752-15.387,2.587c-2,1.63-4.443,8.39-4.924,17.745C825.556,276.5,829.131,284.332,830.571,285.691Z" transform="translate(2.62 1.105)" fill="#fffeee"/>
      <path id="Tracé_1194" data-name="Tracé 1194" d="M827.843,256.73c-.156,3.06,3.778,6.7,6.741,7.539s10.332-3.41,28.545,1.036a52.7,52.7,0,0,0-23.748,1.938C832.448,269.631,823.509,265.093,827.843,256.73Z" transform="translate(2.769 2.692)" fill="#f2d5b1"/>
      <path id="Tracé_1195" data-name="Tracé 1195" d="M916.042,279.546c-2.784,1.421-31.12-6.03-37.184-7.343-6.575-1.423-33.2,5.076-42.72,6.873A14.616,14.616,0,0,1,828.65,278a5.2,5.2,0,0,1-.742-.94,13.915,13.915,0,0,0,2.284,4.129,13.625,13.625,0,0,0,7.218,1.081c9.171-1.786,34.781-9.571,41.119-8.141,5.845,1.32,33.2,10.1,35.886,8.678a15.485,15.485,0,0,0,5.97-7.294A14.458,14.458,0,0,1,916.042,279.546Z" transform="translate(2.999 5.607)" fill="#ffe9cf"/>
      <path id="Tracé_1196" data-name="Tracé 1196" d="M829.775,257.907c1.03-.854,11.078-2.484,15.7-2.911s71.989,14.117,74.692,17.622c.182.235.656,2.045-2.312,3.36.869.944,3.412.853,4.061-.547a15.76,15.76,0,0,0-2.789-7.972c-2.572-3.561-68.357-19.368-72.879-19.038s-14.366,1.752-15.387,2.587c-1.877,1.53-4.146,7.583-4.815,16.063C826.988,262.3,828.455,259,829.775,257.907Z" transform="translate(2.643 1.105)" fill="#f2d5b1"/>
      <path id="Tracé_1197" data-name="Tracé 1197" d="M829.444,284.146c-.4-2.707.519-11.783,2.266-14.54,0,0,7.49.844,12.672-2.7,2.391-1.638,11.721-2.053,11.721-2.053-12.024-1.135-19.557,3.4-23.228,1.33a9.846,9.846,0,0,1-5.206-9.725s-4.871,9.62-3.366,15.924A41.6,41.6,0,0,0,829.444,284.146Z" transform="translate(2.256 2.64)" fill="#3f322d"/>
      <path id="Tracé_1198" data-name="Tracé 1198" d="M873.959,265.013a17.185,17.185,0,0,0,7.258,1.384S876.1,264.4,873.959,265.013Z" transform="translate(11.792 4.251)" fill="#3f322d"/>
      <path id="Tracé_1199" data-name="Tracé 1199" d="M899.271,272.134c1.94.632,7.651,2.877,5.085,9.388,0,0,3.893-2.919,4.38-6.327a12.583,12.583,0,0,0-2.14-9.343C909.1,276.321,902.407,270.7,899.271,272.134Z" transform="translate(16.625 4.434)" fill="#3f322d"/>
      <path id="Tracé_1200" data-name="Tracé 1200" d="M899.179,271.217c1.328,1.053-9.435-1.347-13.667-3.287C885.512,267.93,897.1,269.568,899.179,271.217Z" transform="translate(13.998 4.83)" fill="#3f322d"/>
      <path id="Tracé_1201" data-name="Tracé 1201" d="M888.148,262.17l-.677,4.994,1.926-4.8Z" transform="translate(14.372 3.731)" fill="#f2d5b1"/>
      <path id="Tracé_1202" data-name="Tracé 1202" d="M839.975,264.891l1.333,7.95.509-8.157Z" transform="translate(5.303 4.211)" fill="#3f322d"/>
      <path id="Tracé_1203" data-name="Tracé 1203" d="M870.533,274.693l-1.093-3.2-1.491,2.861Z" transform="translate(10.644 5.51)" fill="#3f322d"/>
      <path id="Tracé_1204" data-name="Tracé 1204" d="M880.063,255.709l.819,3.282,1.726-2.726Z" transform="translate(12.957 2.497)" fill="#3f322d"/>
      <path id="Tracé_1205" data-name="Tracé 1205" d="M857.987,253.865l-.384,8.588,1.633-8.367Z" transform="translate(8.669 2.145)" fill="#f2d5b1"/>
      <path id="Tracé_1206" data-name="Tracé 1206" d="M845.873,257.807l-2.147-6.859.026,7.662Z" transform="translate(6.02 1.588)" fill="#fffeee"/>
      <path id="Tracé_1208" data-name="Tracé 1208" d="M825.363,257.176s-.381,7.932,5.11,10.409c0,0-5.484,7.483-5.121,13.361,0,0-4.217-1.259-3.245-12.939S825.363,257.176,825.363,257.176Z" transform="translate(1.864 2.774)" fill="#332723"/>
      <path id="Tracé_1209" data-name="Tracé 1209" d="M905.12,281.233c2.433-1.16,5.11-6.485,3.631-11.712,0,0-2.111,4.122-4.233,4.087A7.435,7.435,0,0,1,905.12,281.233Z" transform="translate(17.626 5.134)" fill="#332723"/>
    </g>
  </g>
</svg>
