<svg xmlns="http://www.w3.org/2000/svg" width="500" height="500" viewBox="0 0 500 500">
  <g id="Groupe_79" data-name="Groupe 79" transform="translate(-4532 1278)">
    <rect id="Rectangle_27" data-name="Rectangle 27" width="500" height="500" transform="translate(4532 -1278)" fill="#fff"/>
    <g id="Groupe_131" data-name="Groupe 131" transform="translate(4431.625 -1288.002)">
      <path id="Tracé_1574" data-name="Tracé 1574" d="M43.561,0C67.62,0,87.123,25.534,87.123,57.033s-19.5,57.033-43.561,57.033S0,88.531,0,57.033,19.5,0,43.561,0Z" transform="translate(148.198 171.002)" fill="#e8a791"/>
      <ellipse id="Ellipse_20" data-name="Ellipse 20" cx="28.981" cy="37.943" rx="28.981" ry="37.943" transform="translate(162.778 190.092)" fill="#ff895a"/>
      <path id="Tracé_1573" data-name="Tracé 1573" d="M43.561,0C67.62,0,87.123,25.534,87.123,57.033s-19.5,57.033-43.561,57.033S0,88.531,0,57.033,19.5,0,43.561,0Z" transform="translate(465.431 171.002)" fill="#e8a791"/>
      <path id="Tracé_1575" data-name="Tracé 1575" d="M28.981,0C44.986,0,57.961,16.988,57.961,37.943S44.986,75.885,28.981,75.885,0,58.9,0,37.943,12.975,0,28.981,0Z" transform="translate(480.012 190.092)" fill="#ff895a"/>
    </g>
    <path id="Tracé_1568" data-name="Tracé 1568" d="M944.851,425.658c-238.647,0-150.8,259.21-148.818,350.482,1.48,68.139,93.017,84.672,143.664,84.672,48.221,0,142.479-22.092,145.077-83.169C1090.077,652.9,1168.929,425.658,944.851,425.658Z" transform="translate(3841.44 -1660.813)" fill="#e8a791"/>
  </g>
</svg>
