<svg xmlns="http://www.w3.org/2000/svg" width="500" height="500" viewBox="0 0 500 500">
  <g id="Groupe_79" data-name="Groupe 79" transform="translate(-4532 1278)">
    <rect id="Rectangle_27" data-name="Rectangle 27" width="500" height="500" transform="translate(4532 -1278)" fill="#fff"/>
    <g id="Groupe_121" data-name="Groupe 121" transform="translate(4238.928 -1634.988)">
      <path id="Tracé_1548" data-name="Tracé 1548" d="M683.161,557.812c24.471-28.754,49.33-63.649,59.812-30.06,24.473,78.415-54.375,145.073-70.687,112.4S683.161,557.812,683.161,557.812Z" transform="translate(0 0)" fill="#e8a791"/>
      <path id="Tracé_1549" data-name="Tracé 1549" d="M683.762,555.04c16.515-20.79,33.161-45.9,41.326-22.546,19.054,54.535-34.778,103.248-47.019,80.668S683.762,555.04,683.762,555.04Z" transform="translate(8.129 11.033)" fill="#ff895a"/>
    </g>
    <g id="Groupe_122" data-name="Groupe 122" transform="translate(4573 -1121)">
      <path id="Tracé_1548-2" data-name="Tracé 1548" d="M731.556,557.812c-24.471-28.754-49.33-63.649-59.812-30.06-24.473,78.415,54.375,145.073,70.687,112.4S731.556,557.812,731.556,557.812Z" transform="translate(-667.072 -513.988)" fill="#e8a791"/>
      <path id="Tracé_1549-2" data-name="Tracé 1549" d="M719.163,555.04c-16.515-20.79-33.161-45.9-41.326-22.546-19.054,54.534,34.778,103.248,47.019,80.668S719.163,555.04,719.163,555.04Z" transform="translate(-663.41 -502.955)" fill="#ff895a"/>
    </g>
    <rect id="Rectangle_26" data-name="Rectangle 26" width="500" height="500" transform="translate(4532 -1278)" fill="none"/>
    <path id="Tracé_1111" data-name="Tracé 1111" d="M176,0c97.2,0,176,89.53,176,199.97S273.2,445.749,176,445.749,0,310.411,0,199.97,78.8,0,176,0Z" transform="translate(4606 -1245.749)" fill="#e8a791"/>
  </g>
</svg>
