<svg xmlns="http://www.w3.org/2000/svg" width="440" height="125" viewBox="0 0 440 125">
  <g id="EYES" transform="translate(0 -125)">
    <rect id="Rectangle_18" data-name="Rectangle 18" width="440" height="125" transform="translate(0 125)" fill="#14c9d0" opacity="0"/>
    <g id="Groupe_100" data-name="Groupe 100" transform="translate(-215.481 -11.26)">
      <g id="Groupe_98" data-name="Groupe 98" transform="translate(485.358 186.231)">
        <path id="Tracé_1402" data-name="Tracé 1402" d="M399.026,206.913c-2.558-1.079-6.191-4.53-6.2-5.521s9.738-7.926,9.738-7.926Z" transform="translate(-392.825 -178.374)" fill="#f45540"/>
        <path id="Tracé_1403" data-name="Tracé 1403" d="M426.8,213.725c2.891-.244,7.589-2.416,7.9-3.36s-5.647-10.279-5.647-10.279Z" transform="translate(-372.586 -174.432)" fill="#f45540"/>
        <path id="Tracé_1404" data-name="Tracé 1404" d="M448.413,218.67c2.409-15.723-8.171-31.362-22.443-33.55s-27.793,8.786-30.2,24.511,7.208,30.239,21.479,32.427A27.614,27.614,0,0,0,448.413,218.67Z" transform="translate(-391.292 -183.511)" fill="#f45540"/>
        <path id="Tracé_1405" data-name="Tracé 1405" d="M444.422,216.828c2.325-15.178-6.375-29.1-19.429-31.1s-25.524,8.683-27.847,23.86,6.772,26.483,19.828,28.484S442.1,232.006,444.422,216.828Z" transform="translate(-390.467 -183.13)" fill="#fffeee"/>
        <path id="Tracé_1406" data-name="Tracé 1406" d="M418.83,229.853c-13.056-2-22.042-14.04-19.717-29.219a32.192,32.192,0,0,1,1.876-6.947,31.536,31.536,0,0,0-3.841,11.012c-2.326,15.179,6.66,27.22,19.716,29.218,11.093,1.7,21.551-4.4,25.87-15.585A23.326,23.326,0,0,1,418.83,229.853Z" transform="translate(-390.469 -178.244)" fill="#f7e7d0"/>
        <path id="Tracé_1407" data-name="Tracé 1407" d="M425.813,209.027c.93-6.071-2.95-11.7-8.667-12.58s-11.1,3.336-12.034,9.408,2.95,11.7,8.668,12.58S424.881,215.1,425.813,209.027Z" transform="translate(-385.589 -176.668)" fill="#3f322d"/>
        <path id="Tracé_1408" data-name="Tracé 1408" d="M454.737,218.375c-4.01-14.662-11.414-29.4-25.926-31.619-13.052-2-31.35,6.277-35.607,18.722C411.222,202.06,441.364,205.891,454.737,218.375Z" transform="translate(-392.599 -182.549)" fill="#e05555" opacity="0.5" style="mix-blend-mode: multiply;isolation: isolate"/>
        <path id="Tracé_1409" data-name="Tracé 1409" d="M393.918,204.467c3.707-6.29,38.093-16.793,59.537,12.414,0,0-.621-28.615-25.007-32.352C400.04,180.18,393.918,204.467,393.918,204.467Z" transform="translate(-392.174 -184.008)" fill="#fb8"/>
        <path id="Tracé_1410" data-name="Tracé 1410" d="M394.6,196.938a46.506,46.506,0,0,0-1.734,5.395c3.863-6.556,39.712-17.507,62.072,12.941,0,0,.056-1.829-.105-4.736C434.207,185.115,404.083,190.7,394.6,196.938Z" transform="translate(-392.801 -179.447)" fill="#ff9769"/>
        <path id="Tracé_1411" data-name="Tracé 1411" d="M422.086,206.132c.341-2.22-.779-4.232-2.5-4.495s-3.391,1.32-3.731,3.541.777,4.233,2.5,4.495S421.746,208.351,422.086,206.132Z" transform="translate(-379.145 -173.525)" fill="#fffeee"/>
        <path id="Tracé_1412" data-name="Tracé 1412" d="M416.853,200.267c-.394-1.235-1.289-2.054-2-1.827s-.962,1.412-.566,2.647,1.289,2.054,2,1.829S417.249,201.5,416.853,200.267Z" transform="translate(-380.15 -175.434)" fill="#fffeee"/>
      </g>
      <g id="Groupe_99" data-name="Groupe 99" transform="translate(323.097 180.277)">
        <path id="Tracé_1413" data-name="Tracé 1413" d="M331.379,210.237c-2.9-.112-7.731-2.153-8.1-3.119s6.617-11.348,6.617-11.348Z" transform="translate(-322.999 -171.049)" fill="#f45540"/>
        <path id="Tracé_1414" data-name="Tracé 1414" d="M361.352,205.654c2.741-1.3,6.542-5.162,6.5-6.2s-9.312-7.991-9.312-7.991Z" transform="translate(-301.985 -173.613)" fill="#f45540"/>
        <path id="Tracé_1415" data-name="Tracé 1415" d="M381.887,206.521c-3.432-16.287-19.555-27.707-34.337-24.594S323.568,200.767,327,217.052s18.194,26.965,32.976,23.85A28.892,28.892,0,0,0,381.887,206.521Z" transform="translate(-321.2 -179.599)" fill="#f45540"/>
        <path id="Tracé_1416" data-name="Tracé 1416" d="M377.4,205.858c-3.312-15.72-16.958-26.154-30.48-23.306s-21.8,17.9-18.489,33.622,16.387,23.442,29.909,20.593S380.712,221.58,377.4,205.858Z" transform="translate(-320.353 -179.201)" fill="#fffeee"/>
        <path id="Tracé_1417" data-name="Tracé 1417" d="M358.928,224.656c-13.521,2.848-26.757-5.637-30.068-21.356a33.662,33.662,0,0,1-.721-7.5,33.018,33.018,0,0,0,.292,12.2c3.311,15.722,16.547,24.2,30.068,21.358,11.492-2.421,19.486-12.25,19.6-24.791A24.407,24.407,0,0,1,358.928,224.656Z" transform="translate(-320.351 -171.03)" fill="#f7e7d0"/>
        <path id="Tracé_1418" data-name="Tracé 1418" d="M358.215,202.822c-1.324-6.288-7.2-10.376-13.119-9.129s-9.646,7.356-8.321,13.644,7.2,10.376,13.118,9.13S359.54,209.111,358.215,202.822Z" transform="translate(-315.109 -172.419)" fill="#3f322d"/>
        <path id="Tracé_1419" data-name="Tracé 1419" d="M388.635,204.594c-9.327-12.883-22-24.587-37.033-21.421-13.52,2.848-28.393,17.692-27.98,31.447C340.011,204.639,370.942,197.291,388.635,204.594Z" transform="translate(-322.789 -178.864)" fill="#e05555" opacity="0.5" style="mix-blend-mode: multiply;isolation: isolate"/>
        <path id="Tracé_1420" data-name="Tracé 1420" d="M323.779,213.2c1.315-7.525,31.123-30.472,62.881-9.767,0,0-11.144-27.794-36.4-22.475C320.831,187.153,323.779,213.2,323.779,213.2Z" transform="translate(-322.739 -180.277)" fill="#fb8"/>
        <path id="Tracé_1421" data-name="Tracé 1421" d="M323.1,205.2a49,49,0,0,0,.287,5.921c1.369-7.844,32.447-31.771,65.559-10.183,0,0-.619-1.813-1.846-4.6C357.536,179.032,330.088,195.593,323.1,205.2Z" transform="translate(-323.097 -175.207)" fill="#ff9769"/>
        <path id="Tracé_1422" data-name="Tracé 1422" d="M353.822,201.11c-.484-2.3-2.322-3.858-4.106-3.482s-2.835,2.543-2.352,4.843,2.323,3.858,4.106,3.483S354.306,203.409,353.822,201.11Z" transform="translate(-308.711 -169.975)" fill="#fffeee"/>
        <path id="Tracé_1423" data-name="Tracé 1423" d="M347.571,196.414c-.755-1.128-1.889-1.693-2.537-1.261s-.56,1.7.2,2.826,1.888,1.693,2.536,1.262S348.326,197.544,347.571,196.414Z" transform="translate(-310.288 -171.503)" fill="#fffeee"/>
      </g>
    </g>
  </g>
</svg>
