<svg xmlns="http://www.w3.org/2000/svg" width="440" height="125" viewBox="0 0 440 125">
  <g id="EYES" transform="translate(0 -125)">
    <path id="Tracé_1565" data-name="Tracé 1565" d="M0,0H440V125H0Z" transform="translate(0 125)" fill="#14c9d0" opacity="0"/>
    <g id="Groupe_120" data-name="Groupe 120" transform="translate(-695.275 -316.585)">
      <g id="Groupe_118" data-name="Groupe 118" transform="translate(973.37 504.605)">
        <path id="Tracé_1544" data-name="Tracé 1544" d="M933.164,542.577c-34.455,1.4-62.225-4.43-60.02-8.114s8.881-17.609,21.416-24.769,28.78-.067,28.78-.067S878.309,532.725,879.38,534,933.164,542.577,933.164,542.577Z" transform="translate(-873.022 -506.49)" fill="#ff9769"/>
        <path id="Tracé_1545" data-name="Tracé 1545" d="M917.669,521.2c-2.031,2.393-37.526,2.955-37.526,2.955S924.129,513.6,917.669,521.2Z" transform="translate(-867.639 -497.449)" fill="#ff9769"/>
      </g>
      <g id="Groupe_119" data-name="Groupe 119" transform="translate(797.038 504.085)">
        <path id="Tracé_1546" data-name="Tracé 1546" d="M802.211,540.9c29.935-3.433,53.079-8.639,53.038-12.895-.025-2.537-5.8-16.008-17.809-21.739s-29.519,1.608-29.519,1.608,42.126,16.213,42.061,19.342C849.92,530.245,802.211,540.9,802.211,540.9Z" transform="translate(-802.211 -504.085)" fill="#ff9769"/>
        <path id="Tracé_1547" data-name="Tracé 1547" d="M811.05,517.95c1.938,2.29,34.871,1.2,34.871,1.2S804.891,510.672,811.05,517.95Z" transform="translate(-796.006 -495.835)" fill="#ff9769"/>
      </g>
    </g>
    <g id="Groupe_130" data-name="Groupe 130" transform="translate(-681.898 -329.661)">
      <path id="Tracé_1566" data-name="Tracé 1566" d="M858.218,490.124a5.834,5.834,0,0,0-6.288-3.38c-11.045,1.439-29.6.557-41.627-5.626a4.918,4.918,0,0,0-5.853,1.162c-1.967,2.264-4.13,5.29-3.41,6.994,1.942,4.611,36.385,23.5,55.672,15.362C861.968,502.053,860.106,494.788,858.218,490.124Z" transform="translate(0 2.407)" fill="#ad563b"/>
      <path id="Tracé_1567" data-name="Tracé 1567" d="M866.164,492.678c.156-3.17,2.062-5.171,4.645-4.891,10.342,1.131,26.742-1.316,35.712-10.3,1.434-1.437,3.813-.959,5.594,1.125,2.437,2.852,5.272,6.689,5.134,8.984-.383,6.214-25.724,33.5-45.443,24.107C866.323,508.659,865.845,498.956,866.164,492.678Z" transform="translate(77.726 0.881)" fill="#ad563b"/>
    </g>
  </g>
</svg>
