<svg xmlns="http://www.w3.org/2000/svg" width="440" height="125" viewBox="0 0 440 125">
  <g id="EYES" transform="translate(0 -125)">
    <rect id="Rectangle_18" data-name="Rectangle 18" width="440" height="125" transform="translate(0 125)" fill="#14c9d0" opacity="0"/>
    <g id="Groupe_114" data-name="Groupe 114" transform="translate(-204.101 -313.922)">
      <g id="Groupe_111" data-name="Groupe 111" transform="translate(476.154 489.85)">
        <g id="Groupe_110" data-name="Groupe 110" transform="translate(0.751)">
          <path id="Tracé_1494" data-name="Tracé 1494" d="M419.394,516.389c2.525-.058,6.758-1.752,7.1-2.582s-5.572-9.872-5.572-9.872Z" transform="translate(-369.641 -482.253)" fill="#f45540"/>
          <path id="Tracé_1495" data-name="Tracé 1495" d="M393.442,511.956c-2.361-1.159-5.6-4.541-5.55-5.431s8.224-6.764,8.224-6.764Z" transform="translate(-387.892 -484.671)" fill="#f45540"/>
          <path id="Tracé_1496" data-name="Tracé 1496" d="M390.976,512.472c3.246-13.995,17.442-23.625,30.241-20.742s20.544,16.567,17.3,30.564-16.25,23-29.049,20.118A24.829,24.829,0,0,1,390.976,512.472Z" transform="translate(-386.492 -489.619)" fill="#f45540"/>
          <path id="Tracé_1497" data-name="Tracé 1497" d="M393,511.955c3.132-13.511,15.162-22.321,26.868-19.687S438.529,508,435.4,521.51s-14.622,19.99-26.331,17.352S389.866,525.465,393,511.955Z" transform="translate(-385.347 -489.281)" fill="#fffeee"/>
          <path id="Tracé_1498" data-name="Tracé 1498" d="M408.621,528.416c11.708,2.641,23.351-4.5,26.481-18.008a28.716,28.716,0,0,0,.747-6.453,28.253,28.253,0,0,1-.449,10.515c-3.133,13.511-14.775,20.645-26.483,18.009-9.948-2.243-16.74-10.822-16.635-21.639A21.032,21.032,0,0,0,408.621,528.416Z" transform="translate(-385.348 -482.241)" fill="#f7e7d0"/>
          <path id="Tracé_1499" data-name="Tracé 1499" d="M400.472,509.632a9.864,9.864,0,0,1,11.551-7.695,9.719,9.719,0,0,1,7.014,11.877,9.866,9.866,0,0,1-11.551,7.7A9.721,9.721,0,0,1,400.472,509.632Z" transform="translate(-380.763 -483.539)" fill="#3f322d"/>
          <path id="Tracé_1500" data-name="Tracé 1500" d="M387.9,510.762c8.314-10.981,19.522-20.9,32.536-17.968,11.706,2.638,24.395,15.637,23.813,27.492C436.922,506.5,403.047,502.422,387.9,510.762Z" transform="translate(-387.884 -489.009)" fill="#e05555" opacity="0.5" style="mix-blend-mode: multiply;isolation: isolate"/>
          <path id="Tracé_1501" data-name="Tracé 1501" d="M443.49,519.034c-1.235-11.052-26.912-32.426-54.5-9.269,0,0,10.135-23.813,32.005-18.887C446.473,496.621,443.49,519.034,443.49,519.034Z" transform="translate(-387.255 -490.206)" fill="#fb8"/>
          <path id="Tracé_1502" data-name="Tracé 1502" d="M445.072,515.609a42.127,42.127,0,0,1-.347,5.106c-.9-17.161-44.6-22.217-56.82-9.669,0,0,.567-1.551,1.679-3.942C415.472,478.791,439.165,494.534,445.072,515.609Z" transform="translate(-387.884 -489.293)" fill="#ff9769"/>
          <path id="Tracé_1503" data-name="Tracé 1503" d="M399.305,508.211c.458-1.974,2.08-3.3,3.625-2.949s2.423,2.233,1.966,4.207-2.082,3.3-3.625,2.949S398.847,510.185,399.305,508.211Z" transform="translate(-381.349 -481.516)" fill="#fffeee"/>
          <path id="Tracé_1504" data-name="Tracé 1504" d="M403.844,504.211c.674-.962,1.669-1.431,2.225-1.052s.46,1.472-.215,2.434-1.671,1.434-2.225,1.055S403.17,505.178,403.844,504.211Z" transform="translate(-378.983 -482.778)" fill="#fffeee"/>
        </g>
        <path id="Tracé_1505" data-name="Tracé 1505" d="M388.187,503.98s30.014,3.573,47.872,24.579c0,0-16.384,18.878-34.888,6.068S388.187,503.98,388.187,503.98Z" transform="translate(-387.416 -482.226)" fill="#fb8"/>
      </g>
      <g id="Groupe_113" data-name="Groupe 113" transform="translate(314.11 489.85)">
        <g id="Groupe_112" data-name="Groupe 112">
          <path id="Tracé_1506" data-name="Tracé 1506" d="M326.779,512.693c-2.445-.433-6.3-2.721-6.5-3.585s6.924-8.84,6.924-8.84Z" transform="translate(-320.272 -482.235)" fill="#f45540"/>
          <path id="Tracé_1507" data-name="Tracé 1507" d="M352.524,512.581c2.475-.783,6.142-3.609,6.227-4.492s-6.96-7.851-6.96-7.851Z" transform="translate(-302.012 -482.252)" fill="#f45540"/>
          <path id="Tracé_1508" data-name="Tracé 1508" d="M370.866,514.528c-1.012-14.189-13.338-25.735-26.217-24.816s-22.5,13.169-21.485,27.359,12.273,24.944,25.153,24.025A24.692,24.692,0,0,0,370.866,514.528Z" transform="translate(-318.64 -488.38)" fill="#f45540"/>
          <path id="Tracé_1509" data-name="Tracé 1509" d="M367.086,513.552c-.976-13.7-11.321-24.118-23.1-23.276S323.444,502.9,324.421,516.6s11.152,21.752,22.934,20.911S368.063,527.251,367.086,513.552Z" transform="translate(-317.912 -488.051)" fill="#fffeee"/>
          <path id="Tracé_1510" data-name="Tracé 1510" d="M348.312,528.374c-11.782.842-22-7.883-22.981-21.579a28.754,28.754,0,0,1,.261-6.434,28.209,28.209,0,0,0-1.17,10.368c.978,13.7,11.2,22.419,22.981,21.577,10.011-.715,17.924-8.107,19.477-18.715A20.864,20.864,0,0,1,348.312,528.374Z" transform="translate(-317.912 -482.181)" fill="#f7e7d0"/>
          <path id="Tracé_1511" data-name="Tracé 1511" d="M350.521,509.381c-.39-5.474-4.89-9.62-10.048-9.253s-9.024,5.108-8.633,10.59,4.89,9.625,10.049,9.255S350.912,514.863,350.521,509.381Z" transform="translate(-313.586 -482.329)" fill="#3f322d"/>
          <path id="Tracé_1512" data-name="Tracé 1512" d="M376.817,513.4c-6.4-11.994-15.775-23.376-28.87-22.441-11.78.839-26.1,11.684-27.348,23.378C332.111,493.767,359.467,492.237,376.817,513.4Z" transform="translate(-320.084 -487.66)" fill="#e05555" opacity="0.5" style="mix-blend-mode: multiply;isolation: isolate"/>
          <path id="Tracé_1513" data-name="Tracé 1513" d="M320.917,513.144c2.892-10.635,31.115-27.746,54.383-.962,0,0-6.208-24.832-28.217-23.261C321.448,490.75,320.917,513.144,320.917,513.144Z" transform="translate(-319.899 -488.85)" fill="#ff9769"/>
          <path id="Tracé_1514" data-name="Tracé 1514" d="M320.738,509.758a42.1,42.1,0,0,0-.444,5.046c3.5-16.67,33.3-36.161,56.7-1,0,0-.313-1.6-1.03-4.113C355.133,478.1,329.7,490,320.738,509.758Z" transform="translate(-320.26 -488.06)" fill="#ff9769"/>
          <path id="Tracé_1515" data-name="Tracé 1515" d="M346.747,507.779c-.144-2.006-1.518-3.539-3.072-3.427s-2.7,1.826-2.554,3.827,1.519,3.539,3.072,3.427S346.889,509.78,346.747,507.779Z" transform="translate(-308.2 -479.872)" fill="#fffeee"/>
          <path id="Tracé_1516" data-name="Tracé 1516" d="M341.857,503.134c-.507-1.046-1.4-1.654-2-1.363s-.671,1.372-.164,2.415,1.406,1.654,2,1.365S342.365,504.178,341.857,503.134Z" transform="translate(-309.217 -481.406)" fill="#fffeee"/>
        </g>
        <path id="Tracé_1517" data-name="Tracé 1517" d="M374.583,504.93c-13.508,12.441-26.475,17.6-50.141,16.771,0,0,12.884,20.972,32.784,11.247S374.583,504.93,374.583,504.93Z" transform="translate(-317.857 -479.534)" fill="#fb8"/>
      </g>
    </g>
    <g id="Groupe_128" data-name="Groupe 128" transform="translate(-213.209 -321.277)">
      <path id="Tracé_1561" data-name="Tracé 1561" d="M355.544,458.984a5.949,5.949,0,0,0-7.293,1.531c-6.831,8.589-20.985,20.375-34.706,23.527a4.328,4.328,0,0,0-3.295,4.867c.412,3.138,1.3,7.012,3.2,7.891,5.149,2.376,45.4-5.7,52.77-25.2C367.928,466,360.693,461.443,355.544,458.984Z" transform="translate(0 0)" fill="#ad563b"/>
      <path id="Tracé_1562" data-name="Tracé 1562" d="M385.294,490.07a6.387,6.387,0,0,0,7.317,2.782c11.149-3.41,30.643-5.426,44.572-.42A4.753,4.753,0,0,0,443,490.18c1.523-2.871,3.069-6.625,1.929-8.425-3.087-4.877-43.255-20.546-61.423-8.259C378.641,477.256,382.253,485.125,385.294,490.07Z" transform="translate(103.04 -3.235)" fill="#ad563b"/>
    </g>
  </g>
</svg>
