<svg xmlns="http://www.w3.org/2000/svg" width="440" height="125" viewBox="0 0 440 125">
  <g id="EYES" transform="translate(0 -125)">
    <rect id="Rectangle_18" data-name="Rectangle 18" width="440" height="125" transform="translate(0 125)" fill="#14c9d0" opacity="0"/>
    <g id="Groupe_109" data-name="Groupe 109" transform="translate(33.525 -315.124)">
      <g id="Groupe_107" data-name="Groupe 107" transform="translate(244.823 487.393)">
        <path id="Tracé_1469" data-name="Tracé 1469" d="M154.6,515.341c-2.275-1.04-5.878-4.658-5.493-5.64,4.595-11.694,14.655-19.174,14.655-19.174Z" transform="translate(-149.078 -483.691)" fill="#f45540"/>
        <path id="Tracé_1470" data-name="Tracé 1470" d="M178.12,520.613c2.586-.388,7.1-2.884,7.088-3.946-.037-5.189-6.63-19.912-6.63-19.912Z" transform="translate(-129.79 -479.554)" fill="#f45540"/>
        <path id="Tracé_1471" data-name="Tracé 1471" d="M198.589,522.37c2.283-16.953-7.039-33.246-19.772-34.962S153.914,498.048,151.63,515s6.187,32.086,18.92,33.8S196.306,539.324,198.589,522.37Z" transform="translate(-147.63 -485.869)" fill="#f45540"/>
        <path id="Tracé_1472" data-name="Tracé 1472" d="M194.985,520.513c2.2-16.365-5.452-30.9-17.1-32.474s-22.875,10.428-25.079,26.793,5.831,28.076,17.477,29.645S192.782,536.878,194.985,520.513Z" transform="translate(-146.842 -485.435)" fill="#fffeee"/>
        <path id="Tracé_1473" data-name="Tracé 1473" d="M171.971,534.864C160.325,533.3,152.4,520.787,154.6,504.421a41.53,41.53,0,0,1,1.736-7.53,40.214,40.214,0,0,0-3.525,11.97c-2.2,16.365,5.723,28.875,17.372,30.442,9.9,1.333,19.289-5.665,23.242-17.841C188.831,530.86,180.591,536.024,171.971,534.864Z" transform="translate(-146.844 -479.465)" fill="#f7e7d0"/>
        <path id="Tracé_1474" data-name="Tracé 1474" d="M182.635,514.624c1.24-9.211-3.342-17.432-10.233-18.362s-13.486,5.786-14.726,15,3.34,17.432,10.235,18.361S181.394,523.835,182.635,514.624Z" transform="translate(-143.502 -479.939)" fill="#3f322d"/>
        <path id="Tracé_1475" data-name="Tracé 1475" d="M204.288,521.786c-3.461-15.536-9.952-31-22.9-32.742-11.646-1.568-28.061,8.109-31.97,21.631C166.047,485.484,192.983,482.78,204.288,521.786Z" transform="translate(-148.851 -484.787)" fill="#e05555" opacity="0.5" style="mix-blend-mode: multiply;isolation: isolate"/>
        <path id="Tracé_1476" data-name="Tracé 1476" d="M150.044,509.607c8.53-20.083,41.018-36.756,53.088,10.682,0,0-.316-30.632-22.073-33.564C155.717,483.313,150.044,509.607,150.044,509.607Z" transform="translate(-148.436 -486.419)" fill="#ff9769"/>
        <path id="Tracé_1477" data-name="Tracé 1477" d="M150.724,505.66a59.971,59.971,0,0,0-1.594,5.858c7.958-19.307,41.9-37.577,55.35,11.135,0,0,.065-1.962-.055-5.074C192.864,473.724,164.412,485.386,150.724,505.66Z" transform="translate(-149.043 -485.655)" fill="#ff9769"/>
        <path id="Tracé_1478" data-name="Tracé 1478" d="M174.706,512.269c.323-2.4-.662-4.5-2.2-4.71s-3.044,1.566-3.365,3.959.661,4.5,2.2,4.71S174.383,514.661,174.706,512.269Z" transform="translate(-135.791 -472.39)" fill="#fffeee"/>
        <path id="Tracé_1479" data-name="Tracé 1479" d="M171.62,504.235c-.343-1.306-1.135-2.142-1.769-1.869s-.87,1.553-.529,2.861,1.137,2.143,1.771,1.869S171.964,505.542,171.62,504.235Z" transform="translate(-135.737 -475.862)" fill="#fffeee"/>
      </g>
      <g id="Groupe_108" data-name="Groupe 108" transform="translate(84.251 484.874)">
        <path id="Tracé_1480" data-name="Tracé 1480" d="M113.938,514c2.346-1.015,6.094-4.6,5.718-5.582C115.158,496.673,105,489.076,105,489.076Z" transform="translate(-62.783 -482.084)" fill="#f45540"/>
        <path id="Tracé_1481" data-name="Tracé 1481" d="M86.824,518.945c-2.638-.416-7.207-2.964-7.182-4.027.126-5.187,7.126-19.843,7.126-19.843Z" transform="translate(-79.622 -478.1)" fill="#f45540"/>
        <path id="Tracé_1482" data-name="Tracé 1482" d="M82.5,520.58c-2.042-16.983,7.775-33.175,20.829-34.746s25.292,10.925,27.337,27.911-6.885,32.025-19.937,33.594S84.539,537.566,82.5,520.58Z" transform="translate(-77.905 -484.325)" fill="#f45540"/>
        <path id="Tracé_1483" data-name="Tracé 1483" d="M84.252,518.756c-1.97-16.4,6.111-30.852,18.051-32.288s23.222,10.691,25.194,27.084-6.45,28.018-18.392,29.456S86.226,535.151,84.252,518.756Z" transform="translate(-76.756 -483.892)" fill="#fffeee"/>
        <path id="Tracé_1484" data-name="Tracé 1484" d="M106.739,533.283c11.942-1.436,20.268-13.859,18.3-30.253a40.575,40.575,0,0,0-1.644-7.552,39.364,39.364,0,0,1,3.4,12.013c1.974,16.4-6.354,28.815-18.294,30.251-10.148,1.225-19.637-5.883-23.471-18.108C89.563,529.091,97.9,534.346,106.739,533.283Z" transform="translate(-76.048 -477.832)" fill="#f7e7d0"/>
        <path id="Tracé_1485" data-name="Tracé 1485" d="M89.742,512.96c-1.112-9.228,3.716-17.4,10.784-18.249s13.7,5.941,14.806,15.172-3.719,17.4-10.785,18.251S90.852,522.188,89.742,512.96Z" transform="translate(-73.02 -478.389)" fill="#3f322d"/>
        <path id="Tracé_1486" data-name="Tracé 1486" d="M79.631,519.954c3.808-15.5,10.715-30.9,23.989-32.494,11.94-1.436,28.567,8.432,32.331,22C119.767,484.031,92.272,481.071,79.631,519.954Z" transform="translate(-79.629 -483.249)" fill="#e05555" opacity="0.5" style="mix-blend-mode: multiply;isolation: isolate"/>
        <path id="Tracé_1487" data-name="Tracé 1487" d="M134.61,508.375c-8.381-20.188-41.324-37.235-54.491,10.08,0,0,.852-30.637,23.158-33.323C129.261,482,134.61,508.375,134.61,508.375Z" transform="translate(-79.305 -484.874)" fill="#ff9769"/>
        <path id="Tracé_1488" data-name="Tracé 1488" d="M134.915,504.429a59.21,59.21,0,0,1,1.531,5.876c-7.808-19.4-42.211-38.061-56.814,10.512,0,0-.032-1.967.143-5.074C92.359,472,121.261,483.995,134.915,504.429Z" transform="translate(-79.63 -484.113)" fill="#ff9769"/>
        <path id="Tracé_1489" data-name="Tracé 1489" d="M89.776,510.647c-.288-2.4.756-4.5,2.33-4.685s3.085,1.6,3.373,4-.754,4.495-2.328,4.685S90.066,513.045,89.776,510.647Z" transform="translate(-72.923 -470.877)" fill="#fffeee"/>
        <path id="Tracé_1490" data-name="Tracé 1490" d="M91.812,502.637c.373-1.3,1.2-2.132,1.842-1.849s.864,1.563.491,2.869-1.2,2.13-1.842,1.851S91.44,503.94,91.812,502.637Z" transform="translate(-71.659 -474.342)" fill="#fffeee"/>
      </g>
      <path id="Tracé_1491" data-name="Tracé 1491" d="M181.98,516.94c4.135,1.182,7.68,5.021,5.908,5.908S181.98,516.94,181.98,516.94Z" transform="translate(72.597 21.297)" fill="#6fbdbf"/>
      <path id="Tracé_1492" data-name="Tracé 1492" d="M85.469,522.07c-.158,4.3-3.039,8.659-4.323,7.151S85.469,522.07,85.469,522.07Z" transform="translate(5.501 24.704)" fill="#6fbdbf"/>
      <path id="Tracé_1493" data-name="Tracé 1493" d="M81.023,508.458c-3.563,2.406-8.783,2.649-8.322.722S81.023,508.458,81.023,508.458Z" transform="translate(0 15.417)" fill="#6fbdbf"/>
    </g>
  </g>
</svg>
