<svg xmlns="http://www.w3.org/2000/svg" width="440" height="125" viewBox="0 0 440 125">
  <g id="EYES" transform="translate(0 -125)">
    <rect id="Rectangle_18" data-name="Rectangle 18" width="440" height="125" transform="translate(0 125)" fill="#14c9d0" opacity="0"/>
    <g id="Groupe_97" data-name="Groupe 97" transform="translate(43.533 -10.903)">
      <g id="Groupe_95" data-name="Groupe 95" transform="translate(64.082 179.92)">
        <path id="Tracé_1380" data-name="Tracé 1380" d="M87.582,203.508c-2.865-.636-7.3-3.534-7.5-4.561s8.624-10.092,8.624-10.092Z" transform="translate(-80.082 -168.648)" fill="#f45540"/>
        <path id="Tracé_1381" data-name="Tracé 1381" d="M112.171,204.6c2.96-.8,7.435-3.953,7.582-4.993s-7.824-9.623-7.824-9.623Z" transform="translate(-52.686 -167.673)" fill="#f45540"/>
        <path id="Tracé_1382" data-name="Tracé 1382" d="M139.381,209.41c-.478-16.811-14.452-31.07-29.71-30.637S82.43,193.187,82.909,210s13.236,30.084,28.5,29.651A29.192,29.192,0,0,0,139.381,209.41Z" transform="translate(-77.662 -177.329)" fill="#f45540"/>
        <path id="Tracé_1383" data-name="Tracé 1383" d="M134.723,208c-.463-16.231-12.153-29.059-26.111-28.663s-24.9,13.874-24.438,30.1S96.248,235.7,110.207,235.3,135.184,224.233,134.723,208Z" transform="translate(-76.574 -176.84)" fill="#fffeee"/>
        <path id="Tracé_1384" data-name="Tracé 1384" d="M111.5,223.2c-13.957.4-25.591-10.421-26.053-26.65a33.99,33.99,0,0,1,.632-7.582,33.383,33.383,0,0,0-1.907,12.185c.463,16.229,12.1,27.048,26.055,26.648,11.861-.339,21.581-8.669,23.951-21.119A24.661,24.661,0,0,1,111.5,223.2Z" transform="translate(-76.574 -168.55)" fill="#f7e7d0"/>
        <path id="Tracé_1385" data-name="Tracé 1385" d="M113.764,200.691c-.184-6.492-5.289-11.615-11.4-11.441s-10.918,5.579-10.732,12.069,5.289,11.614,11.4,11.441S113.948,207.183,113.764,200.691Z" transform="translate(-70.151 -168.312)" fill="#3f322d"/>
        <path id="Tracé_1386" data-name="Tracé 1386" d="M146.861,208.04c-6.952-14.491-17.451-28.41-32.965-27.969-13.957.4-31.418,12.482-33.483,26.231C98.513,191.115,130.591,189.867,146.861,208.04Z" transform="translate(-79.798 -176.214)" fill="#e05555" opacity="0.5" style="mix-blend-mode: multiply;isolation: isolate"/>
        <path id="Tracé_1387" data-name="Tracé 1387" d="M80.8,205.3c3.951-12.421,38.152-31.2,64.281,1.607,0,0-6.077-29.641-32.153-28.9C82.556,178.871,80.8,205.3,80.8,205.3Z" transform="translate(-79.467 -177.993)" fill="#fb8"/>
        <path id="Tracé_1388" data-name="Tracé 1388" d="M80.885,198.629a49.533,49.533,0,0,0-.779,5.942c3.22-13.5,39.156-33.9,67.019,1.68,0,0-.288-1.914-1.006-4.909C121.355,170.184,90.871,182.7,80.885,198.629Z" transform="translate(-80.062 -174.425)" fill="#ff9769"/>
        <path id="Tracé_1389" data-name="Tracé 1389" d="M107.61,197.923c-.067-2.37-1.615-4.253-3.455-4.2s-3.278,2.017-3.211,4.39,1.615,4.256,3.456,4.2S107.677,200.3,107.61,197.923Z" transform="translate(-62.137 -164.46)" fill="#fffeee"/>
        <path id="Tracé_1390" data-name="Tracé 1390" d="M102.306,192.723c-.547-1.259-1.574-2.026-2.3-1.711s-.861,1.585-.314,2.846,1.576,2.022,2.3,1.71S102.855,193.979,102.306,192.723Z" transform="translate(-63.496 -166.854)" fill="#fffeee"/>
      </g>
      <g id="Groupe_96" data-name="Groupe 96" transform="translate(224.882 182.794)">
        <path id="Tracé_1391" data-name="Tracé 1391" d="M156.53,205.1c-2.738-.567-7.006-3.274-7.207-4.253s8.09-9.735,8.09-9.735Z" transform="translate(-149.32 -171.506)" fill="#f45540"/>
        <path id="Tracé_1392" data-name="Tracé 1392" d="M180.051,205.771c2.815-.8,7.037-3.869,7.164-4.859s-7.586-9.071-7.586-9.071Z" transform="translate(-123.247 -170.881)" fill="#f45540"/>
        <path id="Tracé_1393" data-name="Tracé 1393" d="M205.877,210.165c-.677-16.024-14.188-29.437-28.732-28.823s-25.783,14.1-25.106,30.125,13.014,28.514,27.558,27.9A27.838,27.838,0,0,0,205.877,210.165Z" transform="translate(-147.006 -179.93)" fill="#f45540"/>
        <path id="Tracé_1394" data-name="Tracé 1394" d="M201.424,208.871c-.655-15.468-11.969-27.55-25.271-26.989s-23.56,13.558-22.907,29.024,11.855,24.879,25.16,24.315S202.077,224.339,201.424,208.871Z" transform="translate(-145.968 -179.464)" fill="#fffeee"/>
        <path id="Tracé_1395" data-name="Tracé 1395" d="M179.59,223.523c-13.3.564-24.537-9.6-25.191-25.067a32.434,32.434,0,0,1,.506-7.238,31.808,31.808,0,0,0-1.659,11.641c.655,15.466,11.887,25.631,25.192,25.067,11.3-.476,20.463-8.55,22.559-20.452A23.517,23.517,0,0,1,179.59,223.523Z" transform="translate(-145.968 -171.417)" fill="#f7e7d0"/>
        <path id="Tracé_1396" data-name="Tracé 1396" d="M181.448,202.085c-.262-6.187-5.2-11-11.02-10.758s-10.336,5.462-10.073,11.649,5.2,11.005,11.02,10.76S181.711,208.272,181.448,202.085Z" transform="translate(-139.837 -171.331)" fill="#3f322d"/>
        <path id="Tracé_1397" data-name="Tracé 1397" d="M213.013,208.8c-6.818-13.725-17.01-26.86-31.8-26.235-13.3.564-29.792,12.311-31.581,25.45C163.536,196.6,193.657,195.825,213.013,208.8Z" transform="translate(-149.05 -178.879)" fill="#e05555" opacity="0.5" style="mix-blend-mode: multiply;isolation: isolate"/>
        <path id="Tracé_1398" data-name="Tracé 1398" d="M149.981,207.046c3.605-11.893,35.97-30.251,61.314.692,0,0-6.183-28.185-31.035-27.135C151.313,181.826,149.981,207.046,149.981,207.046Z" transform="translate(-148.751 -180.574)" fill="#fb8"/>
        <path id="Tracé_1399" data-name="Tracé 1399" d="M150.008,200.678a47.017,47.017,0,0,0-.666,5.676c2.891-8.4,36.811-25.709,63.922.722,0,0-.3-1.821-1.023-4.667C188.221,173.022,159.319,185.352,150.008,200.678Z" transform="translate(-149.301 -177.155)" fill="#ff9769"/>
        <path id="Tracé_1400" data-name="Tracé 1400" d="M175.589,199.483c-.095-2.26-1.594-4.035-3.348-3.96s-3.1,1.968-3,4.23,1.594,4.035,3.348,3.96S175.686,201.745,175.589,199.483Z" transform="translate(-132.19 -167.716)" fill="#fffeee"/>
        <path id="Tracé_1401" data-name="Tracé 1401" d="M170.481,194.578c-.536-1.192-1.527-1.91-2.21-1.6s-.8,1.525-.262,2.716,1.527,1.91,2.21,1.6S171.02,195.77,170.481,194.578Z" transform="translate(-133.535 -169.966)" fill="#fffeee"/>
      </g>
    </g>
  </g>
</svg>
