<svg xmlns="http://www.w3.org/2000/svg" width="440" height="125" viewBox="0 0 440 125">
  <g id="EYES" transform="translate(0 -125)">
    <rect id="Rectangle_18" data-name="Rectangle 18" width="440" height="125" transform="translate(0 125)" fill="#14c9d0" opacity="0"/>
    <g id="Groupe_106" data-name="Groupe 106" transform="translate(-703.063 -6.355)">
      <g id="Groupe_104" data-name="Groupe 104" transform="translate(814.18 176.105)">
        <path id="Tracé_1447" data-name="Tracé 1447" d="M819.391,196.553c-2.353-1.5-5.368-5.539-5.205-6.522s11-6.2,11-6.2Z" transform="translate(-814.18 -171.761)" fill="#f45540"/>
        <path id="Tracé_1448" data-name="Tracé 1448" d="M846.8,208.745c2.9.253,7.93-1.1,8.4-1.982s-3.844-11.146-3.844-11.146Z" transform="translate(-795.841 -165.137)" fill="#f45540"/>
        <path id="Tracé_1449" data-name="Tracé 1449" d="M867.9,215.5c5.058-15.17-2.768-32.466-16.537-37.057s-29.031,3.983-34.091,19.152,2,31.19,15.771,35.781A27.756,27.756,0,0,0,867.9,215.5Z" transform="translate(-813.361 -175.49)" fill="#f45540"/>
        <path id="Tracé_1450" data-name="Tracé 1450" d="M864.217,213.111c4.885-14.642-1.37-29.92-13.961-34.12S823.489,183.255,818.6,197.9s2.212,27.389,14.806,31.591S859.332,227.753,864.217,213.111Z" transform="translate(-812.566 -175.089)" fill="#fffeee"/>
        <path id="Tracé_1451" data-name="Tracé 1451" d="M835.821,223.011c-12.594-4.2-19.453-17.66-14.568-32.3a32.21,32.21,0,0,1,3.04-6.566,31.8,31.8,0,0,0-5.678,10.259c-4.885,14.645,1.975,28.1,14.568,32.3,10.7,3.568,22.1-.7,28.284-11.047A23.454,23.454,0,0,1,835.821,223.011Z" transform="translate(-812.577 -171.589)" fill="#f7e7d0"/>
        <path id="Tracé_1452" data-name="Tracé 1452" d="M846.655,199.075a11.268,11.268,0,0,0-11.624-10.059,9.988,9.988,0,0,0-9.4,11.2,11.273,11.273,0,0,0,11.625,10.059A9.987,9.987,0,0,0,846.655,199.075Z" transform="translate(-807.777 -168.856)" fill="#3f322d"/>
        <path id="Tracé_1453" data-name="Tracé 1453" d="M873.354,216.069c-1.482-15.209-6.313-31.066-20.314-35.735-12.591-4.2-32.13.89-38.465,12.5C833.011,192.511,862.224,201.429,873.354,216.069Z" transform="translate(-813.957 -174.548)" fill="#e05555" opacity="0.5" style="mix-blend-mode: multiply;isolation: isolate"/>
        <path id="Tracé_1454" data-name="Tracé 1454" d="M840.846,202.691c1.537-1.651,1.745-3.958.464-5.15s-3.566-.82-5.105.829-1.745,3.96-.467,5.154S839.309,204.345,840.846,202.691Z" transform="translate(-802.532 -164.449)" fill="#fffeee"/>
        <path id="Tracé_1455" data-name="Tracé 1455" d="M838.424,194.9a1.374,1.374,0,1,0-1.2,1.422A1.323,1.323,0,0,0,838.424,194.9Z" transform="translate(-802.084 -166.156)" fill="#fffeee"/>
        <path id="Tracé_1456" data-name="Tracé 1456" d="M815.568,192.134c4.741-5.6,40.6-10.163,56.88,22.421,0,0,4.251-28.457-19.278-36.3C825.763,169.11,815.568,192.134,815.568,192.134Z" transform="translate(-813.4 -176.105)" fill="#fb8"/>
        <path id="Tracé_1457" data-name="Tracé 1457" d="M816.875,185.325a47.349,47.349,0,0,0-2.637,5.052c4.943-5.842,40.081-1.373,59.307,23.371,0,0,.366-1.8.7-4.711C858.131,180.341,827.33,180.754,816.875,185.325Z" transform="translate(-814.147 -172.226)" fill="#ff9769"/>
      </g>
      <g id="Groupe_105" data-name="Groupe 105" transform="translate(972.557 180.405)">
        <path id="Tracé_1458" data-name="Tracé 1458" d="M918.012,200.8c2.421-1.279,5.733-5.024,5.671-6.017s-10.062-7.173-10.062-7.173Z" transform="translate(-863.658 -173.941)" fill="#f45540"/>
        <path id="Tracé_1459" data-name="Tracé 1459" d="M889.759,210.211c-2.842-.012-7.583-1.823-7.951-2.742s4.8-10.741,4.8-10.741Z" transform="translate(-881.552 -168.812)" fill="#f45540"/>
        <path id="Tracé_1460" data-name="Tracé 1460" d="M885.152,215.814c-3.448-15.562,5.8-32.061,19.581-35.375s27.754,6.62,31.205,22.182-4.93,30.862-18.714,34.173S888.6,231.374,885.152,215.814Z" transform="translate(-880.068 -178.327)" fill="#f45540"/>
        <path id="Tracé_1461" data-name="Tracé 1461" d="M887.091,213.721c-3.332-15.023,4.191-29.656,16.8-32.686s25.531,6.694,28.864,21.715-4.769,27.061-17.382,30.091S890.418,228.743,887.091,213.721Z" transform="translate(-879.015 -177.945)" fill="#fffeee"/>
        <path id="Tracé_1462" data-name="Tracé 1462" d="M912.3,225.5c12.614-3.029,20.55-15.8,17.221-30.819a32.708,32.708,0,0,0-2.32-6.814,31.762,31.762,0,0,1,4.522,10.73c3.332,15.023-4.607,27.79-17.219,30.821-10.716,2.574-21.354-2.715-26.353-13.581C893.689,224.019,902.965,227.745,912.3,225.5Z" transform="translate(-877.977 -173.793)" fill="#f7e7d0"/>
        <path id="Tracé_1463" data-name="Tracé 1463" d="M894.332,203.982c-.951-6.088,2.807-11.8,8.4-12.763s10.9,3.195,11.847,9.284-2.807,11.8-8.4,12.763S895.285,210.07,894.332,203.982Z" transform="translate(-874.583 -171.986)" fill="#3f322d"/>
        <path id="Tracé_1464" data-name="Tracé 1464" d="M881.785,215.926c2.893-15,9.095-30.348,23.115-33.714,12.61-3.029,31.057,3.826,36.082,15.957C923.146,196.163,893.974,202.368,881.785,215.926Z" transform="translate(-881.554 -177.374)" fill="#e05555" opacity="0.5" style="mix-blend-mode: multiply;isolation: isolate"/>
        <path id="Tracé_1465" data-name="Tracé 1465" d="M905.554,201.453c-.347-2.224.736-4.263,2.42-4.554s3.332,1.281,3.679,3.507-.734,4.263-2.418,4.554S905.906,203.679,905.554,201.453Z" transform="translate(-868.229 -168.735)" fill="#fffeee"/>
        <path id="Tracé_1466" data-name="Tracé 1466" d="M904.719,196.373a1.713,1.713,0,0,1-1.389-1.436.939.939,0,0,1,1.05-1.148,1.713,1.713,0,0,1,1.392,1.437A.942.942,0,0,1,904.719,196.373Z" transform="translate(-869.449 -170.469)" fill="#fffeee"/>
        <path id="Tracé_1467" data-name="Tracé 1467" d="M939.479,197.268c-4.06-6.01-38.375-13.828-57.287,17.115,0,0-1.387-28.714,22.17-34.373C931.8,173.419,939.479,197.268,939.479,197.268Z" transform="translate(-881.333 -178.858)" fill="#fb8"/>
        <path id="Tracé_1468" data-name="Tracé 1468" d="M939.52,190.094a47.515,47.515,0,0,1,2.073,5.266c-4.232-6.263-38.719-5.029-59.725,17.844,0,0-.183-1.829-.231-4.755C900.009,181.362,929.821,184.588,939.52,190.094Z" transform="translate(-881.637 -174.652)" fill="#ff9769"/>
      </g>
    </g>
  </g>
</svg>
