<svg xmlns="http://www.w3.org/2000/svg" width="440" height="125" viewBox="0 0 440 125">
  <g id="NOSE" transform="translate(0 -250)">
    <rect id="Rectangle_19" data-name="Rectangle 19" width="440" height="125" transform="translate(0 250)" fill="#1488d0" opacity="0"/>
    <path id="Tracé_1550" data-name="Tracé 1550" d="M850.6,496.465s19.69,49.367,31.231,61.609-13.433,27.284-40.147,9.618l-.509-12.406s26.608,19.926,23.166-.339S850.6,496.465,850.6,496.465Z" transform="translate(-642.951 -235.93)" fill="#ff895a"/>
    <path id="Tracé_1576" data-name="Tracé 1576" d="M484.4,289.241a31.616,31.616,0,0,1-11.045-1.775c-7.169-2.376-13.446-6.611-20.513-9.2a45.942,45.942,0,0,0-13.471-2.7c-2.963-.083-10.929.478-13.826,3.811-2.9-3.332-10.863-3.894-13.823-3.811a45.919,45.919,0,0,0-13.471,2.7c-7.071,2.59-13.344,6.824-20.517,9.2a31.6,31.6,0,0,1-11.041,1.775c-1.108-.051-7.056-1.688-7.726-.58-.2.319.087.913.837,1.757a17.669,17.669,0,0,0,9.882,4.644c-7.821,2.557,4.075,4.253,6.68,4.369-2.724,2.5,9.085.6,9.885.445-.482.341-2.862,1.634-2.634,2.518.851,3.289,14.587-3.22,15.844-3.858-9.193,6.274,10.269,1.4,12.953.192-2.492,3.166.583,3.423,3.249,2.633a20.956,20.956,0,0,0,8.19-4.93c.467-.438,1.069-1.05,1.692-1.739.627.688,1.224,1.3,1.692,1.739a20.97,20.97,0,0,0,8.194,4.93c2.662.79,5.741.532,3.245-2.633,2.684,1.206,22.147,6.082,12.953-.192,1.261.638,15,7.147,15.844,3.858.228-.884-2.152-2.177-2.634-2.518.8.156,12.613,2.054,9.885-.445,2.608-.116,14.5-1.811,6.68-4.369a17.658,17.658,0,0,0,9.882-4.644c.75-.844,1.04-1.438.84-1.757C491.451,287.553,485.5,289.191,484.4,289.241Z" transform="translate(-205.541 64.287)" fill="#6d3f15"/>
  </g>
</svg>
