<svg id="HAIR" xmlns="http://www.w3.org/2000/svg" width="440" height="125" viewBox="0 0 440 125">
  <rect id="Rectangle_17" data-name="Rectangle 17" width="440" height="125" fill="#79d014" opacity="0"/>
  <path id="Tracé_1570" data-name="Tracé 1570" d="M618.937,15.356c8.5-4.623,15.122-16.16,10.6-22.489-12.854-17.987-40.755-31.832-72.625-36.033-18.312-2.415-37.311-1.8-55.986-2.793s-38.164-3.979-51.267-12.021c1.771,8.637-10.408,15.994-22.795,20.524s-26.712,8.163-34.386,15.551C383.476-13.227,375.67.57,384.976,10.913c-5.492,5.267-10.754,19.811-13.552,35.978h0c7.564-15.748,38.1-29.77,52.2-31.535,33.786-4.229,41.176,6.862,80.345,6.862s53.913-19.933,88.679-3.776C603.455,23.463,633.031,41,633.031,41h0C632.166,29.745,628.278,24.44,618.937,15.356Z" transform="translate(-281.469 74.109)" fill="#6d3f15"/>
</svg>
