<svg id="HAIR" xmlns="http://www.w3.org/2000/svg" width="440" height="125" viewBox="0 0 440 125">
  <rect id="Rectangle_17" data-name="Rectangle 17" width="440" height="125" fill="#79d014" opacity="0"/>
  <path id="Tracé_1569" data-name="Tracé 1569" d="M558.752,39.892c-1.789-10.581-5.845-21.584-14.819-30.279,11.557-4.216,28.129-13.7,27.324-24.239.015.135.026.2-.005-.1-.036-.336-.026-.23-.01-.069-.5-3.45-8.831,1.05-10.971,1.838.79-1.951,2.446-7.8-2.838-6.419.071-1.036.316-3.924-1.59-4.388-1.8-.434-4.744,1.6-6.033,2.265a64.817,64.817,0,0,1-7.72,3.37c-2.777-.952-5.549-1.933-8.388-2.783-5.616-1.656-11.241-3.231-17-4.606-5.942-1.422-11.237-4.227-16.6-6.532-22.9-9.829-47.667-18.568-74.671-20.107-27.584-1.576-55.622,3.527-78.533,14.7-10.105,4.931-19.313,11-26.183,18.28-3.674,3.9-15.344,19-2.533,20.526-17.983,9.249-21.765,30.206-20.3,51.083h0c1.87-11.525,23.89-21.847,28.328-27.339,10.63,4.738,24.787,7.09,37.144,8.024a341.346,341.346,0,0,0,42.811,1.215,387.99,387.99,0,0,0,86.223-12.922c6.278-1.689,28.038-8.815,28.639-7.108.5,1.426,31.722,15.84,37.3,38.131h0A40.132,40.132,0,0,0,558.752,39.892Z" transform="translate(-207.64 68.565)" fill="#6d3f15"/>
</svg>
