<svg id="HAIR" xmlns="http://www.w3.org/2000/svg" width="440" height="125" viewBox="0 0 440 125">
  <rect id="Rectangle_17" data-name="Rectangle 17" width="440" height="125" fill="#79d014" opacity="0"/>
  <path id="Tracé_1572" data-name="Tracé 1572" d="M175.34,18.68C188.562,6.665,197.695-7.14,206.462-20.9c.865-1.354,1.726-2.715,2.555-4.087C239.6,3.3,286.4,22.663,336.223,26.723a32.572,32.572,0,0,1-10.843-12.086c12.084,4.227,64.84,11.8,72.659,21.144h0c4.512-15.016,6.845-29.7,6.434-41.091q3.145,7.07,6.284,14.147c2.529-17.654-8.978-35.459-27.114-47.6S341.41-57.806,316.9-60.806l19.424-1.639c-22.257-9.521-50.18-10.815-75.322-6.249a195.148,195.148,0,0,0-50.788,17.1c-12.651,1.207-25.2,3.332-36.5,7.332-12.063,4.268-22.664,10.825-28.315,19.2-5.1,7.556-5.939,16.112-5.47,24.413.706,12.464,3.266,24.724,8.88,36.431h0c4.229-10.282,20.377-20.507,24.106-30.856Q174.122,11.8,175.34,18.68Z" transform="translate(-55.542 80.133)" fill="#6d3f15"/>
</svg>
