<svg id="HAIR" xmlns="http://www.w3.org/2000/svg" width="440" height="125" viewBox="0 0 440 125">
  <rect id="Rectangle_17" data-name="Rectangle 17" width="440" height="125" fill="#79d014" opacity="0"/>
  <path id="Tracé_1571" data-name="Tracé 1571" d="M484.047,43.516a32.739,32.739,0,0,0,.449-6.763,57.53,57.53,0,0,0-5.633-20.886,97.462,97.462,0,0,1,5.829,10.43c.368.738,2.293,5.992,4.212,5.463,2.156-.6,2.2-4.747,2.313-6.01a31.531,31.531,0,0,0-.645-9.215,43.031,43.031,0,0,0-1.547-5.493c-.645-1.822-1.8-3.644-1.915-5.522a30.258,30.258,0,0,0-2.166-9.42c-2.635-6.629-7.321-12.494-13.4-17.7A29.309,29.309,0,0,0,468-25.044c-7.371-5.932-16.844-10.236-26.774-13.426,5.991.786,12.218,2.131,18.33,2.239.851.019,3-.037,2.071-1.084-1.642-1.848-5.421-3.171-7.971-4.207-13.3-5.4-28.694-8.384-43.572-10.2,4.64-.5-2.378-3.5-3.653-4.039C386.986-63.2,362.736-63.5,341.7-60.4a144.6,144.6,0,0,0-29.1,7.244c-7.578,2.821-14.884,5.85-20.874,10.378-3,2.4-5.673,5.068-7.044,8.209-1.91-2.042-6-2.914-9.1-3.339-8.485-.928-17.1,1.066-24.668,3.7-8.339,3.723-15.015,8.41-19.04,15.08-.529,1.047-3.5,7.911.6,7.132a14.892,14.892,0,0,0,4.64-2.292c1.708-1,3.32-2.139,5.129-3.044C232-9.434,225.131.534,221.987,11.209l-.04.13a43.954,43.954,0,0,0-1.774,16.138c.066.775,1.517,10.232,4.081,8.537,1.789-1.181,2.338-3.8,2.958-5.4.947-2.444,1.834-4.9,2.842-7.33A77.5,77.5,0,0,1,238.73,7.349c-6.963,11.406-10.51,23.61-10.137,36.119.02.212.07.686.146,1.3h1.315c4.525-6.148,25.7-22.358,30.85-28.23,6.142-7.005,22.2-3.7,27.752-10.97,4.882-6.394,9.754-13.28,10.5-20.74a141.263,141.263,0,0,0,13.538,5.165c27.475,8.965,56.829,14.4,83.749,24.355,5.945,2.2,11.76,4.591,17.388,7.2,4.943,2.292,9.578,4.96,14.591,7.158.549.242,2.771,1.375,3.381.686.559-.637-.479-1.934-.852-2.474-2.872-4.185-7.482-7.848-12.022-11.071a139.123,139.123,0,0,1,14.148,8.3c-.025-.022.106.082-.05-.048.952.708,1.909,1.412,2.837,2.139,3.124,4.274,22.89.007,25.772,4.378,1.255,1.9,22.119,14.149,22.119,14.149h0C483.906,44.194,484,43.71,484.047,43.516Z" transform="translate(-135.758 71.15)" fill="#6d3f15"/>
</svg>
