<svg xmlns="http://www.w3.org/2000/svg" width="440" height="125" viewBox="0 0 440 125">
  <g id="MOUTH" transform="translate(0 -375)">
    <path id="Tracé_1113" data-name="Tracé 1113" d="M0,0H440V125H0Z" transform="translate(0 375)" fill="#2ad014" opacity="0"/>
    <g id="Groupe_89" data-name="Groupe 89" transform="translate(80.876 -161.063)">
      <path id="Tracé_1210" data-name="Tracé 1210" d="M99.129,616.16c-.875,12.714,26.179,20.435,38.261,19.726,14.429-.848,32.295-9.222,32.413-22.08.133-14.626-1.888-37.47-19.416-60.019-4.083-5.248-6.771-7.795-16.869-7.316-9.831.466-19.043,5.772-22.842,13.938C103.345,576.168,100.853,591.127,99.129,616.16Z" transform="translate(4.569 0.258)" fill="#ef5c54"/>
      <path id="Tracé_1214" data-name="Tracé 1214" d="M99.31,614.517c-.837,12.377,26.108,21.141,38.184,20.466,14.425-.8,32.392-10.134,32.471-22.653.091-14.238-3.469-35.215-17.415-61.116-3.092-5.745-11.395-6.492-21.49-6.043-9.827.438-16.6,7.14-20.374,15.085C103.4,575.59,100.959,590.147,99.31,614.517Z" transform="translate(4.604)" fill="#ff9769"/>
      <path id="Tracé_1215" data-name="Tracé 1215" d="M100.888,614.932c-.743,7.91,24.1,14.235,34.95,13.589,12.955-.774,31.722-6.649,31.408-15.713-.459-13.21-2.5-36.064-18.224-56.455-3.662-4.748-6.854-7.34-15.921-6.905-8.826.424-17.83,4.625-21.248,12.014C105.259,575.724,103.014,592.3,100.888,614.932Z" transform="translate(4.906 0.829)" fill="#f45540"/>
      <path id="Tracé_1216" data-name="Tracé 1216" d="M100.884,613.674a6.755,6.755,0,0,0,3.959,6.439c19.322,9.671,39.448,10.12,58.1-.816,5.436-3.187,4.143-7.483,4.26-10.153.451-10.513-.6-31.109-20.664-53-6.137-6.693-26.415-7.37-32.72,4.518C105,577.288,102.367,591.77,100.884,613.674Z" transform="translate(4.906 1.204)" fill="#493736"/>
      <path id="Tracé_1217" data-name="Tracé 1217" d="M105.73,611.308a6.161,6.161,0,0,0,3.23,5.87c15.04,8.273,31.684,9.827,48.49-1.015a10,10,0,0,0,4.619-7.357c.843-8.74.238-28.74-17.717-50.4-5.058-6.1-21.97-6.628-27.339,4.287C109.5,577.96,107.171,591.237,105.73,611.308Z" transform="translate(5.832 1.725)" fill="#3d2f2c"/>
      <path id="Tracé_1218" data-name="Tracé 1218" d="M109.2,607.772a4.776,4.776,0,0,0,2.762,4.554c12.723,6.458,26.741,7.724,40.8-.6a7.543,7.543,0,0,0,3.831-5.672c.642-6.759-.024-22.234-15.3-39.062-4.3-4.741-18.542-5.214-22.976,3.211C112.113,581.989,110.256,592.25,109.2,607.772Z" transform="translate(6.496 3.545)" fill="#332723"/>
      <path id="Tracé_1219" data-name="Tracé 1219" d="M130.7,583.784c-2.117-2.516-5.205-2.513-6.746-.556a5.438,5.438,0,0,0,.155,6.207c1.395,2.061,3.961,3.108,5.97,2.057C132.547,590.2,133,586.515,130.7,583.784Z" transform="translate(9.146 7.027)" fill="#443632"/>
      <path id="Tracé_1220" data-name="Tracé 1220" d="M137.293,576.291c-4.424-4.4-6.913.5-5.677,4.287,1.3,3.983.662,11.1-2.955,9.616s-.519-10.144-.466-10.942c.1-1.5-1.57-4.357-4.842-2.668a6.349,6.349,0,0,0-1.275,1.568c-4.034,7.091-5.195,13.278-5.789,22.639a2.922,2.922,0,0,0,1.862,2.76c8.481,3.938,17.788,4.75,27.052-.224a4.469,4.469,0,0,0,2.5-3.41C148.087,595.84,147.539,586.5,137.293,576.291Z" transform="translate(7.853 5.637)" fill="#231a18"/>
      <path id="Tracé_1221" data-name="Tracé 1221" d="M104.185,600.375a36.763,36.763,0,0,1,27.512-4.081s17.023-5.924,31.772,1.077A71.574,71.574,0,0,1,129.195,605C110.11,604.195,104.185,600.375,104.185,600.375Z" transform="translate(5.54 9.346)" fill="#ff7e78"/>
      <g id="Groupe_88" data-name="Groupe 88" transform="translate(108.2 605.19)">
        <path id="Tracé_1222" data-name="Tracé 1222" d="M161.285,595.957c1.5,3.395-17.192,6.351-29.049,6.877-9.714.434-25.637-1.872-23.821-4.853-1.877.829-5.938,1.894-5.473,4.725,0,0,7.32,1.65,26.4,2.456a108.871,108.871,0,0,0,35.245-4.622C166.456,597.255,162.1,596.264,161.285,595.957Z" transform="translate(-102.905 -595.461)" fill="#f66"/>
        <path id="Tracé_1223" data-name="Tracé 1223" d="M127.374,595.99c-.193-.049-.382-.086-.574-.132a4.4,4.4,0,0,1,.795,1.514c.4-.586.935-1.223,1.261-1.831C127.9,595.807,127.374,595.99,127.374,595.99Z" transform="translate(-98.337 -595.541)" fill="#f66"/>
      </g>
      <path id="Tracé_1224" data-name="Tracé 1224" d="M112.038,565.775a.771.771,0,0,1-.709-.117.54.54,0,0,1-.183-.6,19.393,19.393,0,0,1,6.772-9.159c5.294-3.946,20.384-5.133,26.363,1.765a66.123,66.123,0,0,1,5.463,7.191.58.58,0,0,1-.119.759.837.837,0,0,1-.872.142C138.919,561.547,122.365,562.455,112.038,565.775Z" transform="translate(6.865 1.462)" fill="#fffeee"/>
      <path id="Tracé_1225" data-name="Tracé 1225" d="M149.743,563.344c-.177-.274-.379-.577-.6-.9a.853.853,0,0,1-.665.01c-5.047-2.161-11.56-1.914-18.4-1.745-6.483.163-13.289.149-18.315,1.767a.845.845,0,0,1-.224.034c-.141.339-.275.681-.4,1.035a.54.54,0,0,0,.183.6.771.771,0,0,0,.709.117c5.124-1.647,11.87-2.32,18.48-2.45,6.71-.13,13.281.31,18.234,2.429a.837.837,0,0,0,.872-.142A.58.58,0,0,0,149.743,563.344Z" transform="translate(6.865 2.971)" fill="#ffe9cf"/>
      <path id="Tracé_1226" data-name="Tracé 1226" d="M149.595,565.634c.01-.008.019-.013.029-.023a.58.58,0,0,0,.119-.759,66.126,66.126,0,0,0-5.463-7.191c-5.978-6.9-21.069-5.712-26.363-1.765a19.393,19.393,0,0,0-6.772,9.159.522.522,0,0,0,.027.4c2.862-6.327,10.182-9.757,17.994-10.055C136.226,555.133,143.627,557.225,149.595,565.634Z" transform="translate(6.865 1.462)" fill="#f2d5b1"/>
      <path id="Tracé_1227" data-name="Tracé 1227" d="M131.316,596.968c-1.295.609-2.995,2.856-1.169,2.831,2.647-.039,13.261-3.571,14.343-4.484S137.6,594,131.316,596.968Z" transform="translate(10.35 9.479)" fill="#ff8e85"/>
      <path id="Tracé_1228" data-name="Tracé 1228" d="M144.373,596c0-.149-.577-.242-1.28-.212s-1.272.175-1.27.322.578.244,1.281.211S144.377,596.146,144.373,596Z" transform="translate(12.734 9.695)" fill="#ffa897"/>
      <path id="Tracé_1229" data-name="Tracé 1229" d="M143.916,594.826c0-.11-.332-.186-.739-.166s-.733.121-.73.23.334.189.739.168S143.918,594.938,143.916,594.826Z" transform="translate(12.854 9.48)" fill="#ffa897"/>
      <path id="Tracé_1230" data-name="Tracé 1230" d="M127.931,596.9c.092-.405-1.279-.877-3.154-1.154a20.506,20.506,0,0,0-5.964-.079c-1.9.4-1.842,1.831,1.907,2.266C124.06,598.306,127.809,597.43,127.931,596.9Z" transform="translate(8.101 9.637)" fill="#ff8e85"/>
      <path id="Tracé_1231" data-name="Tracé 1231" d="M125.508,598.16c0-.11-.369-.185-.816-.163s-.81.124-.808.235.368.185.816.166S125.509,598.272,125.508,598.16Z" transform="translate(9.305 10.118)" fill="#ffa897"/>
      <path id="Tracé_1232" data-name="Tracé 1232" d="M116.778,596.168c0-.129-.385-.214-.854-.193s-.848.142-.846.269.385.214.855.2S116.78,596.3,116.778,596.168Z" transform="translate(7.622 9.732)" fill="#ffa897"/>
      <path id="Tracé_1233" data-name="Tracé 1233" d="M111.973,597.637c0-.2-.525-.342-1.166-.315s-1.157.214-1.152.417.528.344,1.167.317S111.977,597.839,111.973,597.637Z" transform="translate(6.585 9.989)" fill="#f66"/>
      <path id="Tracé_1234" data-name="Tracé 1234" d="M115.351,598.613c0-.126-.5-.2-1.1-.179s-1.1.15-1.095.276.5.207,1.1.179S115.353,598.741,115.351,598.613Z" transform="translate(7.254 10.202)" fill="#f66"/>
      <path id="Tracé_1235" data-name="Tracé 1235" d="M114.94,597.624c0-.126-.5-.207-1.1-.18s-1.1.149-1.1.277.5.207,1.1.179S114.943,597.751,114.94,597.624Z" transform="translate(7.175 10.012)" fill="#f66"/>
      <path id="Tracé_1236" data-name="Tracé 1236" d="M142.012,597.507c0-.129-.5-.207-1.1-.18s-1.1.149-1.095.278.5.206,1.1.179S142.015,597.632,142.012,597.507Z" transform="translate(12.35 9.99)" fill="#f66"/>
      <path id="Tracé_1237" data-name="Tracé 1237" d="M149.643,596.05c0-.126-.5-.207-1.1-.18s-1.1.149-1.1.277.5.206,1.105.179S149.645,596.175,149.643,596.05Z" transform="translate(13.809 9.711)" fill="#f66"/>
      <path id="Tracé_1238" data-name="Tracé 1238" d="M105.8,601.492a3.089,3.089,0,0,0-2.3.407c-1.959,1.266-1.917,4.311,1.428,6.632,12.363,8.585,44.741,9.772,57.818-1.3,3.7-3.134,2.948-7.427,2.26-7.864a1.627,1.627,0,0,0-1.271-.183C140.493,605.152,125.855,605.918,105.8,601.492Z" transform="translate(5.157 10.335)" fill="#fffeee"/>
      <path id="Tracé_1239" data-name="Tracé 1239" d="M102.853,602.765a3.176,3.176,0,0,1,2.344-.4c20.1,4.374,32.765,4.657,55.764-1.033.376-.093,3.413-1.308,2.389,5.768,1.738-.7,1.8-7.073,2.141-6.919a2.156,2.156,0,0,0-.4-1.182,1.626,1.626,0,0,0-1.27-.188c-23.237,5.975-38.074,6.763-58.132,2.341a3.07,3.07,0,0,0-2.3.406,2.839,2.839,0,0,0-1.035,1.7A1.921,1.921,0,0,1,102.853,602.765Z" transform="translate(5.188 10.263)" fill="#ffe9cf"/>
      <path id="Tracé_1240" data-name="Tracé 1240" d="M165.15,598.993a1.559,1.559,0,0,0-.858-.237c.279,2.759,1,5.556-1.537,7.745-12.61,10.894-45.833,9.806-57.713,1.386-2.23-1.577-2.341-3.481-1.864-6.112-1.7,1.716-1.77,5.426,1.415,7.638,12.363,8.582,45.333,9.8,58.41-1.277C166.7,605,165.839,599.43,165.15,598.993Z" transform="translate(5.126 10.264)" fill="#f2d5b1"/>
      <path id="Tracé_1241" data-name="Tracé 1241" d="M123.616,603.069c1.6-.024,2.653,1.084,2.641,3,0,0,.609-2.964,1.894-3.108A4.744,4.744,0,0,0,123.616,603.069Z" transform="translate(9.254 10.967)" fill="#f66"/>
      <path id="Tracé_1242" data-name="Tracé 1242" d="M141.834,601.316c.816-.1,1.482.623,1.687,1.956,0,0-.015-2.094.628-2.261A1.879,1.879,0,0,0,141.834,601.316Z" transform="translate(12.737 10.645)" fill="#f66"/>
      <path id="Tracé_1243" data-name="Tracé 1243" d="M115.108,563.907c.478-.135,1.376-.923,1.289-2.753,0,0,.231,1.824,1.489,2.143l-1.284.729Z" transform="translate(7.628 3.076)" fill="#3d2f2c"/>
      <path id="Tracé_1244" data-name="Tracé 1244" d="M125.392,562.568a3.03,3.03,0,0,0,2.291-3.232,3.3,3.3,0,0,0,2.2,2.79l-2.114.753Z" transform="translate(9.594 2.728)" fill="#3d2f2c"/>
      <path id="Tracé_1245" data-name="Tracé 1245" d="M135.7,562.875a2.342,2.342,0,0,0,2.266-1.93,2.239,2.239,0,0,0,1.209,2.257l-1.725.225Z" transform="translate(11.564 3.036)" fill="#3d2f2c"/>
      <path id="Tracé_1246" data-name="Tracé 1246" d="M109.217,601.542c1.94.382,2.3,2.768,2.093,7.65,0,0,.543-7.3,3.259-6.817A9.36,9.36,0,0,0,109.217,601.542Z" transform="translate(6.502 10.781)" fill="#f66"/>
      <path id="Tracé_1247" data-name="Tracé 1247" d="M141.587,617.078c-.038-1.824-4.809-1.961-8.729-.793-2.716.81-4.22,2.055-4.039,2.958.181.882,1.975,1.495,4.644,1.356C137.232,620.4,141.628,618.821,141.587,617.078Z" transform="translate(10.246 13.471)" fill="#ffaf83"/>
      <path id="Tracé_1248" data-name="Tracé 1248" d="M126.085,608.816s-.229,3.881-2.618,4.251l7.348.079S126.159,612.418,126.085,608.816Z" transform="translate(9.226 12.187)" fill="#f2d5b1"/>
      <path id="Tracé_1249" data-name="Tracé 1249" d="M135.986,612.287c1.6-1.073,1.6-1.275,1.643-2.81,0,0,1.127,2.154,2.367,2.3S135.986,612.287,135.986,612.287Z" transform="translate(11.619 12.313)" fill="#f2d5b1"/>
      <path id="Tracé_1250" data-name="Tracé 1250" d="M141.767,588.432c1.4-.84,3.092-2.729,3.613-1.594S141.767,588.432,141.767,588.432Z" transform="translate(12.724 7.918)" fill="#a3d0d6"/>
      <path id="Tracé_1251" data-name="Tracé 1251" d="M153.839,594.537c1.66.158,4.343-.318,3.845.852S153.839,594.537,153.839,594.537Z" transform="translate(15.031 9.457)" fill="#b4ebef"/>
      <path id="Tracé_1252" data-name="Tracé 1252" d="M151.391,589.823c1.406-.486,3.491-1.892,3.373-.712S151.391,589.823,151.391,589.823Z" transform="translate(14.563 8.332)" fill="#a3d0d6"/>
      <path id="Tracé_1253" data-name="Tracé 1253" d="M108.693,590.383c-1.678.039-4.271.824-3.962-.391S108.693,590.383,108.693,590.383Z" transform="translate(5.639 8.502)" fill="#a3d0d6"/>
      <path id="Tracé_1254" data-name="Tracé 1254" d="M113.261,588.725c-.983-.61-2.794-1.091-2.124-1.75S113.261,588.725,113.261,588.725Z" transform="translate(6.841 7.99)" fill="#a3d0d6"/>
      <path id="Tracé_1255" data-name="Tracé 1255" d="M126.194,553.489l1.409,4.476,1.059-4.786Z" transform="translate(9.747 1.552)" fill="#f2d5b1"/>
      <path id="Tracé_1256" data-name="Tracé 1256" d="M136.205,556.115l1.025,3.855.748-4.106Z" transform="translate(11.661 2.065)" fill="#f2d5b1"/>
    </g>
  </g>
</svg>
